<svg width="112px" height="50px" viewBox="0 0 112 50" fill="none" xmlns="http://www.w3.org/2000/svg">
<path d="M68.1322 25.6628H59.1284L57.433 29.6513H54.9713L62.5134 11.8352H64.7414L72.2835 29.6513H69.8218L68.1322 25.6628ZM59.9732 23.6456H67.2816L63.7069 15.1858L63.6284 14.8582L63.5498 15.1858L59.9732 23.6456Z" fill="#1C2355"/>
<path d="M85.3678 27.8103C84.5314 28.4891 83.595 29.0345 82.592 29.4272C81.6324 29.806 80.6102 30.001 79.5786 30.0019C78.7604 30.0061 77.947 29.8767 77.1705 29.6188C76.4657 29.3908 75.8086 29.0356 75.2318 28.5709C74.6899 28.1318 74.25 27.5801 73.9425 26.954C73.6288 26.3099 73.4694 25.6015 73.477 24.8851C73.4646 24.2506 73.601 23.622 73.8755 23.0498C74.1403 22.5206 74.4875 22.0369 74.9042 21.6169C75.3292 21.1891 75.8016 20.8112 76.3123 20.4904C76.8321 20.1635 77.3493 19.8602 77.864 19.5805C77.2795 19.0667 76.7723 18.4711 76.3582 17.8123C76.1406 17.4641 75.9626 17.0927 75.8276 16.705C75.6932 16.3247 75.6245 15.9244 75.6245 15.5211C75.6194 14.9594 75.7357 14.4033 75.9655 13.8908C76.1881 13.3931 76.5147 12.9489 76.9234 12.5881C77.3627 12.207 77.8722 11.9155 78.4234 11.7299C79.0558 11.5169 79.7197 11.4126 80.387 11.4215C81.0314 11.4133 81.673 11.5083 82.2874 11.7031C82.8201 11.872 83.3155 12.1412 83.7471 12.4962C84.1531 12.8353 84.4756 13.2634 84.6897 13.7471C84.9179 14.2687 85.0316 14.8331 85.023 15.4023C85.0325 15.9307 84.9231 16.4544 84.7031 16.9349C84.4857 17.3887 84.1958 17.8041 83.8448 18.1648C83.4737 18.5468 83.0582 18.8832 82.6073 19.1667C82.1399 19.463 81.6533 19.7427 81.1475 20.0057L85.4981 24.8621C85.9191 24.3096 86.2692 23.7066 86.5402 23.0671C86.8153 22.4196 86.9978 21.7367 87.0824 21.0383H89.1782C89.087 22.0249 88.8326 22.9895 88.4253 23.8927C88.0216 24.7897 87.4898 25.6234 86.8467 26.3678L89.8065 29.6513H87.0575L85.3678 27.8103ZM79.5134 28.0192C80.328 28.0207 81.1359 27.872 81.8966 27.5805C82.6685 27.2872 83.3894 26.8741 84.0326 26.3563L79.1609 20.9923C78.7778 21.1928 78.3851 21.4112 77.9828 21.6475C77.5895 21.8773 77.2226 22.1497 76.8889 22.4598C76.5652 22.7617 76.2911 23.1128 76.0766 23.5C75.8566 23.9122 75.7458 24.3738 75.7548 24.841C75.7477 25.2839 75.8421 25.7225 76.0307 26.1233C76.2193 26.5241 76.4971 26.8764 76.8429 27.1533C77.1997 27.4364 77.6056 27.6514 78.0402 27.7874C78.516 27.9419 79.0132 28.0202 79.5134 28.0192ZM77.8908 15.7356C77.8903 16.0227 77.9436 16.3073 78.0479 16.5747C78.1542 16.8499 78.2924 17.1116 78.4598 17.3544C78.6316 17.6041 78.8197 17.8422 79.023 18.067C79.228 18.295 79.4311 18.5077 79.6322 18.7088C79.9464 18.5619 80.2867 18.3959 80.6533 18.2107C81.0162 18.0305 81.3586 17.8115 81.6743 17.5575C81.9848 17.3073 82.2504 17.006 82.4598 16.6667C82.6772 16.2983 82.7861 15.8759 82.7739 15.4483C82.7781 15.1541 82.7227 14.8622 82.6111 14.59C82.504 14.3357 82.3455 14.1061 82.1456 13.9157C81.9371 13.7187 81.6898 13.5674 81.4196 13.4713C81.1123 13.3617 80.7878 13.3084 80.4617 13.3142C80.0818 13.3061 79.704 13.3712 79.3487 13.5057C79.0446 13.6255 78.7682 13.8061 78.5364 14.0364C78.321 14.2546 78.1539 14.5157 78.046 14.8027C77.9382 15.1017 77.8856 15.4178 77.8908 15.7356Z" fill="#1C2355"/>
<path d="M111.785 33.1399C111.675 33.1984 111.562 33.2508 111.446 33.2969C111.301 33.3578 111.152 33.4102 111 33.454C110.186 33.6598 109.349 33.757 108.51 33.7433C107.642 33.7353 106.781 33.5938 105.956 33.3238C105.132 33.0546 104.364 32.6372 103.69 32.092C102.986 31.5193 102.435 30.7816 102.086 29.9445C101.807 29.9885 101.529 30.023 101.255 30.0498C100.981 30.0766 100.701 30.09 100.423 30.09C97.9069 30.1031 95.4878 29.1188 93.6954 27.3525C92.5308 26.2133 91.6842 24.7895 91.2395 23.2222C91.0105 22.4172 90.8957 21.5841 90.8985 20.7471C90.8958 19.9052 91.0106 19.067 91.2395 18.2567C91.6793 16.6874 92.5267 15.2624 93.6954 14.1264C94.8638 12.9776 96.3088 12.1495 97.8908 11.7222C99.5532 11.2778 101.303 11.2778 102.966 11.7222C103.764 11.9389 104.532 12.2556 105.251 12.6648C105.954 13.0689 106.604 13.56 107.184 14.1264C107.762 14.6901 108.265 15.3256 108.682 16.0172C109.544 17.4462 109.997 19.0842 109.992 20.7529C109.995 21.6929 109.849 22.6273 109.557 23.5211C108.995 25.2625 107.935 26.801 106.508 27.9464C105.792 28.5228 104.998 28.995 104.149 29.3487C104.359 29.7921 104.645 30.1954 104.994 30.5402C105.306 30.8439 105.664 31.0961 106.056 31.2874C106.431 31.4693 106.829 31.5983 107.239 31.6705C107.642 31.7394 108.05 31.7746 108.458 31.7759C108.847 31.7764 109.237 31.7501 109.623 31.6973C109.998 31.6437 110.339 31.5798 110.646 31.5057L110.881 31.4464C110.967 31.4253 111.056 31.4004 111.142 31.3736L111.785 33.1399ZM93.2299 20.7395C93.222 21.7212 93.4136 22.6942 93.7931 23.5996C94.1555 24.4658 94.6795 25.2551 95.3372 25.9253C95.9959 26.5897 96.7764 27.1211 97.636 27.4904C98.5203 27.8743 99.4747 28.0701 100.439 28.0651C101.409 28.0702 102.37 27.8745 103.261 27.4904C104.12 27.1213 104.901 26.5899 105.559 25.9253C106.217 25.2551 106.741 24.4658 107.103 23.5996C107.483 22.6942 107.675 21.7212 107.667 20.7395C107.686 19.3021 107.277 17.8915 106.493 16.687C105.708 15.4825 104.583 14.5385 103.261 13.9751C102.37 13.591 101.409 13.3953 100.439 13.4004C99.4747 13.3955 98.5203 13.5912 97.636 13.9751C96.3181 14.5448 95.1973 15.4902 94.4136 16.6933C93.6299 17.8964 93.2182 19.3037 93.2299 20.7395Z" fill="#1C2355"/>
<path d="M55.1015 33.6437C55.1844 33.5659 55.2943 33.5233 55.408 33.5249C55.4632 33.5239 55.5181 33.5338 55.5694 33.5542C55.6207 33.5746 55.6675 33.605 55.7069 33.6437C55.7472 33.6805 55.7792 33.7256 55.8006 33.7758C55.8221 33.826 55.8326 33.8803 55.8314 33.9349C55.8331 33.9918 55.8229 34.0485 55.8014 34.1012C55.78 34.154 55.7478 34.2018 55.7069 34.2414C55.6251 34.3187 55.5168 34.3618 55.4042 34.3618C55.2916 34.3618 55.1833 34.3187 55.1015 34.2414C55.06 34.2036 55.0269 34.1574 55.0044 34.1059C54.982 34.0544 54.9707 33.9987 54.9713 33.9425C54.9697 33.8862 54.9805 33.8302 55.003 33.7786C55.0255 33.7269 55.0592 33.6809 55.1015 33.6437ZM55.6762 35.728V40.5996H55.09V35.728H55.6762Z" fill="#1C2355"/>
<path d="M61.6092 35.9962C61.7502 36.1332 61.8625 36.2969 61.9394 36.4778C62.0164 36.6587 62.0566 36.8532 62.0575 37.0498V40.5996H61.4598V37.2107C61.4548 36.9183 61.3446 36.6374 61.1494 36.4195C61.0412 36.3136 60.9125 36.231 60.7712 36.1766C60.6298 36.1222 60.4789 36.0973 60.3276 36.1034C60.007 36.1002 59.6911 36.1815 59.4119 36.3391C59.1317 36.4966 58.8994 36.7269 58.7395 37.0057C58.5661 37.3018 58.4773 37.6397 58.4828 37.9827V40.5996H57.8985V35.728H58.4081L58.4579 36.8123C58.6198 36.4342 58.9028 36.1208 59.2625 35.9214C59.6425 35.6999 60.0754 35.5854 60.5153 35.59C60.7154 35.5822 60.9151 35.614 61.1029 35.6837C61.2906 35.7534 61.4627 35.8596 61.6092 35.9962Z" fill="#1C2355"/>
<path d="M69.0824 35.728V40.6743C69.0914 40.9792 69.0381 41.2828 68.9257 41.5664C68.8134 41.85 68.6444 42.1077 68.4291 42.3238C67.9924 42.7605 67.3301 42.9783 66.4425 42.977C66.0407 42.9814 65.6423 42.9031 65.272 42.7471C64.8633 42.5594 64.4915 42.2999 64.1743 41.9808L64.523 41.5824C64.7977 41.8656 65.1225 42.0955 65.4809 42.2605C65.7763 42.3871 66.0943 42.4523 66.4157 42.4521C67.1284 42.4521 67.6469 42.2905 67.9713 41.9674C68.3066 41.6151 68.4902 41.1453 68.4828 40.659L68.4943 39.5096C68.2719 39.8727 67.9564 40.1697 67.5805 40.3697C67.185 40.585 66.7414 40.6964 66.2912 40.6935C65.8506 40.6978 65.4172 40.5812 65.0383 40.3563C64.6619 40.1337 64.3507 39.8159 64.136 39.4349C63.913 39.0348 63.7969 38.5839 63.799 38.1259C63.801 37.6678 63.921 37.218 64.1475 36.8199C64.3782 36.4338 64.7092 36.1173 65.1054 35.9042C65.5095 35.6821 65.9641 35.5679 66.4253 35.5728C66.8523 35.5745 67.2721 35.6838 67.6456 35.8908C68.0122 36.0798 68.3153 36.3722 68.5173 36.7318L68.5671 35.7222L69.0824 35.728ZM67.433 39.9578C67.7283 39.8018 67.9819 39.5771 68.1724 39.3027C68.3586 39.0432 68.4706 38.7379 68.4962 38.4195V37.6973C68.4033 37.2334 68.1445 36.8193 67.7682 36.5326C67.3919 36.2329 66.9235 36.0725 66.4425 36.0785C66.0772 36.0738 65.7169 36.1635 65.3966 36.3391C65.0864 36.5079 64.8296 36.76 64.6552 37.0671C64.4724 37.3918 64.3798 37.7596 64.387 38.1322C64.3856 38.4935 64.4792 38.8487 64.6584 39.1624C64.8376 39.4761 65.0962 39.7372 65.4081 39.9195C65.7206 40.1063 66.0784 40.2038 66.4425 40.2011C66.7877 40.2032 67.128 40.1196 67.433 39.9578Z" fill="#1C2355"/>
<path d="M74.8487 39.6513L75.1475 40.0747C74.9012 40.2687 74.6258 40.4226 74.3314 40.5306C73.9658 40.666 73.5754 40.721 73.1866 40.6919C72.7979 40.6628 72.4199 40.5503 72.0786 40.3621C71.6927 40.1472 71.3733 39.8304 71.1552 39.4464C70.9332 39.0492 70.8195 38.6006 70.8257 38.1456C70.8223 37.6921 70.9429 37.2463 71.1743 36.8563C71.4028 36.4659 71.7289 36.1418 72.1207 35.9157C72.5176 35.684 72.9696 35.5636 73.4291 35.567C73.9549 35.5537 74.4678 35.7306 74.8736 36.0651C75.2871 36.4189 75.5898 36.8846 75.7452 37.4061L71.5862 39.0134C71.7468 39.3663 72.0065 39.6648 72.3337 39.8726C72.6609 40.0804 73.0415 40.1886 73.4291 40.1839C73.9514 40.1854 74.4562 39.996 74.8487 39.6513ZM72.3927 36.3391C72.0894 36.5164 71.8399 36.7726 71.6705 37.0805C71.4939 37.3984 71.4035 37.757 71.4081 38.1207C71.4062 38.2754 71.4229 38.4297 71.4579 38.5805L75.046 37.1743C74.8973 36.8545 74.6699 36.5777 74.3851 36.3697C74.0982 36.1649 73.7528 36.0581 73.4004 36.0651C73.0458 36.0628 72.6973 36.1575 72.3927 36.3391Z" fill="#1C2355"/>
<path d="M81.0766 35.9962C81.2176 36.1332 81.3299 36.2969 81.4069 36.4778C81.4838 36.6588 81.524 36.8532 81.5249 37.0498V40.5996H80.9272V37.2107C80.9224 36.9179 80.8115 36.6367 80.615 36.4195C80.507 36.3133 80.3783 36.2303 80.2369 36.176C80.0955 36.1216 79.9445 36.0969 79.7931 36.1034C79.4725 36.1008 79.1568 36.182 78.8774 36.3391C78.5981 36.4977 78.366 36.7278 78.205 37.0057C78.0322 37.3019 77.944 37.6399 77.9502 37.9828V40.5996H77.3736V35.728H77.8851L77.9349 36.8123C78.096 36.4344 78.3784 36.121 78.7375 35.9215C79.1178 35.7007 79.5507 35.5868 79.9904 35.592C80.3917 35.5781 80.7821 35.7234 81.0766 35.9962Z" fill="#1C2355"/>
<path d="M83.7471 33.6437C83.83 33.5659 83.9399 33.5233 84.0536 33.5249C84.1088 33.5239 84.1637 33.5338 84.215 33.5542C84.2663 33.5746 84.3131 33.605 84.3525 33.6437C84.3928 33.6805 84.4248 33.7256 84.4463 33.7758C84.4677 33.826 84.4782 33.8803 84.477 33.9349C84.4787 33.9918 84.4685 34.0485 84.447 34.1012C84.4256 34.154 84.3934 34.2018 84.3525 34.2414C84.2707 34.3187 84.1624 34.3618 84.0498 34.3618C83.9372 34.3618 83.8289 34.3187 83.7471 34.2414C83.7056 34.2036 83.6725 34.1574 83.65 34.1059C83.6276 34.0544 83.6163 33.9987 83.6169 33.9425C83.6152 33.8862 83.6261 33.8302 83.6486 33.7786C83.6711 33.7269 83.7048 33.6809 83.7471 33.6437ZM84.3218 35.728V40.5996H83.7356V35.728H84.3218Z" fill="#1C2355"/>
<path d="M90.0939 39.6513L90.3927 40.0747C90.1464 40.2687 89.871 40.4226 89.5766 40.5306C89.2107 40.6659 88.8199 40.7208 88.4309 40.6917C88.0419 40.6626 87.6636 40.5502 87.3219 40.3621C86.9365 40.1472 86.6177 39.8304 86.4004 39.4464C86.1775 39.0495 86.0638 38.6007 86.0709 38.1456C86.0676 37.6921 86.1881 37.2463 86.4195 36.8563C86.6474 36.4655 86.9737 36.1412 87.3659 35.9157C87.7628 35.684 88.2148 35.5636 88.6743 35.567C89.2 35.5541 89.7128 35.7309 90.1188 36.0651C90.5323 36.4189 90.835 36.8846 90.9904 37.4061L86.8295 39.0134C86.9903 39.3671 87.2505 39.6665 87.5784 39.875C87.9063 40.0835 88.2877 40.1921 88.6763 40.1877C89.1984 40.1877 89.7025 39.997 90.0939 39.6513ZM87.6265 36.3391C87.3236 36.517 87.0742 36.7731 86.9042 37.0805C86.7282 37.3986 86.6384 37.7572 86.6437 38.1207C86.6418 38.2754 86.6585 38.4297 86.6935 38.5805L90.2797 37.1743C90.1324 36.8543 89.9055 36.5773 89.6207 36.3697C89.3336 36.1654 88.9884 36.0586 88.636 36.0651C88.2808 36.0627 87.9317 36.1574 87.6265 36.3391Z" fill="#1C2355"/>
<path d="M94.0287 35.954C94.389 35.7317 94.801 35.6069 95.2242 35.592L95.1992 36.1667C94.8484 36.163 94.5021 36.2466 94.1916 36.41C93.8918 36.5638 93.6395 36.7962 93.4617 37.0824C93.285 37.3641 93.1926 37.6905 93.1954 38.023V40.6015H92.6092V35.728H93.1207L93.1705 36.8774C93.3505 36.4857 93.6513 36.1621 94.0287 35.954Z" fill="#1C2355"/>
<path d="M97.454 35.728V40.5996H96.8793V35.728H97.454ZM97.3544 34.7816H96.931L98.0153 33.1264H98.6743L97.3544 34.7816Z" fill="#1C2355"/>
<path d="M104.416 35.728V40.5996H103.831V39.5651C103.615 39.9035 103.315 40.18 102.96 40.3678C102.572 40.5828 102.137 40.6968 101.694 40.6991C101.251 40.7015 100.815 40.5921 100.425 40.3812C100.049 40.1715 99.7385 39.861 99.5287 39.4847C99.3088 39.0677 99.1948 38.6031 99.1968 38.1317C99.1988 37.6603 99.3167 37.1967 99.5402 36.7816C99.7634 36.3998 100.092 36.0905 100.487 35.8908C100.91 35.6786 101.377 35.5714 101.851 35.5785C102.258 35.5804 102.656 35.6973 103 35.9157C103.352 36.1258 103.64 36.4269 103.835 36.7874L103.897 35.728H104.416ZM103.209 39.6897C103.396 39.525 103.547 39.3241 103.654 39.0992C103.761 38.8743 103.821 38.6301 103.831 38.3812V37.6839C103.733 37.2277 103.478 36.8207 103.109 36.5345C102.74 36.2327 102.277 36.07 101.801 36.0747C101.444 36.07 101.092 36.1578 100.78 36.3295C100.474 36.4977 100.222 36.7478 100.052 37.0517C99.8678 37.3802 99.7752 37.752 99.7835 38.1284C99.7801 38.4915 99.8748 38.8489 100.057 39.1628C100.235 39.4741 100.49 39.7336 100.799 39.9157C101.105 40.1021 101.456 40.1996 101.814 40.1973C102.327 40.2111 102.825 40.0296 103.209 39.6897Z" fill="#1C2355"/>
<path d="M24.0671 50L24.0172 49.9713L2.60536 37.3889V12.5L24.0613 0L24.1092 0.0268169L45.5211 12.5V37.3889L45.4751 37.4157L24.0671 50ZM2.80268 37.2797L24.0671 49.7778L45.3314 37.2797V12.6015L24.0671 0.212641L2.80268 12.6015V37.2797Z" fill="#1C2355"/>
<path d="M24.0671 37.4444L24.0172 37.4157L13.5517 31.2222V18.6686L13.5977 18.6398L24.0651 12.3333L24.1149 12.3621L34.9387 18.7222V31.0824L34.8908 31.1111L24.0671 37.4444ZM13.7433 31.1111L24.0671 37.2222L34.7471 30.9732V18.8333L24.0671 12.5556L13.7433 18.7759V31.1111Z" fill="#1C2355"/>
<path d="M24.046 15.6456L21.364 14.0575V10.8582L24.046 9.24329L26.7682 10.8314V14.0881L24.046 15.6456ZM21.5556 13.9483L24.046 15.4234L26.5747 13.9751V10.9406L24.046 9.46552L21.5556 10.9674V13.9483Z" fill="#1C2355"/>
<path d="M45.4119 15.6456L42.7318 14.0594V10.8602L43.3946 10.4598L43.4943 10.6226L42.9234 10.9674V13.9502L45.4617 15.454L45.4272 15.5134L45.4789 15.6092L45.4119 15.6456Z" fill="#1C2355"/>
<path d="M2.68199 15.6456L0 14.0575V10.8582L2.68199 9.24329L5.40421 10.8314V14.0881L2.68199 15.6456ZM0.191571 13.9483L2.68199 15.4234L5.21074 13.9751V10.9406L2.68199 9.46552L0.191571 10.9674V13.9483Z" fill="#1C2355"/>
<path d="M40.0613 43.5479L37.3793 41.9598V38.7605L40.0613 37.1456L42.7835 38.7337V41.9904L40.0613 43.5479ZM37.5709 41.8506L40.0613 43.3257L42.5901 41.8774V38.8467L40.0613 37.3716L37.5709 38.8736V41.8506Z" fill="#1C2355"/>
<path d="M24.1054 43.613L18.8448 40.5V34.3008H19.0364V40.3908L24.1073 43.3927L29.251 40.4444V34.2452H29.4425V40.5556L24.1054 43.613Z" fill="#1C2355"/>
<path d="M40.0421 46.8008L34.636 43.6015V37.1494L40.0421 33.8927L45.5268 37.092V43.6571L45.4789 43.6858L40.0421 46.8008ZM34.8276 43.4923L40.0441 46.5785L45.3353 43.5479V37.2011L40.0441 34.1149L34.8276 37.2567V43.4923Z" fill="#1C2355"/>
<path d="M19.0364 47.6724H18.8448V46.7778L24.1054 43.6111L29.4425 46.7241V46.7778L29.3429 46.7835L29.2989 46.8621L24.1073 43.8333L19.0364 46.887V47.6724Z" fill="#1C2355"/>
<path d="M13.6513 44.3659H13.4598V43.613L24.0402 37.2395H24.092L24.1169 37.251L34.8295 43.5V43.6226H34.6935L34.6839 43.6379L34.6552 43.6226H34.6379V43.6111L24.0671 37.4444L13.6513 43.7222V44.3659Z" fill="#1C2355"/>
<path d="M12.9061 44.0057L12.8103 43.8391L13.4598 43.4674V42.8276L13.5517 31.2222L2.65518 24.9732L2.75096 24.8084L13.7433 31.113V31.1686L13.6513 42.8276V43.5766L12.9061 44.0057Z" fill="#1C2355"/>
<path d="M45.3544 25.1111L34.7471 18.8333L34.7471 6.16858L35.4483 5.74713L35.5479 5.90996L34.9387 6.27778V18.7241L45.3563 24.8889L45.3851 24.8716L45.4808 25.0383L45.3544 25.1111Z" fill="#1C2355"/>
<path d="M2.70307 13.3257C3.12839 13.3257 3.47318 12.9809 3.47318 12.5556C3.47318 12.1302 3.12839 11.7854 2.70307 11.7854C2.27775 11.7854 1.93295 12.1302 1.93295 12.5556C1.93295 12.9809 2.27775 13.3257 2.70307 13.3257Z" fill="#1F2454"/>
<path d="M5.30843 14.864C5.73375 14.864 6.07855 14.5192 6.07855 14.0939C6.07855 13.6685 5.73375 13.3238 5.30843 13.3238C4.88311 13.3238 4.53832 13.6685 4.53832 14.0939C4.53832 14.5192 4.88311 14.864 5.30843 14.864Z" fill="#1F2454"/>
<path d="M21.4617 14.8372C21.887 14.8372 22.2318 14.4924 22.2318 14.067C22.2318 13.6417 21.887 13.2969 21.4617 13.2969C21.0364 13.2969 20.6916 13.6417 20.6916 14.067C20.6916 14.4924 21.0364 14.8372 21.4617 14.8372Z" fill="#1F2454"/>
<path d="M24.0671 10.1245C24.4924 10.1245 24.8372 9.77973 24.8372 9.35441C24.8372 8.92908 24.4924 8.58429 24.0671 8.58429C23.6417 8.58429 23.2969 8.92908 23.2969 9.35441C23.2969 9.77973 23.6417 10.1245 24.0671 10.1245Z" fill="#1F2454"/>
<path d="M34.8429 7.00383C35.2682 7.00383 35.613 6.65904 35.613 6.23372C35.613 5.80839 35.2682 5.4636 34.8429 5.4636C34.4176 5.4636 34.0728 5.80839 34.0728 6.23372C34.0728 6.65904 34.4176 7.00383 34.8429 7.00383Z" fill="#1F2454"/>
<path d="M42.8257 11.7663C43.251 11.7663 43.5958 11.4215 43.5958 10.9962C43.5958 10.5708 43.251 10.2261 42.8257 10.2261C42.4003 10.2261 42.0556 10.5708 42.0556 10.9962C42.0556 11.4215 42.4003 11.7663 42.8257 11.7663Z" fill="#1F2454"/>
<path d="M34.7318 31.8084C35.1571 31.8084 35.5019 31.4636 35.5019 31.0383C35.5019 30.613 35.1571 30.2682 34.7318 30.2682C34.3065 30.2682 33.9617 30.613 33.9617 31.0383C33.9617 31.4636 34.3065 31.8084 34.7318 31.8084Z" fill="#1F2454"/>
<path d="M42.6322 39.5307C43.0575 39.5307 43.4023 39.1859 43.4023 38.7605C43.4023 38.3352 43.0575 37.9904 42.6322 37.9904C42.2069 37.9904 41.8621 38.3352 41.8621 38.7605C41.8621 39.1859 42.2069 39.5307 42.6322 39.5307Z" fill="#1F2454"/>
<path d="M40.0268 43.9004C40.4521 43.9004 40.7969 43.5556 40.7969 43.1303C40.7969 42.7049 40.4521 42.3602 40.0268 42.3602C39.6015 42.3602 39.2567 42.7049 39.2567 43.1303C39.2567 43.5556 39.6015 43.9004 40.0268 43.9004Z" fill="#1F2454"/>
<path d="M24.1437 44.3678C24.569 44.3678 24.9138 44.023 24.9138 43.5977C24.9138 43.1724 24.569 42.8276 24.1437 42.8276C23.7184 42.8276 23.3736 43.1724 23.3736 43.5977C23.3736 44.023 23.7184 44.3678 24.1437 44.3678Z" fill="#1F2454"/>
<path d="M37.5326 42.3621C37.9579 42.3621 38.3027 42.0173 38.3027 41.592C38.3027 41.1666 37.9579 40.8218 37.5326 40.8218C37.1072 40.8218 36.7625 41.1666 36.7625 41.592C36.7625 42.0173 37.1072 42.3621 37.5326 42.3621Z" fill="#1F2454"/>
<path d="M37.5326 39.5307C37.9579 39.5307 38.3027 39.1859 38.3027 38.7605C38.3027 38.3352 37.9579 37.9904 37.5326 37.9904C37.1072 37.9904 36.7625 38.3352 36.7625 38.7605C36.7625 39.1859 37.1072 39.5307 37.5326 39.5307Z" fill="#1F2454"/>
<path d="M13.5556 44.3678C13.9809 44.3678 14.3257 44.023 14.3257 43.5977C14.3257 43.1724 13.9809 42.8276 13.5556 42.8276C13.1302 42.8276 12.7854 43.1724 12.7854 43.5977C12.7854 44.023 13.1302 44.3678 13.5556 44.3678Z" fill="#1F2454"/>
<path d="M19.0709 47.6839C19.4962 47.6839 19.841 47.3391 19.841 46.9138C19.841 46.4885 19.4962 46.1437 19.0709 46.1437C18.6456 46.1437 18.3008 46.4885 18.3008 46.9138C18.3008 47.3391 18.6456 47.6839 19.0709 47.6839Z" fill="#1F2454"/>
<path d="M2.70307 38.1054C3.12839 38.1054 3.47318 37.7606 3.47318 37.3352C3.47318 36.9099 3.12839 36.5651 2.70307 36.5651C2.27775 36.5651 1.93295 36.9099 1.93295 37.3352C1.93295 37.7606 2.27775 38.1054 2.70307 38.1054Z" fill="#1F2454"/>
<path d="M40.1399 9.40613H39.9483V46.6897H40.1399V9.40613Z" fill="#1C2355"/>
<path d="M29.3967 34.1649L29.3003 34.3305L45.3854 43.6885L45.4818 43.5229L29.3967 34.1649Z" fill="#1C2355"/>
<path d="M2.75369 12.4764L2.65965 12.6433L13.6049 18.8107L13.6989 18.6438L2.75369 12.4764Z" fill="#1C2355"/>
<path d="M24.1628 0.111111H23.9713V12.4464H24.1628V0.111111Z" fill="#1C2355"/>
</svg>
