<svg width="46" height="41" viewBox="0 0 46 41" fill="none" xmlns="http://www.w3.org/2000/svg">
<path d="M2.0085 40C0.75132 40 0.00195312 39.2496 0.00195312 37.9674C0.00195312 26.0027 0.00195312 14.0373 0.00195312 2.07126C0.00195312 0.800655 0.705675 0.061883 1.94764 0.00579834C2.07317 0.00579834 2.2006 0.00579834 2.32803 0.00579834C15.7773 0.00579834 29.2253 0.00579834 42.6721 0.00579834C43.3739 0.00579834 44.0624 0.0464106 44.5075 0.678814C44.7073 1.01493 44.8657 1.37477 44.9791 1.75023C45.0045 1.87756 45.0084 2.00837 44.9905 2.13702C44.9905 14.0541 44.9905 25.9704 44.9905 37.8862C44.9905 38.9769 44.5322 39.677 43.6269 39.9439C43.4126 39.9953 43.1925 40.0168 42.9726 40.0077L2.0085 40ZM43.0639 38.0448V1.98423H1.92102V38.0448H43.0639Z" fill="white"/>
<path d="M28.4265 7.41865C29.5239 9.09152 30.589 10.7064 31.637 12.3328C31.7258 12.491 31.7543 12.6769 31.7169 12.855C31.2699 14.7425 30.8058 16.6243 30.3342 18.5602C28.3809 17.6822 27.0495 16.253 26.5074 14.174C25.8227 11.5709 26.5093 9.32746 28.4265 7.41865Z" fill="white"/>
<path d="M39.2657 11.7352C39.8363 15.4233 36.5345 19.5059 32.1695 18.9992C32.1886 18.8754 32.2 18.7497 32.2304 18.6279C32.6488 16.9279 33.0616 15.228 33.499 13.5338C33.5233 13.4415 33.5673 13.3557 33.6277 13.2826C33.6882 13.2094 33.7637 13.1506 33.849 13.1103C35.6387 12.6384 37.436 12.1936 39.2657 11.7352Z" fill="white"/>
<path d="M38.8416 9.87091C37.4493 10.2306 36.0628 10.5942 34.6744 10.9423C34.1894 11.0642 33.6226 11.3465 33.2308 11.1937C32.839 11.0409 32.6602 10.4337 32.3806 10.0218C31.5894 8.82141 30.7995 7.61978 30.0108 6.41686C32.8771 4.80008 37.3675 6.07842 38.8416 9.87091Z" fill="white"/>
<path d="M7.45948 34.2736H5.65263V22.8942H7.45948V34.2736Z" fill="white"/>
<path d="M13.1539 5.73998H22.4601V7.61398H13.1539V5.73998Z" fill="white"/>
<path d="M13.1425 11.4045V9.54793H22.462V11.4045H13.1425Z" fill="white"/>
<path d="M22.4848 13.3791V15.2222H13.1501V13.3791H22.4848Z" fill="white"/>
<path d="M22.4848 17.1735V19.0185H13.1463V17.1735H22.4848Z" fill="white"/>
<path d="M13.1653 26.6924H14.9703V34.2619H13.1653V26.6924Z" fill="white"/>
<path d="M18.7266 34.2794H16.914V26.7021H18.7266V34.2794Z" fill="white"/>
<path d="M5.65263 5.74578H11.231V7.60431H5.65263V5.74578Z" fill="white"/>
<path d="M5.64692 11.4045V9.56341H11.2367V11.4045H5.64692Z" fill="white"/>
<path d="M5.64692 15.2202V13.381H11.2291V15.2202H5.64692Z" fill="white"/>
<path d="M5.65073 19.0204V17.1697H11.231V19.0204H5.65073Z" fill="white"/>
<path d="M33.7558 26.646V24.7836H39.338V26.646H33.7558Z" fill="white"/>
<path d="M33.7558 34.2658V32.4092H39.338V34.2736L33.7558 34.2658Z" fill="white"/>
<path d="M20.6361 34.2619V28.6129H22.4677V34.2619H20.6361Z" fill="white"/>
<path d="M33.7691 28.6013H39.3247V30.4424H33.7691V28.6013Z" fill="white"/>
<path d="M28.1203 26.648V24.7972H31.8329V26.648H28.1203Z" fill="white"/>
<path d="M9.40897 34.2716V30.5004H11.2367V34.2716H9.40897Z" fill="white"/>
<path d="M28.1203 34.2716V32.4092H31.8367V34.2658L28.1203 34.2716Z" fill="white"/>
<path d="M28.1317 30.4482V28.6206H31.8405V30.4482H28.1317Z" fill="white"/>
</svg>
