<svg width="19" height="20" viewBox="0 0 19 20" fill="none" xmlns="http://www.w3.org/2000/svg">
<path d="M6.3768 2.40116C6.3768 2.13465 6.3768 1.90476 6.3768 1.67614C6.39827 0.703548 7.05382 0.0252621 8.01884 0.0113679C9.11353 -0.00378931 10.2053 -0.00378931 11.2941 0.0113679C12.2326 0.0252621 12.9045 0.717443 12.9285 1.6534C12.9285 1.88329 12.9285 2.11443 12.9285 2.39484H13.2759C14.2106 2.39484 15.1453 2.37337 16.0787 2.40495C17.5313 2.45295 18.5064 3.70721 18.2134 5.1282C18.087 5.72186 17.7321 6.16142 17.2509 6.51762C17.1337 6.61187 17.0573 6.74753 17.0374 6.89655C16.709 10.3979 16.3945 13.8992 16.0736 17.4005C15.9322 18.9428 14.8207 19.9823 13.2708 19.9899C10.8474 20.0034 8.42261 20.0034 5.9966 19.9899C4.48088 19.9811 3.38071 19.0009 3.21777 17.4864C3.00557 15.4831 2.83884 13.4748 2.65443 11.4677C2.51801 9.98358 2.37781 8.49943 2.25402 7.01402C2.24741 6.89207 2.21231 6.77336 2.15155 6.66742C2.09079 6.56147 2.00606 6.47124 1.90414 6.40394C0.960602 5.68397 0.723141 4.53202 1.31427 3.51522C1.70331 2.84957 2.29571 2.44158 3.08262 2.41632C4.06784 2.38474 5.05559 2.40242 6.04207 2.39863L6.3768 2.40116ZM3.4565 6.89023C3.55629 8.06113 3.64975 9.19919 3.7508 10.336C3.95163 12.5932 4.17773 14.8478 4.34699 17.1075C4.41141 17.9664 5.00506 18.8392 6.16712 18.8127C7.95062 18.7735 9.73413 18.8038 11.5189 18.8026C12.158 18.8026 12.7997 18.8165 13.4376 18.7899C13.8036 18.7767 14.1522 18.6305 14.4182 18.3787C14.6842 18.1269 14.8493 17.7868 14.8825 17.422C14.9975 16.3054 15.0935 15.1876 15.1971 14.0697C15.3571 12.3351 15.517 10.6012 15.677 8.86825C15.7377 8.21523 15.7895 7.56094 15.8476 6.89023H3.4565ZM15.1933 5.67386C15.4977 5.67386 15.8033 5.68776 16.1065 5.66629C16.2724 5.66059 16.4345 5.61485 16.5789 5.53296C16.7234 5.45107 16.8458 5.33546 16.9359 5.196C17.026 5.05654 17.081 4.89736 17.0963 4.73203C17.1115 4.56671 17.0866 4.40015 17.0235 4.24656C16.805 3.70469 16.3528 3.57585 15.8223 3.57711C11.7096 3.57711 7.59653 3.57711 3.48302 3.57711C3.33621 3.57412 3.18945 3.58512 3.04473 3.60996C2.86631 3.64404 2.70004 3.7246 2.56274 3.84352C2.42543 3.96244 2.32195 4.11549 2.26274 4.28722C2.20354 4.45894 2.1907 4.64325 2.22555 4.82152C2.26039 4.99979 2.34167 5.16571 2.46117 5.30251C2.7138 5.59303 3.02831 5.6726 3.38955 5.6726L15.1933 5.67386ZM11.7172 2.38095C11.7172 2.11822 11.7286 1.88708 11.7172 1.65845C11.6995 1.39825 11.5719 1.21132 11.2878 1.21005C10.1931 1.20416 9.10173 1.20416 8.01378 1.21005C7.96063 1.20611 7.90724 1.21286 7.85674 1.22989C7.80624 1.24691 7.75967 1.27388 7.71976 1.3092C7.67985 1.34451 7.64741 1.38747 7.62437 1.43552C7.60133 1.48357 7.58814 1.53575 7.58559 1.58898C7.56159 1.84161 7.58559 2.10559 7.58559 2.38095H11.7172Z" fill="#1C2355"/>
<path d="M10.2545 12.4972C10.2545 13.4407 10.2545 14.3918 10.2545 15.329C10.2545 15.593 10.2432 15.8558 9.97411 16.0174C9.89302 16.0701 9.80012 16.1017 9.70375 16.1096C9.60739 16.1174 9.51059 16.1012 9.42204 16.0624C9.3335 16.0236 9.25599 15.9634 9.19648 15.8872C9.13696 15.811 9.09732 15.7212 9.0811 15.6259C9.06064 15.5006 9.05177 15.3738 9.05458 15.2469C9.05458 13.4003 9.05458 11.554 9.05458 9.70822C9.05458 9.13098 9.25035 8.84805 9.64823 8.84173C10.0461 8.83542 10.257 9.12467 10.257 9.72591L10.2545 12.4972Z" fill="#1C2355"/>
<path d="M6.373 12.4315C6.373 11.4665 6.373 10.5015 6.373 9.53644C6.373 9.1032 6.5991 8.84173 6.96666 8.83921C7.33423 8.83668 7.56916 9.10951 7.56916 9.53391C7.56916 11.506 7.56916 13.4782 7.56916 15.4503C7.56916 15.852 7.32791 16.1134 6.97298 16.1197C6.61804 16.1261 6.37806 15.8671 6.37553 15.4528C6.36795 14.4461 6.373 13.4382 6.373 12.4315Z" fill="#1C2355"/>
<path d="M12.9298 12.4946C12.9298 13.4807 12.9298 14.4668 12.9298 15.4528C12.9298 15.7408 12.8224 16.0035 12.5357 16.0604C12.327 16.0927 12.1138 16.0444 11.9395 15.9252C11.8132 15.833 11.75 15.5956 11.75 15.42C11.7361 13.4584 11.7374 11.4968 11.75 9.53518C11.75 9.10572 12.0027 8.8291 12.3601 8.84173C12.7176 8.85436 12.9348 9.1234 12.9361 9.56549C12.9323 10.5444 12.9298 11.5195 12.9298 12.4946Z" fill="#1C2355"/>
</svg>
