<svg width="31" height="40" viewBox="0 0 31 40" fill="none" xmlns="http://www.w3.org/2000/svg">
<path d="M28.7556 21.9726C28.7556 17.5043 28.7556 13.036 28.7556 8.56768C28.7556 7.11088 28.044 6.36966 26.6424 6.36375C25.9031 6.36375 25.1619 6.36375 24.4226 6.36375H22.82V6.12128C22.82 5.69153 22.82 5.27361 22.82 4.85766C22.82 3.88975 22.5598 3.62756 21.6372 3.62756C20.7836 3.62756 19.928 3.62756 19.035 3.62756C19.035 3.391 19.035 3.16627 19.035 2.9514C19.0666 2.6221 19.008 2.29042 18.8657 1.99181C18.7233 1.69321 18.5025 1.4389 18.2268 1.25607C15.7942 -0.433353 12.9042 -0.417583 10.4953 1.29746C10.2458 1.46918 10.0464 1.70396 9.91719 1.97788C9.78802 2.2518 9.73378 2.55506 9.75999 2.85677C9.77576 3.10516 9.77379 3.35946 9.76985 3.62756H9.21788C8.45695 3.62756 7.73939 3.62756 7.01592 3.62756C6.86972 3.61494 6.7225 3.63297 6.58366 3.68049C6.44483 3.72801 6.31745 3.80398 6.20965 3.90355C6.10784 4.01735 6.03102 4.15123 5.98416 4.29656C5.93731 4.44189 5.92145 4.59543 5.93761 4.74727C5.94943 5.2125 5.94943 5.6797 5.93761 6.1745C5.93761 6.23955 5.93761 6.30855 5.93761 6.37163H4.56754C3.73959 6.37163 2.91163 6.37163 2.08565 6.37163C1.13548 6.37163 0.00394263 6.7659 0 8.55585C0 18.3178 0 28.0811 0 37.8457C0 38.8313 0.356803 39.9925 2.05214 39.9984H26.6936C28.0735 39.9984 28.7595 39.2591 28.7595 37.8122V36.0222H27.0918V37.8181C27.1032 37.9613 27.0891 38.1055 27.0504 38.2439C26.9404 38.2822 26.8232 38.2957 26.7074 38.2833C25.357 38.2833 24.0047 38.2833 22.6583 38.2833H4.41378C3.62525 38.2833 2.83672 38.2833 2.0482 38.2833C1.96032 38.284 1.87257 38.2768 1.78601 38.2616C1.76411 38.2572 1.7429 38.25 1.72293 38.24C1.72293 38.24 1.67167 38.171 1.67167 37.8457V8.50263C1.66962 8.3969 1.67821 8.29123 1.6973 8.18722C1.70095 8.16145 1.70966 8.13666 1.72293 8.11428C1.7817 8.09076 1.84516 8.08131 1.90823 8.08668C2.94318 8.06894 3.9998 8.07288 5.01897 8.08668H5.93957V9.61642C5.93957 10.5587 6.19979 10.8327 7.09674 10.8327H19.8985C20.5135 10.8327 21.1522 10.8327 21.7752 10.8327C21.9168 10.8422 22.0588 10.8228 22.1927 10.7757C22.3265 10.7286 22.4494 10.6548 22.5538 10.5587C22.6533 10.4483 22.7287 10.3183 22.7752 10.1771C22.8217 10.0359 22.8383 9.8866 22.8239 9.73864C22.8141 9.27144 22.8239 8.80621 22.8239 8.3193V8.07485H23.2024C24.3615 8.07485 25.5581 8.07485 26.737 8.07485C26.8409 8.06783 26.9453 8.08054 27.0445 8.11231C27.0922 8.24407 27.1091 8.38501 27.0938 8.52431V21.9746L28.7556 21.9726ZM21.1404 9.06248H7.63491V5.31698H9.85461C11.2129 5.31698 11.4159 5.10013 11.4159 3.66502C11.4159 3.07362 11.4317 2.76412 11.5223 2.62219C11.613 2.48026 11.9166 2.33832 12.3818 2.13921C13.8958 1.48671 15.396 1.57739 16.9671 2.42111C17.32 2.60642 17.4264 2.78975 17.385 3.14262C17.3638 3.38054 17.3592 3.61964 17.3712 3.8582C17.3712 3.99817 17.3712 4.13222 17.3712 4.25247C17.3567 4.39466 17.3722 4.53831 17.4167 4.67414C17.4612 4.80997 17.5337 4.93495 17.6295 5.04099C17.7303 5.13586 17.8501 5.20842 17.9808 5.25393C18.1116 5.29945 18.2505 5.3169 18.3884 5.30515C19.0626 5.29332 19.7487 5.2953 20.413 5.30515H21.1365L21.1404 9.06248Z" fill="#E1B9DC"/>
<path d="M8.20265 34.2697H20.0444C20.0444 34.1987 20.0542 34.1278 20.0542 34.0568C20.0542 31.4902 20.0542 28.9228 20.0542 26.3549C20.0631 26.2912 20.0494 26.2264 20.0156 26.1716C19.9818 26.1169 19.9299 26.0758 19.8689 26.0552C19.0035 25.661 18.144 25.2667 17.2786 24.8724C17.172 24.8243 17.0565 24.7988 16.9395 24.7975C14.9432 24.7975 12.947 24.7975 10.9507 24.7975C10.848 24.7965 10.7461 24.8159 10.651 24.8547C9.88025 25.2017 9.1134 25.5565 8.34261 25.9015C8.29104 25.9183 8.24685 25.9524 8.21741 25.998C8.18798 26.0436 8.17512 26.0979 8.18097 26.1518C8.18097 28.8013 8.18097 31.4507 8.18097 34.1002C8.18886 34.1534 8.19674 34.2047 8.20265 34.2697Z" fill="#E1B9DC"/>
<path d="M13.9451 11.9702C12.7785 11.9693 11.6554 12.4126 10.804 13.2102C9.95264 14.0077 9.43695 15.0995 9.36178 16.2637C9.36368 16.3424 9.33628 16.419 9.2849 16.4786C8.68168 16.9458 8.60085 17.5648 8.78616 18.2409C8.84711 18.5147 8.98069 18.767 9.17287 18.9714C9.36505 19.1757 9.60872 19.3245 9.87827 19.402C9.94924 19.4237 10.0103 19.5282 10.0458 19.5992C10.4554 20.6052 11.0635 21.5184 11.8338 22.2841C12.3382 22.8062 13.0046 23.1418 13.7243 23.2363C14.5128 23.319 15.1949 23.0135 15.7942 22.5266C16.7247 21.7696 17.3377 20.776 17.8108 19.6898C17.8414 19.6067 17.8901 19.5315 17.9536 19.4697C18.0171 19.408 18.0936 19.3613 18.1775 19.333C18.8005 19.0925 19.0922 18.5721 19.1868 17.9531C19.2437 17.6858 19.2237 17.4079 19.1292 17.1514C19.0346 16.895 18.8694 16.6706 18.6526 16.5042C18.5985 16.4608 18.5637 16.3977 18.556 16.3288C18.4938 15.1493 17.9803 14.0389 17.122 13.2276C16.2637 12.4162 15.1262 11.966 13.9451 11.9702Z" fill="#E1B9DC"/>
<path d="M30.3307 28.2138C29.5579 28.5568 28.868 28.4484 28.2667 27.859C27.4388 28.6475 26.4137 28.5214 25.7553 27.859C25.5981 28.0314 25.407 28.1694 25.194 28.2644C24.9809 28.3594 24.7505 28.4093 24.5173 28.411C24.2812 28.4121 24.0475 28.3631 23.8318 28.2673C23.616 28.1714 23.423 28.0309 23.2655 27.855C23.0086 28.1372 22.6648 28.3253 22.2886 28.3896C21.9125 28.4539 21.5257 28.3907 21.1897 28.2099V34.2697H26.3486V30.7509H28.594V34.2697H30.3307V28.2138Z" fill="#E1B9DC"/>
<path d="M3.60751 34.2697H6.76162V26.6565C6.71754 26.668 6.67411 26.6818 6.63151 26.6979C6.02632 26.9739 5.41521 27.24 4.8179 27.5337C4.44882 27.701 4.13627 27.9719 3.91824 28.3134C3.70022 28.655 3.5861 29.0525 3.58977 29.4577C3.55429 31.0446 3.57597 32.6315 3.57597 34.2185C3.57991 34.2323 3.59174 34.2441 3.60751 34.2697Z" fill="#E1B9DC"/>
<path d="M27.837 23.802H26.1909C26.1909 23.871 26.1752 23.9282 26.1752 23.9854C26.1752 24.8902 26.1752 25.7931 26.1752 26.6979C26.1752 27.2006 26.3999 27.512 26.8001 27.5948C27.3914 27.719 27.8409 27.3701 27.8449 26.7708C27.8547 25.8167 27.8449 24.8606 27.8449 23.9045C27.8444 23.8702 27.8417 23.836 27.837 23.802Z" fill="#E1B9DC"/>
<path d="M25.3492 23.804H23.6735V24.3698C23.6735 25.1484 23.6735 25.9251 23.6735 26.7038C23.6735 27.2538 23.9318 27.5534 24.4384 27.6205C24.6354 27.6455 24.8347 27.5965 24.9976 27.4828C25.1604 27.3691 25.2752 27.199 25.3196 27.0054C25.334 26.9479 25.3426 26.8892 25.3452 26.83C25.3492 25.8305 25.3492 24.831 25.3492 23.804Z" fill="#E1B9DC"/>
<path d="M21.1759 23.804V24.3205C21.1759 25.1287 21.1759 25.937 21.1759 26.7432C21.1759 27.3701 21.6451 27.7289 22.2424 27.5909C22.3892 27.5619 22.5235 27.4885 22.6272 27.3806C22.7309 27.2727 22.7989 27.1355 22.8219 26.9877C22.84 26.9008 22.8492 26.8123 22.8495 26.7235C22.8495 25.8036 22.8495 24.8777 22.8495 23.9459C22.8473 23.8984 22.8427 23.851 22.8357 23.804H21.1759Z" fill="#E1B9DC"/>
<path d="M30.3405 23.802H28.6925C28.6925 23.873 28.6787 23.9321 28.6787 23.9893C28.6787 24.8941 28.6787 25.8009 28.6787 26.7058C28.6787 27.2518 28.9094 27.5318 29.3982 27.6106C29.5078 27.6335 29.6209 27.6325 29.73 27.6076C29.8391 27.5827 29.9415 27.5345 30.0302 27.4664C30.1189 27.3982 30.1919 27.3117 30.2441 27.2128C30.2963 27.1138 30.3265 27.0048 30.3327 26.893C30.3563 25.8699 30.3405 24.8468 30.3405 23.802Z" fill="#E1B9DC"/>
</svg>
