<svg width="32" height="40" viewBox="0 0 32 40" fill="none" xmlns="http://www.w3.org/2000/svg">
<path d="M0.0156223 19.9864C0.0156223 13.9613 0.0334728 7.91609 0 1.88206C0 0.585551 0.807806 -0.00133923 1.87894 0.000892288C7.79247 0.0217198 13.7067 0.0217198 19.6218 0.000892288C19.9386 -0.00807092 20.2538 0.0505802 20.5462 0.17294C20.8386 0.2953 21.1016 0.47856 21.3177 0.710516C24.4582 3.88523 27.6084 7.05175 30.7682 10.2101C31.0029 10.4333 31.188 10.7035 31.3114 11.003C31.4349 11.3025 31.4938 11.6246 31.4845 11.9485C31.4726 20.6439 31.4726 29.3409 31.4845 38.0394C31.4845 39.4497 30.94 39.9964 29.5275 39.9964H1.9258C0.859136 39.9964 0.247705 39.6081 0.0624891 38.7914C0.0222599 38.5707 0.00728401 38.3461 0.017856 38.1219C0.0163683 32.0835 0.0156223 26.0383 0.0156223 19.9864ZM2.4279 2.17885V37.7448H29.0299V14.0907H28.4943C25.3702 14.0907 22.2237 14.0595 19.0884 14.1086C17.9481 14.1242 17.1091 13.3922 17.1247 12.1471C17.1693 9.00954 17.1403 5.87425 17.1403 2.73673V2.18332L2.4279 2.17885ZM19.624 11.79H27.8806L19.624 3.61149V11.79Z" fill="#1C2355"/>
<path d="M11.1621 29.93C11.4165 28.9348 11.6374 27.8882 11.9587 26.8729C12.135 26.3083 12.0078 25.9803 11.5615 25.6232C10.8081 25.0509 10.0898 24.4339 9.41032 23.7755C9.15147 23.5167 8.93279 23.0235 8.99973 22.6999C9.05106 22.45 9.56207 22.171 9.89234 22.1264C10.8898 21.9948 11.9007 22.0148 12.9027 21.8765C13.0783 21.8364 13.2436 21.7603 13.3884 21.6532C13.5332 21.546 13.6543 21.4101 13.7439 21.2539C14.1903 20.3613 14.5161 19.395 14.9557 18.4935C15.0962 18.2056 15.4711 17.824 15.701 17.8419C15.8818 17.8861 16.051 17.9688 16.1969 18.0843C16.3429 18.1999 16.4622 18.3455 16.5467 18.5114C16.9765 19.3869 17.3543 20.287 17.6781 21.207C17.735 21.426 17.8668 21.618 18.0507 21.7498C18.2346 21.8815 18.4589 21.9445 18.6845 21.9278C19.6597 21.9635 20.6393 22.0215 21.6056 22.151C21.918 22.1911 22.3956 22.4277 22.4491 22.6531C22.4695 22.8378 22.4498 23.0248 22.3913 23.2012C22.3327 23.3776 22.2367 23.5392 22.1099 23.6751C21.4482 24.3528 20.7275 24.9704 19.9565 25.5206C19.325 25.9669 19.3049 26.431 19.5102 27.0715C19.7678 27.8532 19.9677 28.6527 20.1082 29.4637C20.1685 29.8542 20.0881 30.4187 19.836 30.6553C19.653 30.8271 19.0304 30.6932 18.7001 30.5169C17.8947 30.0805 17.1181 29.5931 16.3749 29.0575C15.9152 28.7317 15.5492 28.7049 15.0717 29.0352C14.246 29.6109 13.3869 30.151 12.5188 30.6531C11.8003 31.0614 11.1576 30.7245 11.1621 29.93Z" fill="#1C2355"/>
</svg>
