<svg width="32" height="40" viewBox="0 0 32 40" fill="none" xmlns="http://www.w3.org/2000/svg">
<path d="M0.0156223 19.9864C0.0156223 13.9613 0.0334728 7.91609 0 1.88206C0 0.585551 0.805586 -0.00133923 1.87672 0.000892288C7.79173 0.0217198 13.7067 0.0217198 19.6218 0.000892288C19.9386 -0.00807092 20.2538 0.0505802 20.5462 0.17294C20.8386 0.2953 21.1017 0.47856 21.3177 0.710516C24.4582 3.88523 27.6076 7.05175 30.766 10.2101C31.002 10.4334 31.1881 10.7041 31.3119 11.0045C31.4358 11.3049 31.4946 11.6281 31.4845 11.9529C31.4711 20.6484 31.4711 29.3454 31.4845 38.0439C31.4845 39.4542 30.9378 40.0009 29.5252 40.0009H1.9258C0.856905 40.0009 0.245474 39.6126 0.0624891 38.7959C0.0222599 38.5751 0.00728401 38.3505 0.017856 38.1264C0.0148806 32.0849 0.0141346 26.0383 0.0156223 19.9864ZM2.42566 2.17885V37.7448H29.0276V14.0907H28.4943C25.3702 14.0907 22.2215 14.0595 19.0862 14.1086C17.9481 14.1242 17.1068 13.3922 17.1247 12.1471C17.1693 9.00954 17.1381 5.87425 17.1381 2.73673V2.18332L2.42566 2.17885ZM19.624 11.7878H27.8806L19.624 3.60926V11.7878Z" fill="#CCCCCC"/>
<path d="M15.3439 31.5635L9.4081 26.2703C9.25498 26.1338 9.13025 25.9684 9.04105 25.7836C8.95185 25.5989 8.89991 25.3984 8.8882 25.1935C8.8765 24.9887 8.90524 24.7836 8.97281 24.5898C9.04038 24.3961 9.14545 24.2176 9.28201 24.0645C9.41858 23.9114 9.58396 23.7867 9.76872 23.6975C9.95348 23.6082 10.154 23.5563 10.3588 23.5446C10.5637 23.5329 10.7688 23.5616 10.9625 23.6292C11.1562 23.6968 11.3348 23.8019 11.4879 23.9384L14.7727 26.8684L20.4586 18.5649C20.5733 18.3929 20.721 18.2454 20.8932 18.1309C21.0653 18.0165 21.2585 17.9373 21.4615 17.898C21.6645 17.8588 21.8732 17.8602 22.0757 17.9022C22.2781 17.9443 22.4701 18.0261 22.6407 18.1429C22.8113 18.2597 22.957 18.4092 23.0693 18.5828C23.1817 18.7563 23.2585 18.9504 23.2953 19.1539C23.332 19.3573 23.328 19.5661 23.2835 19.768C23.239 19.9699 23.1549 20.1609 23.036 20.33L15.3439 31.5635Z" fill="#CCCCCC"/>
</svg>
