<svg width="32" height="40" viewBox="0 0 32 40" fill="none" xmlns="http://www.w3.org/2000/svg">
<path d="M0.0156155 19.9864C0.0156155 13.9613 0.0334728 7.91609 0 1.88206C0 0.585551 0.80558 -0.00133923 1.87671 0.000892288C7.79173 0.0217198 13.7067 0.0217198 19.6218 0.000892288C19.9386 -0.00807092 20.2538 0.0505802 20.5462 0.17294C20.8386 0.2953 21.1016 0.47856 21.3177 0.710516C24.4567 3.88523 27.6069 7.05175 30.7682 10.2101C31.0029 10.4333 31.188 10.7035 31.3114 11.003C31.4349 11.3025 31.4938 11.6246 31.4845 11.9485C31.4711 20.6439 31.4711 29.3409 31.4845 38.0394C31.4845 39.4497 30.9378 39.9964 29.5275 39.9964H1.9258C0.859136 39.9964 0.245467 39.6081 0.0624823 38.7914C0.0222531 38.5707 0.0072772 38.3461 0.0178492 38.1219C0.0163615 32.0835 0.0156155 26.0383 0.0156155 19.9864ZM2.4279 2.17885V37.7448H29.0298V14.0907H28.4943C25.359 14.0907 22.2215 14.0595 19.0862 14.1086C17.9481 14.1242 17.1068 13.3922 17.1247 12.1471C17.1693 9.00954 17.1403 5.87425 17.1403 2.73673V2.18332L2.4279 2.17885ZM19.6285 11.79H27.8851L19.6285 3.61149V11.79Z" fill="#EF467B"/>
<path d="M20.2377 26.7591C20.2377 28.5443 18.988 29.9278 17.0354 30.3295V32.3178H15.0271V30.4701C13.8957 30.4009 12.7487 30.0706 12.0569 29.6087L11.9208 29.5172L12.5568 27.3035L12.8067 27.4486C13.6704 27.9588 14.6532 28.2328 15.6563 28.243C16.7409 28.243 17.4416 27.7432 17.4416 26.9688C17.4416 26.2547 16.8859 25.7616 15.5225 25.2639C13.8287 24.6503 12.0971 23.7443 12.0971 21.6623C12.0971 19.9485 13.2597 18.6586 15.1476 18.2547V16.3579H17.1559V18.1298C18.0225 18.1665 18.8716 18.3847 19.6485 18.7702L19.8159 18.855L19.1821 21.0218L18.8407 20.8656C18.1049 20.4892 17.2906 20.2919 16.4642 20.2899C15.4756 20.2899 14.8865 20.7027 14.8865 21.3945C14.8865 21.9992 15.3886 22.3853 17.0399 23.0436C19.2759 23.8871 20.2377 24.9984 20.2377 26.7591Z" fill="#EF467B"/>
</svg>
