<svg width="32" height="41" viewBox="0 0 32 41" fill="none" xmlns="http://www.w3.org/2000/svg">
<path d="M29.7537 21.9861C29.7537 17.5177 29.7537 13.0494 29.7537 8.58111C29.7537 7.1243 29.042 6.38309 27.6404 6.37718C26.9012 6.37718 26.1599 6.37718 25.4207 6.37718H23.818V6.13471C23.818 5.70496 23.818 5.28704 23.818 4.87109C23.818 3.90317 23.5578 3.64099 22.6352 3.64099C21.7816 3.64099 20.9261 3.64099 20.0331 3.64099C20.0331 3.40443 20.0331 3.1797 20.0331 2.96483C20.0646 2.63553 20.0061 2.30385 19.8637 2.00524C19.7214 1.70663 19.5005 1.45232 19.2248 1.26949C16.7922 -0.419926 13.9023 -0.404155 11.4933 1.31089C11.2439 1.48261 11.0444 1.71739 10.9152 1.99131C10.7861 2.26523 10.7318 2.56849 10.758 2.8702C10.7738 3.11859 10.7718 3.37289 10.7679 3.64099H10.2159C9.455 3.64099 8.73744 3.64099 8.01396 3.64099C7.86777 3.62837 7.72054 3.6464 7.58171 3.69392C7.44288 3.74144 7.31549 3.81741 7.2077 3.91697C7.10589 4.03078 7.02907 4.16466 6.98221 4.30999C6.93535 4.45532 6.9195 4.60886 6.93565 4.7607C6.94748 5.22593 6.94748 5.69313 6.93565 6.18793C6.93565 6.25298 6.93565 6.32198 6.93565 6.38506H5.56559C4.73763 6.38506 3.90968 6.38506 3.0837 6.38506C2.13352 6.38506 1.00199 6.77932 0.998047 8.56928C0.998047 18.3312 0.998047 28.0945 0.998047 37.8591C0.998047 38.8448 1.35485 40.0059 3.05018 40.0118H27.6917C29.0716 40.0118 29.7576 39.2725 29.7576 37.8256V36.0356H28.0899V37.8315C28.1012 37.9748 28.0872 38.1189 28.0485 38.2573C27.9384 38.2956 27.8213 38.3091 27.7055 38.2967C26.3551 38.2967 25.0028 38.2967 23.6564 38.2967H5.41182C4.6233 38.2967 3.83477 38.2967 3.04624 38.2967C2.95837 38.2975 2.87062 38.2902 2.78406 38.2751C2.76216 38.2707 2.74094 38.2634 2.72098 38.2534C2.72098 38.2534 2.66972 38.1844 2.66972 37.8591V8.51605C2.66767 8.41032 2.67625 8.30466 2.69535 8.20065C2.69899 8.17488 2.7077 8.15009 2.72098 8.12771C2.77975 8.10419 2.84321 8.09474 2.90628 8.10011C3.94122 8.08236 4.99785 8.08631 6.01702 8.10011H6.93762V9.62985C6.93762 10.5721 7.19784 10.8462 8.09479 10.8462H20.8965C21.5116 10.8462 22.1503 10.8462 22.7732 10.8462C22.9148 10.8556 23.0568 10.8362 23.1907 10.7891C23.3246 10.742 23.4474 10.6682 23.5519 10.5721C23.6514 10.4617 23.7268 10.3317 23.7733 10.1905C23.8198 10.0494 23.8364 9.90002 23.822 9.75207C23.8121 9.28487 23.822 8.81964 23.822 8.33272V8.08828H24.2004C25.3596 8.08828 26.5562 8.08828 27.735 8.08828C27.839 8.08126 27.9433 8.09397 28.0426 8.12573C28.0903 8.2575 28.1071 8.39844 28.0918 8.53774V21.988L29.7537 21.9861ZM22.1385 9.07591H8.63296V5.33041H10.8527C12.2109 5.33041 12.4139 5.11356 12.4139 3.67844C12.4139 3.08705 12.4297 2.77755 12.5204 2.63562C12.6111 2.49368 12.9147 2.35175 13.3799 2.15264C14.8939 1.50014 16.394 1.59082 17.9652 2.43454C18.318 2.61985 18.4245 2.80318 18.3831 3.15605C18.3619 3.39397 18.3573 3.63307 18.3693 3.87163C18.3693 4.01159 18.3693 4.14564 18.3693 4.26589C18.3548 4.40808 18.3702 4.55174 18.4147 4.68757C18.4592 4.8234 18.5317 4.94838 18.6275 5.05442C18.7284 5.14929 18.8481 5.22185 18.9789 5.26736C19.1096 5.31287 19.2485 5.33033 19.3865 5.31858C20.0607 5.30675 20.7467 5.30872 21.411 5.31858H22.1345L22.1385 9.07591Z" fill="#1C2355"/>
<path d="M9.2007 34.2831H21.0424C21.0424 34.2122 21.0523 34.1412 21.0523 34.0702C21.0523 31.5036 21.0523 28.9363 21.0523 26.3683C21.0611 26.3046 21.0475 26.2398 21.0136 26.1851C20.9798 26.1304 20.9279 26.0892 20.867 26.0687C20.0015 25.6744 19.1421 25.2801 18.2766 24.8859C18.17 24.8378 18.0546 24.8123 17.9376 24.811C15.9413 24.811 13.945 24.811 11.9487 24.811C11.846 24.8099 11.7442 24.8294 11.6491 24.8681C10.8783 25.2151 10.1114 25.5699 9.34066 25.9149C9.28909 25.9318 9.24489 25.9658 9.21546 26.0114C9.18603 26.057 9.17316 26.1113 9.17902 26.1653C9.17902 28.8147 9.17902 31.4642 9.17902 34.1136C9.1869 34.1668 9.19479 34.2181 9.2007 34.2831Z" fill="#1C2355"/>
<path d="M14.9431 11.9836C13.7766 11.9827 12.6534 12.4261 11.8021 13.2236C10.9507 14.0211 10.435 15.113 10.3598 16.2771C10.3617 16.3558 10.3343 16.4324 10.2829 16.492C9.67972 16.9592 9.5989 17.5782 9.7842 18.2544C9.84515 18.5282 9.97874 18.7805 10.1709 18.9848C10.3631 19.1891 10.6068 19.3379 10.8763 19.4155C10.9473 19.4372 11.0084 19.5416 11.0439 19.6126C11.4534 20.6186 12.0615 21.5318 12.8319 22.2975C13.3362 22.8196 14.0026 23.1552 14.7224 23.2497C15.5109 23.3325 16.193 23.0269 16.7922 22.54C17.7227 21.783 18.3358 20.7895 18.8089 19.7033C18.8394 19.6201 18.8882 19.5449 18.9516 19.4832C19.0151 19.4214 19.0916 19.3747 19.1756 19.3465C19.7985 19.106 20.0903 18.5855 20.1849 17.9665C20.2418 17.6992 20.2218 17.4213 20.1272 17.1649C20.0327 16.9084 19.8674 16.684 19.6507 16.5176C19.5965 16.4742 19.5618 16.4111 19.5541 16.3422C19.4918 15.1627 18.9784 14.0523 18.1201 13.241C17.2617 12.4296 16.1242 11.9794 14.9431 11.9836Z" fill="#1C2355"/>
<path d="M31.3287 28.2273C30.556 28.5703 29.866 28.4618 29.2648 27.8724C28.4368 28.6609 27.4117 28.5348 26.7533 27.8724C26.5962 28.0448 26.4051 28.1828 26.192 28.2778C25.979 28.3728 25.7486 28.4227 25.5153 28.4244C25.2792 28.4255 25.0456 28.3765 24.8298 28.2807C24.614 28.1849 24.421 28.0444 24.2635 27.8685C24.0066 28.1506 23.6628 28.3388 23.2867 28.4031C22.9106 28.4673 22.5238 28.4041 22.1877 28.2233V34.2831H27.3467V30.7643H29.592V34.2831H31.3287V28.2273Z" fill="#1C2355"/>
<path d="M4.60556 34.2831H7.75966V26.6699C7.71559 26.6814 7.67216 26.6952 7.62956 26.7113C7.02436 26.9873 6.41326 27.2534 5.81595 27.5471C5.44686 27.7144 5.13431 27.9853 4.91629 28.3269C4.69826 28.6684 4.58415 29.066 4.58782 29.4712C4.55233 31.0581 4.57401 32.645 4.57401 34.2319C4.57796 34.2457 4.58979 34.2575 4.60556 34.2831Z" fill="#1C2355"/>
<path d="M28.835 23.8154H27.189C27.189 23.8844 27.1732 23.9416 27.1732 23.9988C27.1732 24.9036 27.1732 25.8065 27.1732 26.7113C27.1732 27.214 27.3979 27.5255 27.7981 27.6083C28.3895 27.7325 28.839 27.3835 28.8429 26.7843C28.8528 25.8301 28.8429 24.874 28.8429 23.918C28.8424 23.8837 28.8398 23.8494 28.835 23.8154Z" fill="#1C2355"/>
<path d="M26.3472 23.8174H24.6716V24.3832C24.6716 25.1619 24.6716 25.9386 24.6716 26.7172C24.6716 27.2672 24.9298 27.5669 25.4365 27.6339C25.6335 27.659 25.8328 27.6099 25.9956 27.4962C26.1585 27.3826 26.2733 27.2124 26.3176 27.0188C26.3321 26.9614 26.3407 26.9026 26.3433 26.8434C26.3472 25.8439 26.3472 24.8445 26.3472 23.8174Z" fill="#1C2355"/>
<path d="M22.1739 23.8174V24.3339C22.1739 25.1421 22.1739 25.9504 22.1739 26.7567C22.1739 27.3835 22.6431 27.7423 23.2404 27.6043C23.3872 27.5754 23.5216 27.502 23.6253 27.3941C23.729 27.2861 23.7969 27.149 23.82 27.0011C23.838 26.9142 23.8473 26.8257 23.8476 26.7369C23.8476 25.817 23.8476 24.8911 23.8476 23.9594C23.8454 23.9118 23.8408 23.8645 23.8338 23.8174H22.1739Z" fill="#1C2355"/>
<path d="M31.3386 23.8154H29.6906C29.6906 23.8864 29.6768 23.9456 29.6768 24.0027C29.6768 24.9076 29.6768 25.8144 29.6768 26.7192C29.6768 27.2653 29.9074 27.5452 30.3963 27.624C30.5058 27.6469 30.619 27.6459 30.728 27.621C30.8371 27.5961 30.9395 27.5479 31.0282 27.4798C31.117 27.4116 31.1899 27.3251 31.2421 27.2262C31.2943 27.1272 31.3246 27.0182 31.3307 26.9065C31.3544 25.8834 31.3386 24.8602 31.3386 23.8154Z" fill="#1C2355"/>
</svg>
