<svg width="29" height="40" viewBox="0 0 29 40" fill="none" xmlns="http://www.w3.org/2000/svg">
<path d="M28.7655 8.56768C28.7655 7.11088 28.0558 6.36966 26.6522 6.36375C25.9136 6.36375 25.1737 6.36375 24.4325 6.36375H22.8318V4.85766C22.8318 3.88975 22.5696 3.62756 21.649 3.62756C20.7935 3.62756 19.9399 3.62756 19.0449 3.62756C19.0449 3.391 19.0449 3.16627 19.0449 2.9514C19.0773 2.62222 19.0193 2.29043 18.8773 1.99172C18.7352 1.69301 18.5144 1.43867 18.2386 1.25607C15.806 -0.433353 12.9161 -0.417583 10.5071 1.29746C10.2577 1.46918 10.0582 1.70396 9.92902 1.97788C9.79985 2.2518 9.74563 2.55506 9.77183 2.85677C9.7876 3.10516 9.78366 3.35946 9.77183 3.62756H9.21788C8.45695 3.62756 7.7394 3.62756 7.01592 3.62756C6.86974 3.61518 6.72259 3.63333 6.5838 3.68084C6.445 3.72835 6.31758 3.80418 6.20965 3.90354C6.10815 4.01755 6.03154 4.15146 5.9847 4.29673C5.93786 4.44201 5.92182 4.59545 5.93761 4.74727C5.95141 5.2125 5.94943 5.6797 5.93761 6.1745V6.37163H4.56755C3.7396 6.37163 2.91164 6.37163 2.08368 6.37163C1.13548 6.37163 0.00197132 6.7659 0 8.55585C0 18.3178 0 28.0811 0 37.8457C0 38.8313 0.356815 39.9925 2.05215 39.9984H26.6916C28.0716 39.9984 28.7576 39.2591 28.7576 37.8122V20.1492C28.7668 16.2933 28.7694 12.4328 28.7655 8.56768ZM7.64675 5.32881H9.86448C11.2227 5.32881 11.4277 5.11196 11.4277 3.67684C11.4277 3.08545 11.4415 2.77595 11.5342 2.63402C11.6268 2.49208 11.9284 2.35015 12.3937 2.15104C13.9076 1.49854 15.4078 1.58922 16.979 2.43294C17.3318 2.61825 17.4363 2.80158 17.3949 3.15444C17.3737 3.39236 17.3691 3.63147 17.3811 3.87003C17.3811 4.00999 17.3811 4.14404 17.3811 4.26429C17.3669 4.40646 17.3826 4.55002 17.4271 4.6858C17.4715 4.82157 17.5438 4.94658 17.6393 5.05282C17.7402 5.14769 17.8599 5.22025 17.9907 5.26576C18.1214 5.31127 18.2604 5.32873 18.3983 5.31698C19.0725 5.30515 19.7585 5.30712 20.4228 5.31698H21.1483V9.06248H7.6428L7.64675 5.32881ZM27.0997 37.824C27.111 37.9673 27.097 38.1114 27.0583 38.2498C26.9477 38.2884 26.8298 38.3019 26.7133 38.2892C25.3649 38.2892 24.0106 38.2892 22.6642 38.2892H4.41576C3.62723 38.2892 2.8387 38.2892 2.05017 38.2892C1.96231 38.2899 1.87456 38.2826 1.78799 38.2675C1.76609 38.2632 1.74487 38.2559 1.7249 38.2459C1.7249 38.2459 1.67562 38.1769 1.67562 37.8516C1.67562 28.0699 1.67562 18.2889 1.67562 8.50854C1.67259 8.40278 1.68118 8.29701 1.70125 8.19313C1.70515 8.1677 1.71314 8.14307 1.7249 8.12019C1.78368 8.09668 1.84713 8.08722 1.91021 8.09259C2.94515 8.07485 4.00178 8.07879 5.02095 8.09259H5.94155C5.94155 8.59725 5.94155 9.10979 5.94155 9.62234C5.94155 10.5646 6.19979 10.8386 7.09674 10.8386H19.8985C20.5155 10.8386 21.1522 10.8386 21.7771 10.8386C21.9184 10.8481 22.0601 10.8287 22.1937 10.7816C22.3272 10.7344 22.4498 10.6606 22.5538 10.5646C22.6533 10.4542 22.7287 10.3242 22.7752 10.183C22.8217 10.0418 22.8383 9.89251 22.8239 9.74456C22.8239 9.27736 22.8239 8.81213 22.8239 8.32521V8.08076H23.2004C24.3596 8.08076 25.566 8.08076 26.737 8.08076C26.8403 8.07346 26.944 8.08618 27.0425 8.11822C27.0919 8.24959 27.1095 8.39077 27.0938 8.53022L27.0997 37.824Z" fill="#F72E94"/>
<path d="M10.3652 28.2671C10.5899 27.3878 10.7851 26.4633 11.0689 25.5664C11.2247 25.0676 11.1123 24.7778 10.718 24.4624C10.0525 23.9569 9.4179 23.4118 8.81769 22.8302C8.58902 22.6015 8.39584 22.1658 8.45498 21.88C8.50032 21.6592 8.95175 21.4128 9.2435 21.3734C10.1247 21.2571 11.0177 21.2748 11.9028 21.1526C12.0583 21.1173 12.2047 21.0501 12.3327 20.955C12.4606 20.86 12.5674 20.7393 12.646 20.6006C13.0403 19.8121 13.3281 18.9605 13.7164 18.1621C13.8406 17.9098 14.1718 17.5707 14.3748 17.5884C14.5346 17.6275 14.684 17.7005 14.813 17.8026C14.9419 17.9046 15.0473 18.0333 15.122 18.1798C15.5016 18.9533 15.8353 19.7484 16.1214 20.5612C16.2851 21.0126 16.5453 21.1782 17.0105 21.1959C17.872 21.2295 18.7374 21.2807 19.5909 21.3931C19.8689 21.4305 20.2888 21.6375 20.3361 21.8386C20.3542 22.0018 20.3367 22.167 20.285 22.3228C20.2333 22.4786 20.1485 22.6214 20.0365 22.7415C19.4519 23.3401 18.8153 23.8857 18.1341 24.3717C17.5763 24.766 17.5585 25.176 17.7399 25.7418C17.9675 26.4323 18.1441 27.1387 18.2682 27.855C18.3214 28.2 18.2505 28.6988 18.0277 28.9077C17.8661 29.0595 17.316 28.9412 17.0243 28.7855C16.3135 28.3988 15.6275 27.9683 14.9702 27.4963C14.5641 27.2085 14.2408 27.1828 13.8189 27.4766C13.0895 27.9852 12.3306 28.4622 11.5637 28.9058C10.9211 29.2665 10.3613 28.9669 10.3652 28.2671Z" fill="#F72E94"/>
</svg>
