<svg width="30" height="41" viewBox="0 0 30 41" fill="none" xmlns="http://www.w3.org/2000/svg">
<path d="M29.7518 8.57525C29.7518 7.11845 29.0421 6.37723 27.6386 6.37132C26.9 6.37132 26.1601 6.37132 25.4188 6.37132H23.8181V4.86523C23.8181 3.89731 23.556 3.63513 22.6353 3.63513C21.7798 3.63513 20.9262 3.63513 20.0312 3.63513C20.0312 3.39857 20.0312 3.17384 20.0312 2.95897C20.0636 2.62979 20.0057 2.298 19.8636 1.99929C19.7216 1.70058 19.5008 1.44624 19.225 1.26363C16.7924 -0.425785 13.9024 -0.410015 11.4935 1.30503C11.244 1.47675 11.0445 1.71153 10.9153 1.98545C10.7862 2.25937 10.732 2.56263 10.7582 2.86434C10.7739 3.11273 10.77 3.36703 10.7582 3.63513H10.2042C9.44328 3.63513 8.72573 3.63513 8.00225 3.63513C7.85607 3.62275 7.70892 3.6409 7.57012 3.68841C7.43133 3.73592 7.30391 3.81175 7.19598 3.91111C7.09448 4.02511 7.01787 4.15903 6.97103 4.3043C6.92419 4.44957 6.90814 4.60302 6.92393 4.75484C6.93773 5.22007 6.93576 5.68727 6.92393 6.18207V6.3792H5.55388C4.72593 6.3792 3.89796 6.3792 3.07001 6.3792C2.12181 6.3792 0.988299 6.77347 0.986328 8.56342C0.986328 18.3254 0.986328 28.0887 0.986328 37.8532C0.986328 38.8389 1.34314 40 3.03848 40.0059H27.678C29.0579 40.0059 29.7439 39.2667 29.7439 37.8197V20.1567C29.7531 16.3008 29.7557 12.4403 29.7518 8.57525ZM8.63308 5.33638H10.8508C12.209 5.33638 12.414 5.11953 12.414 3.68441C12.414 3.09302 12.4279 2.78352 12.5205 2.64159C12.6132 2.49965 12.9148 2.35771 13.38 2.15861C14.894 1.5061 16.3941 1.59679 17.9653 2.44051C18.3181 2.62581 18.4226 2.80915 18.3812 3.16201C18.36 3.39993 18.3554 3.63904 18.3674 3.8776C18.3674 4.01756 18.3674 4.15161 18.3674 4.27186C18.3533 4.41403 18.3689 4.55759 18.4134 4.69337C18.4578 4.82914 18.5301 4.95415 18.6257 5.06039C18.7265 5.15526 18.8462 5.22781 18.977 5.27333C19.1078 5.31884 19.2467 5.3363 19.3846 5.32455C20.0588 5.31272 20.7448 5.31469 21.4092 5.32455H22.1346V9.07005H8.62913L8.63308 5.33638ZM28.086 37.8316C28.0974 37.9748 28.0834 38.119 28.0446 38.2574C27.934 38.296 27.8161 38.3094 27.6996 38.2968C26.3513 38.2968 24.997 38.2968 23.6506 38.2968H5.40208C4.61356 38.2968 3.82503 38.2968 3.0365 38.2968C2.94864 38.2974 2.86088 38.2902 2.77431 38.2751C2.75241 38.2707 2.7312 38.2634 2.71123 38.2534C2.71123 38.2534 2.66195 38.1844 2.66195 37.8592C2.66195 28.0775 2.66195 18.2965 2.66195 8.51611C2.65892 8.41035 2.66751 8.30458 2.68758 8.2007C2.69148 8.17527 2.69946 8.15064 2.71123 8.12776C2.77 8.10425 2.83346 8.09479 2.89654 8.10016C3.93148 8.08242 4.98811 8.08636 6.00728 8.10016H6.92788C6.92788 8.60482 6.92788 9.11736 6.92788 9.6299C6.92788 10.5722 7.18612 10.8462 8.08307 10.8462H20.8848C21.5018 10.8462 22.1386 10.8462 22.7635 10.8462C22.9047 10.8557 23.0465 10.8362 23.18 10.7891C23.3135 10.742 23.4361 10.6682 23.5402 10.5722C23.6397 10.4617 23.7151 10.3318 23.7616 10.1906C23.8081 10.0494 23.8246 9.90008 23.8102 9.75213C23.8102 9.28492 23.8102 8.81969 23.8102 8.33278V8.08833H24.1868C25.3459 8.08833 26.5523 8.08833 27.7233 8.08833C27.8266 8.08103 27.9304 8.09375 28.0289 8.12579C28.0782 8.25715 28.0958 8.39834 28.0801 8.53779L28.086 37.8316Z" fill="#CCCCCC"/>
<path d="M11.3515 28.2746C11.5763 27.3954 11.7714 26.4709 12.0553 25.5739C12.211 25.0752 12.0986 24.7854 11.7044 24.47C11.0388 23.9644 10.4042 23.4194 9.80402 22.8377C9.57535 22.6091 9.38216 22.1734 9.4413 21.8876C9.48664 21.6668 9.93808 21.4204 10.2298 21.3809C11.111 21.2646 12.004 21.2824 12.8891 21.1601C13.0446 21.1249 13.191 21.0576 13.319 20.9626C13.447 20.8675 13.5537 20.7468 13.6323 20.6082C14.0266 19.8196 14.3144 18.968 14.7028 18.1697C14.827 17.9173 15.1581 17.5783 15.3612 17.596C15.5209 17.6351 15.6703 17.7081 15.7993 17.8102C15.9282 17.9122 16.0336 18.0409 16.1083 18.1874C16.488 18.9609 16.8217 19.756 17.1078 20.5687C17.2714 21.0202 17.5316 21.1858 17.9968 21.2035C18.8583 21.237 19.7237 21.2883 20.5773 21.4006C20.8552 21.4381 21.2751 21.6451 21.3224 21.8462C21.3405 22.0094 21.3231 22.1745 21.2714 22.3304C21.2196 22.4862 21.1348 22.629 21.0228 22.749C20.4382 23.3477 19.8016 23.8933 19.1205 24.3793C18.5626 24.7736 18.5448 25.1836 18.7262 25.7494C18.9538 26.4399 19.1304 27.1462 19.2545 27.8626C19.3078 28.2076 19.2368 28.7063 19.014 28.9153C18.8524 29.0671 18.3024 28.9488 18.0106 28.7931C17.2998 28.4064 16.6138 27.9758 15.9565 27.5038C15.5504 27.216 15.2271 27.1904 14.8053 27.4841C14.0759 27.9927 13.3169 28.4698 12.5501 28.9133C11.9074 29.2741 11.3476 28.9744 11.3515 28.2746Z" fill="#CCCCCC"/>
</svg>
