<svg width="37" height="40" viewBox="0 0 37 40" fill="none" xmlns="http://www.w3.org/2000/svg">
<path d="M28.7753 23.8217V23.6246C28.7753 18.6083 28.7753 13.5893 28.7753 8.56768C28.7753 7.11088 28.0656 6.36966 26.6621 6.36375C25.9235 6.36375 25.1836 6.36375 24.4424 6.36375H22.8417V4.85766C22.8417 3.88975 22.5795 3.62756 21.6589 3.62756C20.8033 3.62756 19.9497 3.62756 19.0548 3.62756C19.0548 3.391 19.0548 3.16627 19.0548 2.9514C19.0872 2.62222 19.0292 2.29043 18.8871 1.99172C18.7451 1.69301 18.5243 1.43867 18.2485 1.25607C15.8159 -0.433353 12.9259 -0.417583 10.517 1.29746C10.2675 1.46918 10.0681 1.70396 9.93889 1.97788C9.80972 2.2518 9.75547 2.55506 9.78168 2.85677C9.79745 3.10516 9.7935 3.35946 9.78168 3.62756H9.22774C8.46878 3.62756 7.74925 3.62756 7.02578 3.62756C6.8796 3.61518 6.73243 3.63333 6.59364 3.68084C6.45484 3.72835 6.32744 3.80419 6.2195 3.90355C6.11801 4.01755 6.0414 4.15146 5.99455 4.29673C5.94771 4.44201 5.93167 4.59545 5.94746 4.74727C5.96126 5.2125 5.95929 5.6797 5.94746 6.1745V6.37163H4.56754C3.73959 6.37163 2.91164 6.37163 2.08368 6.37163C1.13548 6.37163 0.00197132 6.7659 0 8.55585C0 18.3178 0 28.0811 0 37.8457C0 38.8313 0.356815 39.9925 2.05215 39.9984H26.6936C28.0735 39.9984 28.7596 39.2591 28.7596 37.8122V33.3077L27.0938 34.8V37.8181C27.1051 37.9613 27.0911 38.1055 27.0524 38.2439C26.9417 38.2825 26.8239 38.296 26.7074 38.2833C25.359 38.2833 24.0047 38.2833 22.6583 38.2833H4.43152C3.64299 38.2833 2.85446 38.2833 2.06594 38.2833C1.97807 38.2838 1.89034 38.2766 1.80376 38.2616C1.78186 38.2572 1.76064 38.25 1.74068 38.24C1.69272 38.1144 1.67581 37.9792 1.69139 37.8457C1.69139 28.064 1.69139 18.283 1.69139 8.50263C1.68836 8.39687 1.69696 8.2911 1.71702 8.18722C1.72092 8.16179 1.72891 8.13716 1.74068 8.11428C1.79945 8.09076 1.86291 8.08131 1.92598 8.08668C2.96092 8.06894 4.01754 8.07288 5.03671 8.08668H5.95733C5.95733 8.59134 5.95733 9.10388 5.95733 9.61642C5.95733 10.5587 6.21557 10.8327 7.11252 10.8327H19.9162C20.5313 10.8327 21.168 10.8327 21.7929 10.8327C21.9342 10.8422 22.0759 10.8228 22.2095 10.7756C22.343 10.7285 22.4655 10.6547 22.5696 10.5587C22.6695 10.4485 22.7452 10.3186 22.7917 10.1773C22.8382 10.0361 22.8546 9.88662 22.8397 9.73864C22.8397 9.27144 22.8397 8.80621 22.8397 8.3193V8.07485H23.2162C24.3753 8.07485 25.5818 8.07485 26.7528 8.07485C26.8561 8.06755 26.9598 8.08027 27.0583 8.11231C27.0583 8.11231 27.1096 8.19313 27.1096 8.52431V25.3278L28.7753 23.8217ZM21.168 9.06248H7.65463V5.31698H9.87433C11.2306 5.31698 11.4356 5.10013 11.4356 3.66502C11.4356 3.07362 11.4514 2.76412 11.5421 2.62219C11.6327 2.48026 11.9363 2.33832 12.4016 2.13921C13.9155 1.48671 15.4157 1.57739 16.9868 2.42111C17.3397 2.60642 17.4442 2.78975 17.4048 3.14262C17.3819 3.38044 17.3767 3.61961 17.389 3.8582C17.389 3.99817 17.389 4.13222 17.389 4.25247C17.3748 4.39463 17.3905 4.5382 17.4349 4.67397C17.4794 4.80975 17.5517 4.93475 17.6472 5.04099C17.7481 5.13586 17.8678 5.20842 17.9986 5.25393C18.1293 5.29945 18.2682 5.3169 18.4062 5.30515C19.0804 5.29332 19.7664 5.2953 20.4307 5.30515H21.168V9.06248Z" fill="#E88BC4"/>
<path d="M10.3672 23.3033C10.2182 23.3282 10.0655 23.3208 9.91967 23.2816C9.77774 23.2106 9.67719 23.045 9.55694 22.9208C9.68705 22.7888 9.79941 22.6015 9.95121 22.5404C10.1318 22.5077 10.3167 22.5077 10.4973 22.5404H22.6071C22.7559 22.5163 22.9081 22.5223 23.0546 22.5581C23.1959 22.6554 23.3216 22.7737 23.4271 22.909C23.3277 23.0512 23.2067 23.1769 23.0684 23.2816C22.9238 23.3239 22.7715 23.3334 22.6228 23.3092L10.3672 23.3033Z" fill="#E88BC4"/>
<path d="M10.101 23.7882C9.96477 23.7914 9.82968 23.7624 9.70677 23.7035C9.54501 23.6151 9.40496 23.4919 9.29674 23.3427L9.21394 23.2481V22.5897C9.24548 22.5581 9.27505 22.5226 9.30462 22.4872C9.41529 22.3165 9.57529 22.1836 9.76334 22.1062C9.95138 22.0287 10.1586 22.0103 10.3573 22.0535C10.4046 22.0535 10.4499 22.0633 10.4933 22.0633H22.7017C22.8879 22.0366 23.0779 22.0604 23.2517 22.1323C23.4127 22.2182 23.5542 22.3363 23.6676 22.4793C23.6945 22.5127 23.7234 22.5443 23.7544 22.5739L23.7701 23.2284C23.7425 23.2579 23.715 23.2934 23.6874 23.3269C23.5811 23.4788 23.4432 23.6059 23.2832 23.6995C23.1053 23.7815 22.9076 23.8109 22.7135 23.7843H10.2706C10.2193 23.7823 10.1621 23.7882 10.101 23.7882Z" fill="#E88BC4"/>
<path d="M16.4605 15.9365H22.5479C22.682 15.9365 22.8377 15.8892 22.9422 15.9503C23.1192 16.0701 23.2836 16.2075 23.433 16.3603C23.2779 16.4929 23.1139 16.6147 22.9422 16.725C22.8633 16.7703 22.7451 16.7348 22.6445 16.7348C18.5547 16.7348 14.4655 16.7348 10.377 16.7348C10.0636 16.7348 9.58849 16.861 9.58849 16.3406C9.58849 15.8202 10.0636 15.9463 10.377 15.9463C12.4035 15.9227 14.432 15.9365 16.4605 15.9365Z" fill="#E88BC4"/>
<path d="M22.8397 17.2159C22.7916 17.2151 22.7435 17.2118 22.6958 17.206H20.3361C17.019 17.206 13.7 17.206 10.379 17.206H10.2489C10.0103 17.2198 9.65749 17.2415 9.37953 16.9872C9.21662 16.8062 9.12648 16.5713 9.12648 16.3278C9.12648 16.0843 9.21662 15.8494 9.37953 15.6684C9.64763 15.416 10.0044 15.4417 10.241 15.4594C10.2856 15.4622 10.3304 15.4622 10.375 15.4594C11.9008 15.4594 13.4523 15.4594 14.9524 15.4594H22.6268C22.8134 15.4278 23.0052 15.4561 23.1748 15.5402C23.3366 15.6384 23.4856 15.7563 23.6184 15.8911C23.6597 15.9306 23.7012 15.97 23.7445 16.0074L23.7307 16.725L23.6026 16.8295C23.4741 16.9395 23.337 17.0391 23.1926 17.1271C23.0852 17.1882 22.9632 17.2189 22.8397 17.2159Z" fill="#E88BC4"/>
<path d="M16.5137 29.8737H10.381C10.2326 29.8987 10.0806 29.8913 9.93544 29.852C9.79558 29.7509 9.67307 29.6277 9.57272 29.4873C9.67677 29.3478 9.79723 29.2214 9.9315 29.1108C10.0182 29.0536 10.1602 29.093 10.2785 29.093H22.8949C23.1728 29.093 23.4528 29.162 23.4015 29.505C23.3798 29.6549 23.0762 29.8559 22.8988 29.8579C21.172 29.8855 19.447 29.8737 17.7202 29.8756L16.5137 29.8737Z" fill="#E88BC4"/>
<path d="M10.1286 30.3567C9.99237 30.3598 9.8573 30.3307 9.73437 30.2719C9.57374 30.181 9.43456 30.0566 9.3263 29.9072C9.2987 29.8737 9.27111 29.8421 9.24154 29.8106V29.1679C9.27111 29.1364 9.30068 29.1009 9.32828 29.0674C9.43064 28.9321 9.55295 28.8132 9.691 28.7145C9.85458 28.6192 10.0464 28.5843 10.2331 28.616H22.7648C22.8042 28.616 22.8436 28.616 22.8811 28.616C23.0288 28.5999 23.1782 28.6175 23.3182 28.6673C23.4581 28.7172 23.585 28.798 23.6893 28.9038C23.7678 28.994 23.8247 29.1008 23.8558 29.2163C23.8868 29.3317 23.8913 29.4527 23.8687 29.5701C23.8037 29.9998 23.2477 30.3172 22.9047 30.3231C21.5564 30.3448 20.1843 30.3429 18.8596 30.3409H10.2863C10.2351 30.3527 10.1779 30.3567 10.1286 30.3567Z" fill="#E88BC4"/>
<path d="M5.42508 29.4834C5.42508 28.7973 5.89621 28.3006 6.53886 28.3163C6.83625 28.3296 7.11694 28.4575 7.32203 28.6733C7.52713 28.889 7.64068 29.1758 7.63886 29.4735C7.63886 30.0984 7.10858 30.6878 6.5231 30.6957C5.93762 30.7036 5.4231 30.1556 5.42508 29.4834Z" fill="#E88BC4"/>
<path d="M6.54675 27.8432C6.3416 27.8369 6.1373 27.8722 5.9462 27.9471C5.7551 28.022 5.58116 28.1349 5.43492 28.2789C5.27947 28.4312 5.15788 28.6146 5.07811 28.8171C4.99428 29.0291 4.95211 29.2553 4.95392 29.4834C4.95204 29.7131 4.99566 29.941 5.08228 30.1538C5.16889 30.3666 5.29678 30.5602 5.45858 30.7233C5.59625 30.8628 5.7601 30.9738 5.94073 31.0499C6.12137 31.1261 6.31525 31.1658 6.51127 31.1669H6.52703C6.74076 31.1587 6.95059 31.1071 7.14376 31.0152C7.33693 30.9234 7.5094 30.7932 7.65068 30.6326C7.94563 30.3156 8.10972 29.8987 8.11 29.4656C8.10833 29.046 7.94489 28.6431 7.65371 28.3409C7.36253 28.0387 6.96604 27.8605 6.54675 27.8432ZM6.95481 29.9979C6.90044 30.0627 6.83378 30.1161 6.75867 30.155C6.68355 30.1939 6.60147 30.2176 6.51717 30.2246C6.44352 30.2237 6.37076 30.2083 6.30309 30.1792C6.23542 30.1501 6.17418 30.1079 6.12291 30.055C6.04899 29.98 5.99085 29.891 5.95191 29.7931C5.91298 29.6953 5.89404 29.5906 5.89622 29.4853C5.88861 29.2882 5.9595 29.0961 6.09335 28.9511C6.14979 28.8966 6.21651 28.854 6.28961 28.8255C6.36271 28.7971 6.44074 28.7835 6.51915 28.7855H6.53295C6.70829 28.7966 6.87256 28.875 6.99155 29.0043C7.11053 29.1336 7.17505 29.3038 7.17165 29.4794C7.16739 29.6734 7.08993 29.8586 6.95481 29.9979Z" fill="#E88BC4"/>
<path d="M6.52901 17.5135C5.90607 17.5135 5.4231 17.001 5.42507 16.3209C5.41309 16.0245 5.51719 15.735 5.71524 15.5142C5.91329 15.2933 6.18967 15.1584 6.48564 15.1381C7.07704 15.1184 7.61915 15.6644 7.63886 16.309C7.64503 16.6142 7.53298 16.91 7.32614 17.1345C7.11929 17.3589 6.83368 17.4948 6.52901 17.5135Z" fill="#E88BC4"/>
<path d="M7.56591 15.0947C7.42072 14.9542 7.24908 14.8438 7.06094 14.77C6.8728 14.6963 6.6719 14.6606 6.46986 14.665C6.0512 14.6909 5.659 14.8785 5.37613 15.1882C5.09326 15.498 4.94186 15.9055 4.95392 16.3248C4.9498 16.5513 4.99111 16.7763 5.07542 16.9866C5.15972 17.1969 5.28531 17.3881 5.44477 17.549C5.58513 17.6892 5.75173 17.8003 5.93506 17.8761C6.11839 17.9519 6.31485 17.9908 6.51322 17.9906H6.53492C6.74291 17.9848 6.94771 17.938 7.13751 17.8527C7.32732 17.7675 7.49837 17.6455 7.64082 17.4938C7.79432 17.3345 7.91479 17.1464 7.99531 16.9404C8.07583 16.7344 8.11481 16.5144 8.11 16.2933C8.09462 15.8374 7.89893 15.4064 7.56591 15.0947ZM6.51322 17.0463C6.43781 17.0467 6.3631 17.032 6.29339 17.0033C6.22368 16.9745 6.16036 16.9322 6.10713 16.8788C6.03639 16.8059 5.98121 16.7193 5.94495 16.6244C5.90869 16.5296 5.89211 16.4283 5.89621 16.3268C5.8825 16.1514 5.93827 15.9777 6.05148 15.8431C6.1647 15.7085 6.32628 15.6238 6.5014 15.6073H6.51914C6.66797 15.614 6.80878 15.6767 6.91341 15.7827C6.99115 15.8519 7.05409 15.9362 7.09847 16.0304C7.14285 16.1245 7.16774 16.2267 7.17165 16.3307C7.17336 16.4269 7.15594 16.5224 7.1204 16.6117C7.08487 16.7011 7.03193 16.7825 6.96466 16.8512C6.85033 16.9718 6.69313 17.0426 6.52702 17.0483L6.51322 17.0463Z" fill="#E88BC4"/>
<path d="M5.42507 22.909C5.41113 22.6101 5.51613 22.3179 5.7171 22.0962C5.91807 21.8746 6.19866 21.7415 6.49747 21.7262C6.81117 21.7262 7.11201 21.8508 7.33382 22.0727C7.55564 22.2945 7.68026 22.5953 7.68026 22.909C7.68026 23.2227 7.55564 23.5236 7.33382 23.7454C7.11201 23.9672 6.81117 24.0918 6.49747 24.0918C6.19903 24.0755 5.91905 23.9421 5.71829 23.7207C5.51753 23.4993 5.41217 23.2076 5.42507 22.909Z" fill="#E88BC4"/>
<path d="M7.6152 21.7262C7.46851 21.5771 7.29362 21.4586 7.10071 21.3778C6.9078 21.2969 6.70073 21.2552 6.49155 21.2551C6.07404 21.2858 5.68351 21.4729 5.39801 21.7791C5.1125 22.0852 4.95307 22.4879 4.95157 22.9065C4.95008 23.3251 5.10664 23.7289 5.38995 24.0371C5.67326 24.3453 6.06245 24.5352 6.47972 24.5689H6.51323C6.9167 24.5661 7.30307 24.4055 7.58957 24.1214C7.91495 23.8066 8.10212 23.3755 8.11 22.9228C8.11113 22.7005 8.06796 22.4802 7.983 22.2747C7.89805 22.0693 7.77302 21.8828 7.6152 21.7262ZM6.93509 23.4432C6.81949 23.5579 6.66416 23.6235 6.5014 23.6266C6.32753 23.6115 6.16657 23.5286 6.05333 23.3958C5.94008 23.263 5.88365 23.091 5.89622 22.9169C5.88363 22.7421 5.94022 22.5693 6.05379 22.4359C6.16736 22.3024 6.32881 22.2189 6.50337 22.2033C6.66948 22.209 6.82668 22.2798 6.94101 22.4004C7.01009 22.468 7.06501 22.5486 7.10258 22.6376C7.14015 22.7266 7.15961 22.8223 7.15982 22.9189C7.15638 23.1163 7.0757 23.3046 6.93509 23.4432Z" fill="#E88BC4"/>
<path d="M26.7882 32.5369L22.7115 26.8201C22.6014 26.6728 22.5218 26.505 22.4774 26.3265C22.4331 26.1481 22.4248 25.9625 22.4532 25.7808C22.4816 25.5991 22.546 25.4249 22.6426 25.2684C22.7393 25.112 22.8662 24.9764 23.016 24.8697C23.1658 24.763 23.3354 24.6873 23.5149 24.6471C23.6944 24.6069 23.8801 24.603 24.0611 24.6356C24.2421 24.6681 24.4147 24.7366 24.5689 24.8368C24.7231 24.9371 24.8556 25.0672 24.9588 25.2194L27.214 28.3853L33.7371 22.3452C34.0071 22.1056 34.3601 21.9813 34.7207 21.999C35.0812 22.0166 35.4204 22.1748 35.6656 22.4397C35.9109 22.7045 36.0426 23.0549 36.0325 23.4157C36.0225 23.7765 35.8715 24.119 35.6118 24.3698L26.7882 32.5369Z" fill="#E88BC4"/>
</svg>
