<svg width="38" height="41" viewBox="0 0 38 41" fill="none" xmlns="http://www.w3.org/2000/svg">
<path d="M29.7538 23.8352V23.638C29.7538 18.6217 29.7538 13.6027 29.7538 8.58111C29.7538 7.1243 29.0442 6.38309 27.6406 6.37718C26.902 6.37718 26.1621 6.37718 25.4209 6.37718H23.8202V4.87109C23.8202 3.90317 23.558 3.64099 22.6374 3.64099C21.7818 3.64099 20.9283 3.64099 20.0333 3.64099C20.0333 3.40443 20.0333 3.1797 20.0333 2.96483C20.0657 2.63565 20.0077 2.30386 19.8657 2.00515C19.7236 1.70644 19.5028 1.4521 19.227 1.26949C16.7944 -0.419926 13.9044 -0.404155 11.4955 1.31089C11.246 1.48261 11.0466 1.71739 10.9174 1.99131C10.7882 2.26523 10.734 2.56849 10.7602 2.8702C10.776 3.11859 10.772 3.37289 10.7602 3.64099H10.2063C9.4473 3.64099 8.72777 3.64099 8.00429 3.64099C7.85811 3.62861 7.71095 3.64676 7.57215 3.69427C7.43336 3.74178 7.30595 3.81762 7.19802 3.91697C7.09652 4.03098 7.01991 4.16489 6.97307 4.31016C6.92623 4.45543 6.91019 4.60888 6.92598 4.7607C6.93978 5.22593 6.9378 5.69313 6.92598 6.18793V6.38506H5.54605C4.7181 6.38506 3.89015 6.38506 3.0622 6.38506C2.114 6.38506 0.980487 6.77932 0.978516 8.56928C0.978516 18.3312 0.978516 28.0945 0.978516 37.8591C0.978516 38.8448 1.33533 40.0059 3.03066 40.0118H27.6721C29.0521 40.0118 29.7381 39.2725 29.7381 37.8256V33.3211L28.0723 34.8134V37.8315C28.0836 37.9748 28.0696 38.1189 28.0309 38.2573C27.9203 38.2959 27.8024 38.3094 27.6859 38.2967C26.3375 38.2967 24.9832 38.2967 23.6368 38.2967H5.41003C4.62151 38.2967 3.83298 38.2967 3.04445 38.2967C2.95659 38.2973 2.86886 38.29 2.78228 38.2751C2.76038 38.2707 2.73916 38.2634 2.71919 38.2534C2.67124 38.1278 2.65433 37.9926 2.66991 37.8591C2.66991 28.0774 2.66991 18.2964 2.66991 8.51605C2.66688 8.4103 2.67547 8.30453 2.69554 8.20065C2.69944 8.17522 2.70743 8.15059 2.71919 8.12771C2.77796 8.10419 2.84142 8.09474 2.9045 8.10011C3.93944 8.08236 4.99606 8.08631 6.01523 8.10011H6.93584C6.93584 8.60476 6.93584 9.11731 6.93584 9.62985C6.93584 10.5721 7.19408 10.8462 8.09103 10.8462H20.8947C21.5098 10.8462 22.1465 10.8462 22.7714 10.8462C22.9127 10.8556 23.0544 10.8362 23.188 10.7891C23.3215 10.742 23.444 10.6682 23.5481 10.5721C23.648 10.462 23.7237 10.332 23.7702 10.1908C23.8167 10.0495 23.8331 9.90005 23.8182 9.75207C23.8182 9.28487 23.8182 8.81964 23.8182 8.33272V8.08828H24.1947C25.3539 8.08828 26.5603 8.08828 27.7313 8.08828C27.8346 8.08097 27.9383 8.09369 28.0368 8.12573C28.0368 8.12573 28.0881 8.20656 28.0881 8.53774V25.3412L29.7538 23.8352ZM22.1465 9.07591H8.63314V5.33041H10.8528C12.2091 5.33041 12.4141 5.11356 12.4141 3.67844C12.4141 3.08705 12.4299 2.77755 12.5206 2.63562C12.6113 2.49368 12.9148 2.35175 13.3801 2.15264C14.8941 1.50014 16.3942 1.59082 17.9654 2.43454C18.3182 2.61985 18.4227 2.80318 18.3833 3.15605C18.3605 3.39386 18.3552 3.63304 18.3675 3.87163C18.3675 4.01159 18.3675 4.14564 18.3675 4.26589C18.3533 4.40806 18.369 4.55162 18.4135 4.6874C18.4579 4.82317 18.5302 4.94818 18.6258 5.05442C18.7266 5.14929 18.8463 5.22185 18.9771 5.26736C19.1079 5.31287 19.2467 5.33033 19.3847 5.31858C20.0589 5.30675 20.7449 5.30872 21.4093 5.31858H22.1465V9.07591Z" fill="#EF467B"/>
<path d="M11.3457 23.3167C11.1967 23.3417 11.0441 23.3343 10.8982 23.295C10.7563 23.2241 10.6557 23.0585 10.5355 22.9343C10.6656 22.8022 10.7779 22.6149 10.9297 22.5538C11.1103 22.5211 11.2952 22.5211 11.4758 22.5538H23.5856C23.7344 22.5297 23.8866 22.5357 24.0331 22.5715C24.1744 22.6688 24.3001 22.7872 24.4057 22.9224C24.3062 23.0646 24.1852 23.1903 24.0469 23.295C23.9023 23.3374 23.7501 23.3468 23.6014 23.3226L11.3457 23.3167Z" fill="#EF467B"/>
<path d="M11.0795 23.8016C10.9433 23.8048 10.8082 23.7758 10.6853 23.7169C10.5235 23.6285 10.3835 23.5053 10.2753 23.3561L10.1925 23.2615V22.6031C10.224 22.5715 10.2536 22.5361 10.2831 22.5006C10.3938 22.3299 10.5538 22.1971 10.7419 22.1196C10.9299 22.0421 11.1371 22.0237 11.3358 22.0669C11.3831 22.0669 11.4285 22.0767 11.4718 22.0767H23.6802C23.8664 22.05 24.0564 22.0738 24.2302 22.1457C24.3912 22.2316 24.5328 22.3497 24.6462 22.4927C24.673 22.5261 24.702 22.5577 24.7329 22.5873L24.7487 23.2418C24.7211 23.2714 24.6935 23.3068 24.6659 23.3404C24.5596 23.4922 24.4217 23.6193 24.2617 23.7129C24.0838 23.795 23.8861 23.8244 23.692 23.7977H11.2491C11.1978 23.7957 11.1407 23.8016 11.0795 23.8016Z" fill="#EF467B"/>
<path d="M17.439 15.9499H23.5264C23.6605 15.9499 23.8162 15.9026 23.9207 15.9637C24.0977 16.0836 24.2621 16.2209 24.4116 16.3737C24.2564 16.5063 24.0924 16.6281 23.9207 16.7384C23.8419 16.7838 23.7236 16.7483 23.623 16.7483C19.5332 16.7483 15.444 16.7483 11.3555 16.7483C11.0421 16.7483 10.567 16.8744 10.567 16.354C10.567 15.8336 11.0421 15.9598 11.3555 15.9598C13.382 15.9361 15.4105 15.9499 17.439 15.9499Z" fill="#EF467B"/>
<path d="M23.8182 17.2293C23.7701 17.2285 23.7221 17.2252 23.6743 17.2194H21.3146C17.9976 17.2194 14.6785 17.2194 11.3575 17.2194H11.2274C10.9889 17.2332 10.636 17.2549 10.358 17.0006C10.1951 16.8196 10.105 16.5847 10.105 16.3412C10.105 16.0977 10.1951 15.8628 10.358 15.6818C10.6261 15.4295 10.983 15.4551 11.2195 15.4728C11.2642 15.4757 11.3089 15.4757 11.3536 15.4728C12.8794 15.4728 14.4308 15.4728 15.931 15.4728H23.6053C23.7919 15.4413 23.9838 15.4696 24.1533 15.5537C24.3151 15.6519 24.4641 15.7697 24.5969 15.9046C24.6383 15.944 24.6797 15.9834 24.723 16.0209L24.7092 16.7384L24.5811 16.8429C24.4526 16.953 24.3155 17.0525 24.1711 17.1406C24.0637 17.2016 23.9417 17.2323 23.8182 17.2293Z" fill="#EF467B"/>
<path d="M17.4922 29.8871H11.3595C11.2111 29.9121 11.0592 29.9047 10.914 29.8654C10.7741 29.7643 10.6516 29.6411 10.5512 29.5007C10.6553 29.3613 10.7757 29.2349 10.91 29.1242C10.9968 29.067 11.1387 29.1065 11.257 29.1065H23.8734C24.1514 29.1065 24.4313 29.1755 24.38 29.5185C24.3583 29.6683 24.0548 29.8694 23.8773 29.8713C22.1505 29.8989 20.4256 29.8871 18.6987 29.8891L17.4922 29.8871Z" fill="#EF467B"/>
<path d="M11.1071 30.3701C10.9709 30.3732 10.8358 30.3442 10.7129 30.2853C10.5523 30.1945 10.4131 30.0701 10.3048 29.9206C10.2772 29.8871 10.2496 29.8556 10.2201 29.824V29.1814C10.2496 29.1498 10.2792 29.1143 10.3068 29.0808C10.4092 28.9456 10.5315 28.8266 10.6695 28.728C10.8331 28.6326 11.025 28.5978 11.2116 28.6294H23.7433C23.7827 28.6294 23.8221 28.6294 23.8596 28.6294C24.0073 28.6134 24.1567 28.6309 24.2967 28.6808C24.4366 28.7306 24.5635 28.8114 24.6678 28.9172C24.7463 29.0074 24.8032 29.1143 24.8343 29.2297C24.8654 29.3451 24.8698 29.4661 24.8472 29.5835C24.7822 30.0133 24.2263 30.3307 23.8833 30.3366C22.5349 30.3583 21.1628 30.3563 19.8381 30.3543H11.2648C11.2136 30.3661 11.1564 30.3701 11.1071 30.3701Z" fill="#EF467B"/>
<path d="M6.40359 29.4968C6.40359 28.8108 6.87473 28.314 7.51738 28.3298C7.81476 28.343 8.09546 28.4709 8.30055 28.6867C8.50565 28.9024 8.6192 29.1893 8.61738 29.4869C8.61738 30.1118 8.0871 30.7013 7.50162 30.7091C6.91613 30.717 6.40162 30.169 6.40359 29.4968Z" fill="#EF467B"/>
<path d="M7.52526 27.8566C7.32011 27.8503 7.11581 27.8857 6.92471 27.9606C6.73361 28.0354 6.55968 28.1483 6.41344 28.2923C6.25798 28.4446 6.1364 28.628 6.05663 28.8305C5.9728 29.0425 5.93063 29.2688 5.93244 29.4968C5.93055 29.7265 5.97418 29.9544 6.06079 30.1672C6.14741 30.38 6.2753 30.5736 6.43709 30.7367C6.57477 30.8763 6.73861 30.9873 6.91925 31.0634C7.09989 31.1395 7.29377 31.1792 7.48978 31.1803H7.50554C7.71928 31.1721 7.92911 31.1205 8.12228 31.0287C8.31545 30.9368 8.48792 30.8067 8.6292 30.6461C8.92415 30.329 9.08824 29.9121 9.08852 29.479C9.08684 29.0594 8.92341 28.6566 8.63223 28.3544C8.34105 28.0522 7.94456 27.8739 7.52526 27.8566ZM7.93333 30.0113C7.87896 30.0761 7.81229 30.1295 7.73718 30.1684C7.66207 30.2073 7.57999 30.231 7.49569 30.238C7.42203 30.2372 7.34927 30.2218 7.2816 30.1927C7.21393 30.1636 7.1527 30.1214 7.10143 30.0685C7.02751 29.9935 6.96936 29.9044 6.93043 29.8065C6.89149 29.7087 6.87256 29.604 6.87473 29.4988C6.86713 29.3016 6.93802 29.1095 7.07186 28.9645C7.12831 28.9101 7.19503 28.8674 7.26813 28.839C7.34123 28.8105 7.41925 28.7969 7.49766 28.7989H7.51146C7.6868 28.8101 7.85107 28.8884 7.97006 29.0177C8.08905 29.147 8.15357 29.3172 8.15017 29.4928C8.1459 29.6868 8.06844 29.872 7.93333 30.0113Z" fill="#EF467B"/>
<path d="M7.50752 17.5269C6.88459 17.5269 6.40162 17.0144 6.40359 16.3343C6.3916 16.0379 6.4957 15.7485 6.69375 15.5276C6.8918 15.3067 7.16819 15.1718 7.46416 15.1515C8.05555 15.1318 8.59766 15.6779 8.61738 16.3225C8.62355 16.6277 8.5115 16.9234 8.30465 17.1479C8.09781 17.3724 7.81219 17.5082 7.50752 17.5269Z" fill="#EF467B"/>
<path d="M8.54443 15.1081C8.39924 14.9676 8.2276 14.8572 8.03946 14.7835C7.85132 14.7097 7.65041 14.674 7.44838 14.6784C7.02972 14.7043 6.63752 14.8919 6.35465 15.2017C6.07177 15.5114 5.92038 15.919 5.93243 16.3382C5.92831 16.5647 5.96962 16.7898 6.05393 17C6.13824 17.2103 6.26383 17.4015 6.42329 17.5624C6.56365 17.7026 6.73025 17.8138 6.91358 17.8895C7.09691 17.9653 7.29337 18.0042 7.49174 18.004H7.51343C7.72143 17.9983 7.92623 17.9514 8.11603 17.8661C8.30583 17.7809 8.47689 17.6589 8.61934 17.5072C8.77283 17.3479 8.8933 17.1599 8.97382 16.9538C9.05435 16.7478 9.09332 16.5279 9.08851 16.3067C9.07314 15.8509 8.87745 15.4198 8.54443 15.1081ZM7.49174 17.0597C7.41633 17.0601 7.34161 17.0454 7.2719 17.0167C7.20219 16.9879 7.13888 16.9456 7.08565 16.8922C7.0149 16.8193 6.95973 16.7328 6.92347 16.6379C6.88721 16.543 6.87062 16.4417 6.87473 16.3402C6.86102 16.1649 6.91678 15.9911 7.03 15.8565C7.14322 15.7219 7.3048 15.6372 7.47991 15.6207H7.49766C7.64649 15.6274 7.78729 15.6901 7.89192 15.7961C7.96966 15.8654 8.03261 15.9496 8.07699 16.0438C8.12136 16.138 8.14625 16.2401 8.15016 16.3442C8.15187 16.4403 8.13445 16.5358 8.09892 16.6252C8.06339 16.7145 8.01045 16.7959 7.94318 16.8646C7.82885 16.9852 7.67164 17.056 7.50554 17.0617L7.49174 17.0597Z" fill="#EF467B"/>
<path d="M6.40359 22.9224C6.38964 22.6236 6.49464 22.3313 6.69562 22.1097C6.89659 21.888 7.17717 21.755 7.47599 21.7397C7.78968 21.7397 8.09052 21.8643 8.31234 22.0861C8.53416 22.3079 8.65878 22.6087 8.65878 22.9224C8.65878 23.2361 8.53416 23.537 8.31234 23.7588C8.09052 23.9806 7.78968 24.1052 7.47599 24.1052C7.17754 24.0889 6.89757 23.9556 6.69681 23.7341C6.49605 23.5127 6.39069 23.2211 6.40359 22.9224Z" fill="#EF467B"/>
<path d="M8.59371 21.7397C8.44703 21.5905 8.27214 21.4721 8.07923 21.3912C7.88632 21.3103 7.67924 21.2686 7.47006 21.2685C7.05256 21.2992 6.66203 21.4863 6.37652 21.7925C6.09102 22.0987 5.93158 22.5013 5.93009 22.9199C5.9286 23.3385 6.08515 23.7423 6.36846 24.0505C6.65177 24.3587 7.04096 24.5486 7.45823 24.5823H7.49174C7.89522 24.5795 8.28158 24.4189 8.56809 24.1348C8.89346 23.82 9.08064 23.3889 9.08852 22.9362C9.08965 22.7139 9.04647 22.4936 8.96152 22.2882C8.87656 22.0827 8.75153 21.8962 8.59371 21.7397ZM7.91361 23.4567C7.79801 23.5713 7.64268 23.637 7.47992 23.64C7.30604 23.6249 7.14509 23.542 7.03184 23.4092C6.9186 23.2764 6.86217 23.1044 6.87473 22.9303C6.86215 22.7555 6.91873 22.5828 7.0323 22.4493C7.14587 22.3158 7.30732 22.2323 7.48189 22.2167C7.64799 22.2224 7.8052 22.2932 7.91953 22.4138C7.9886 22.4814 8.04352 22.562 8.08109 22.6511C8.11866 22.7401 8.13813 22.8357 8.13834 22.9323C8.13489 23.1298 8.05421 23.318 7.91361 23.4567Z" fill="#EF467B"/>
<path d="M27.7667 32.5504L23.6901 26.8335C23.5799 26.6863 23.5003 26.5184 23.456 26.34C23.4116 26.1615 23.4034 25.9759 23.4317 25.7942C23.4601 25.6125 23.5245 25.4383 23.6212 25.2819C23.7178 25.1254 23.8448 24.9898 23.9946 24.8831C24.1444 24.7764 24.314 24.7008 24.4934 24.6606C24.6729 24.6203 24.8586 24.6164 25.0396 24.649C25.2206 24.6816 25.3932 24.75 25.5474 24.8503C25.7016 24.9505 25.8342 25.0806 25.9374 25.2328L28.1925 28.3988L34.7156 22.3586C34.9856 22.119 35.3387 21.9947 35.6992 22.0124C36.0597 22.0301 36.3989 22.1883 36.6442 22.4531C36.8894 22.7179 37.0211 23.0683 37.0111 23.4291C37.001 23.7899 36.85 24.1324 36.5904 24.3832L27.7667 32.5504Z" fill="#EF467B"/>
</svg>
