<svg width="205" height="140" viewBox="0 0 205 140" fill="none" xmlns="http://www.w3.org/2000/svg">
<path d="M203.005 0H64.2907C63.7624 0.000611314 63.2559 0.213006 62.8823 0.590589C62.5087 0.968171 62.2986 1.48011 62.298 2.01409V52.692H95.8682C96.7773 52.692 97.6492 53.057 98.2921 53.7068C98.9349 54.3565 99.2961 55.2377 99.2961 56.1566V99.0322H203.005C203.293 99.032 203.578 98.9686 203.839 98.8466C204.101 98.7246 204.333 98.5468 204.52 98.3254C204.536 98.3085 204.551 98.2899 204.564 98.27C204.683 98.1234 204.779 97.959 204.849 97.7827C204.949 97.5405 205.001 97.2806 205 97.0181V2.01409C204.999 1.4799 204.788 0.967963 204.414 0.590446C204.04 0.212929 203.533 0.00060981 203.005 0Z" fill="#F1F1F1"/>
<path d="M204.714 8.07253H62.5813V8.64765H204.714V8.07253Z" fill="#CBCBCB"/>
<path d="M67.4238 6.04689C68.3678 6.04689 69.1331 5.27338 69.1331 4.31921C69.1331 3.36503 68.3678 2.59152 67.4238 2.59152C66.4797 2.59152 65.7144 3.36503 65.7144 4.31921C65.7144 5.27338 66.4797 6.04689 67.4238 6.04689Z" fill="#CBCBCB"/>
<path d="M72.3371 6.04689C73.2811 6.04689 74.0464 5.27338 74.0464 4.31921C74.0464 3.36503 73.2811 2.59152 72.3371 2.59152C71.393 2.59152 70.6277 3.36503 70.6277 4.31921C70.6277 5.27338 71.393 6.04689 72.3371 6.04689Z" fill="#CBCBCB"/>
<path d="M77.2503 6.04689C78.1944 6.04689 78.9597 5.27338 78.9597 4.31921C78.9597 3.36503 78.1944 2.59152 77.2503 2.59152C76.3063 2.59152 75.541 3.36503 75.541 4.31921C75.541 5.27338 76.3063 6.04689 77.2503 6.04689Z" fill="#CBCBCB"/>
<path d="M169.298 20.6444H97.998C97.2101 20.6444 96.4545 20.9608 95.8974 21.5239C95.3402 22.087 95.0272 22.8507 95.0272 23.6471C95.0272 24.4434 95.3402 25.2072 95.8974 25.7703C96.4545 26.3334 97.2101 26.6497 97.998 26.6497H169.298C170.086 26.6497 170.841 26.3334 171.398 25.7703C171.955 25.2072 172.268 24.4434 172.268 23.6471C172.268 22.8507 171.955 22.087 171.398 21.5239C170.841 20.9608 170.086 20.6444 169.298 20.6444ZM169.298 26.1878H97.998C97.3314 26.1878 96.692 25.9201 96.2205 25.4436C95.7491 24.9671 95.4843 24.3209 95.4843 23.6471C95.4843 22.9732 95.7491 22.327 96.2205 21.8505C96.692 21.374 97.3314 21.1064 97.998 21.1064H169.298C169.964 21.1064 170.604 21.374 171.075 21.8505C171.547 22.327 171.811 22.9732 171.811 23.6471C171.811 24.3209 171.547 24.9671 171.075 25.4436C170.604 25.9201 169.964 26.1878 169.298 26.1878Z" fill="#CBCBCB"/>
<path d="M191.115 44.5664H119.815C119.027 44.5664 118.272 44.8827 117.715 45.4458C117.157 46.0089 116.844 46.7727 116.844 47.569C116.844 48.3654 117.157 49.1291 117.715 49.6922C118.272 50.2553 119.027 50.5717 119.815 50.5717H191.115C191.903 50.5717 192.658 50.2553 193.216 49.6922C193.773 49.1291 194.086 48.3654 194.086 47.569C194.086 46.7727 193.773 46.0089 193.216 45.4458C192.658 44.8827 191.903 44.5664 191.115 44.5664Z" fill="white"/>
<path d="M191.115 55.6531H119.815C119.027 55.6531 118.272 55.9694 117.715 56.5325C117.157 57.0956 116.844 57.8594 116.844 58.6557C116.844 59.4521 117.157 60.2158 117.715 60.7789C118.272 61.342 119.027 61.6584 119.815 61.6584H191.115C191.903 61.6584 192.658 61.342 193.216 60.7789C193.773 60.2158 194.086 59.4521 194.086 58.6557C194.086 57.8594 193.773 57.0956 193.216 56.5325C192.658 55.9694 191.903 55.6531 191.115 55.6531Z" fill="white"/>
<path d="M191.115 66.7398H119.815C119.027 66.7398 118.272 67.0562 117.715 67.6193C117.157 68.1824 116.844 68.9461 116.844 69.7425C116.844 70.5388 117.157 71.3026 117.715 71.8657C118.272 72.4288 119.027 72.7451 119.815 72.7451H191.115C191.903 72.7451 192.658 72.4288 193.216 71.8657C193.773 71.3026 194.086 70.5388 194.086 69.7425C194.086 68.9461 193.773 68.1824 193.216 67.6193C192.658 67.0562 191.903 66.7398 191.115 66.7398Z" fill="white"/>
<path d="M108.293 39.6004H75.8426C75.1466 39.6016 74.4794 39.8816 73.9873 40.3791C73.4951 40.8765 73.2181 41.5508 73.2169 42.2543V52.692H73.6739V42.2543C73.6751 41.6733 73.904 41.1165 74.3104 40.7057C74.7169 40.2949 75.2678 40.0636 75.8426 40.0624H108.293C108.868 40.063 109.419 40.2941 109.826 40.705C110.232 41.116 110.461 41.6732 110.462 42.2543V75.0526C110.461 75.6337 110.232 76.1909 109.826 76.6018C109.419 77.0127 108.868 77.2439 108.293 77.2445H99.2961V77.7064H108.293C108.989 77.7058 109.657 77.426 110.149 76.9285C110.641 76.4309 110.918 75.7562 110.919 75.0526V42.2543C110.918 41.5508 110.641 40.8765 110.148 40.3791C109.656 39.8816 108.989 39.6016 108.293 39.6004Z" fill="#CBCBCB"/>
<path d="M24.1367 73.3503C24.0224 73.3503 19.1297 73.0131 19.0063 73.0084L19.4451 68.5737L22.2308 68.4883L27.5554 58.5218C26.8173 57.099 27.7268 55.2096 29.2922 54.9186C32.4504 54.1933 33.5336 59.2124 30.3686 59.8822L25.9626 72.0614C25.8246 72.4388 25.5758 72.7646 25.2494 72.9949C24.923 73.2253 24.5348 73.3493 24.1367 73.3503Z" fill="#F4BAB9"/>
<path d="M11.2388 75.6346C6.58374 75.6462 6.17469 68.5345 10.8412 68.0333C23.1815 67.2803 21.6184 64.1483 22.5553 73.3872C22.5835 73.6612 22.5031 73.9354 22.3318 74.1496C22.1605 74.3639 21.9122 74.5009 21.6412 74.5305L11.6547 75.6115C11.5167 75.6277 11.3778 75.6354 11.2388 75.6346Z" fill="#EF467B"/>
<path d="M10.1761 53.1516C16.5908 56.8472 11.3188 66.5712 4.79211 63.1066C-1.62028 59.4249 3.65635 49.6847 10.1761 53.1516Z" fill="#F4BAB9"/>
<path d="M16.0081 136.926H18.8098L20.1421 126.003H16.0081V136.926Z" fill="#F4BAB9"/>
<path d="M15.4071 139.557H24.2235C24.1915 134.965 18.3002 136.288 15.4185 136.117L15.4071 139.557Z" fill="#1C2355"/>
<path d="M3.8963 136.926H6.69801L8.0303 126.003H3.8963V136.926Z" fill="#F4BAB9"/>
<path d="M3.29528 139.557H12.1117C12.0798 134.965 6.1884 136.288 3.30671 136.117L3.29528 139.557Z" fill="#1C2355"/>
<path d="M7.08421 133.105C6.39864 132.918 2.72854 133.487 2.2852 132.74C0.767801 117.378 1.10602 102.344 4.47218 94.0825L16.0469 93.3664C18.6338 98.1407 24.5846 129.83 20.9945 131.757L16.3806 131.923C16.1189 131.93 15.8627 131.847 15.6547 131.686C15.4468 131.526 15.2996 131.298 15.238 131.041L11.3713 108.853C10.4115 107.495 8.52163 132.235 8.20855 132.14C8.16426 132.409 8.02703 132.654 7.82121 132.831C7.61539 133.007 7.35428 133.105 7.08421 133.105Z" fill="#1C2355"/>
<path d="M4.1134 96.0319C-1.72997 89.851 1.99726 73.2856 1.80759 73.6274C1.82358 73.2232 3.14674 66.9731 6.57232 65.9476C9.28719 65.0398 12.2854 67.7515 12.6648 70.4931L16.7348 94.78C16.7562 94.912 16.7467 95.0472 16.707 95.1747C16.6673 95.3023 16.5986 95.4187 16.5063 95.5145C16.6982 96.1497 4.39448 95.9048 4.1134 96.0319Z" fill="#EF467B"/>
<path d="M6.00558 57.4986C6.51747 57.1706 6.77114 56.607 7.0705 56.0942C8.64275 55.1888 10.4527 57.3808 12.1163 56.5562C16.8216 51.9898 11.9861 50.6433 7.65095 50.4031C6.62716 50.2737 5.75649 50.634 4.98179 51.2484C-3.67471 50.5786 0.475291 62.215 5.94159 63.751C6.90597 64.1783 7.6281 63.3145 6.77799 62.5292C5.60109 61.2888 4.14311 58.7782 6.00558 57.4986Z" fill="#1C2355"/>
<path d="M95.8682 52.2301H33.2525C32.2222 52.2301 31.234 52.6437 30.5055 53.3801C29.7769 54.1165 29.3676 55.1152 29.3676 56.1566V136.073C29.3676 137.115 29.7769 138.114 30.5055 138.85C31.234 139.586 32.2222 140 33.2525 140H95.8682C96.3784 140 96.8835 139.898 97.3549 139.701C97.8262 139.504 98.2545 139.215 98.6152 138.85C98.976 138.485 99.2621 138.052 99.4574 137.576C99.6526 137.1 99.7531 136.589 99.7531 136.073V56.1566C99.7531 55.641 99.6526 55.1304 99.4574 54.654C99.2621 54.1776 98.976 53.7447 98.6152 53.3801C98.2545 53.0155 97.8262 52.7263 97.3549 52.5289C96.8835 52.3316 96.3784 52.2301 95.8682 52.2301Z" fill="#1D2452"/>
<path d="M99.2961 56.1566V136.073C99.2961 136.992 98.9349 137.874 98.2921 138.523C97.6492 139.173 96.7773 139.538 95.8682 139.538H33.2525C32.3434 139.538 31.4715 139.173 30.8287 138.523C30.1858 137.874 29.8247 136.992 29.8247 136.073V56.1566C29.8247 55.2377 30.1858 54.3565 30.8287 53.7068C31.4715 53.057 32.3434 52.692 33.2525 52.692H95.8682C96.7773 52.692 97.6492 53.057 98.2921 53.7068C98.9349 54.3565 99.2961 55.2377 99.2961 56.1566Z" fill="white"/>
<path d="M15.6105 85.8598C13.5537 86.0908 12.6396 81.2403 11.8512 80.0046L15.9647 78.3878L17.3038 80.8592L28.5015 81.141C28.5713 81.0492 28.6476 80.9627 28.73 80.8823C30.9513 78.531 34.5688 82.0557 32.3567 84.4001C32.1304 84.6449 31.8584 84.8421 31.5564 84.9803C31.2544 85.1185 30.9284 85.1949 30.597 85.2052C30.2657 85.2155 29.9356 85.1595 29.6258 85.0403C29.316 84.9212 29.0325 84.7412 28.7917 84.5109C28.7191 84.4418 28.6504 84.3685 28.5861 84.2915C28.3004 84.3146 15.8801 85.8667 15.6105 85.8598Z" fill="#F4BAB9"/>
<path d="M12.5688 83.5431C11.8832 84.213 6.6066 74.8193 6.22039 74.5536C3.5558 70.3661 9.83108 66.2386 12.5414 70.3961L18.026 78.9144C18.1742 79.1454 18.2257 79.4265 18.1692 79.6958C18.1126 79.9652 17.9526 80.2008 17.7243 80.3511C17.4729 80.4712 12.7425 83.7972 12.5688 83.5431Z" fill="#EF467B"/>
<path d="M83.5279 107.548H45.5928C41.7079 107.53 41.7079 101.564 45.5928 101.543H83.5279C87.3991 101.561 87.4219 107.527 83.5279 107.548Z" fill="#CBCBCB"/>
<path d="M83.5279 118.635H45.5928C41.7079 118.616 41.7079 112.65 45.5928 112.63H83.5279C87.3991 112.648 87.4219 118.614 83.5279 118.635Z" fill="#CBCBCB"/>
<path d="M83.5279 129.722H45.5928C41.7079 129.703 41.7079 123.737 45.5928 123.716H83.5279C87.3991 123.735 87.4219 129.701 83.5279 129.722Z" fill="#CBCBCB"/>
<path d="M97.6964 59.6212C96.5212 59.6212 95.3725 59.269 94.3954 58.6091C93.4183 57.9492 92.6567 57.0114 92.207 55.914C91.7573 54.8167 91.6397 53.6092 91.8689 52.4443C92.0982 51.2794 92.6641 50.2093 93.495 49.3695C94.326 48.5296 95.3847 47.9577 96.5372 47.726C97.6898 47.4942 98.8845 47.6132 99.9702 48.0677C101.056 48.5222 101.984 49.292 102.637 50.2795C103.29 51.2671 103.638 52.4281 103.638 53.6159C103.638 55.2086 103.012 56.7361 101.898 57.8623C100.784 58.9885 99.2722 59.6212 97.6964 59.6212Z" fill="url(#paint0_linear_42_8523)"/>
<path d="M100.439 53.3849H97.9249V50.4977C97.9249 50.4365 97.9008 50.3777 97.858 50.3344C97.8151 50.2911 97.757 50.2668 97.6964 50.2668C97.6358 50.2668 97.5777 50.2911 97.5348 50.3344C97.4919 50.3777 97.4679 50.4365 97.4679 50.4977V53.3849H94.9541C94.8935 53.3849 94.8354 53.4093 94.7925 53.4526C94.7497 53.4959 94.7256 53.5546 94.7256 53.6159C94.7256 53.6772 94.7497 53.7359 94.7925 53.7792C94.8354 53.8225 94.8935 53.8469 94.9541 53.8469H97.4679V56.734C97.4679 56.7953 97.4919 56.854 97.5348 56.8974C97.5777 56.9407 97.6358 56.965 97.6964 56.965C97.757 56.965 97.8151 56.9407 97.858 56.8974C97.9008 56.854 97.9249 56.7953 97.9249 56.734V53.8469H100.439C100.499 53.8469 100.557 53.8225 100.6 53.7792C100.643 53.7359 100.667 53.6772 100.667 53.6159C100.667 53.5546 100.643 53.4959 100.6 53.4526C100.557 53.4093 100.499 53.3849 100.439 53.3849Z" fill="white"/>
<path d="M82.8423 94.3365H46.2784C45.2788 94.3353 44.3204 93.9334 43.6135 93.2189C42.9066 92.5045 42.509 91.5359 42.5078 90.5255V69.8302C42.509 68.8199 42.9066 67.8512 43.6135 67.1368C44.3204 66.4223 45.2788 66.0204 46.2784 66.0192H82.8423C83.842 66.0204 84.8004 66.4223 85.5072 67.1368C86.2141 67.8512 86.6117 68.8199 86.613 69.8302V90.5255C86.6117 91.5359 86.2141 92.5045 85.5072 93.2189C84.8004 93.9334 83.842 94.3353 82.8423 94.3365Z" fill="#E4EBF4"/>
<defs>
<linearGradient id="paint0_linear_42_8523" x1="101.807" y1="57.05" x2="94.4474" y2="48.7279" gradientUnits="userSpaceOnUse">
<stop offset="0.0453242" stop-color="#E8B86D"/>
<stop offset="1" stop-color="#EF796B"/>
</linearGradient>
</defs>
</svg>
