<svg width="36" height="40" viewBox="0 0 36 40" fill="none" xmlns="http://www.w3.org/2000/svg">
<path d="M28.7517 23.8373V23.6263C28.7517 18.6074 28.7517 13.5877 28.7517 8.56744C28.7517 7.11261 28.042 6.37139 26.6404 6.36351H22.816V6.12103C22.816 5.69129 22.816 5.27534 22.816 4.85939C22.816 3.89148 22.5558 3.62732 21.6332 3.62732C20.7777 3.62732 19.9241 3.62732 19.0311 3.62732C19.0311 3.39076 19.0311 3.16603 19.0311 2.95313C19.0626 2.62356 19.004 2.29163 18.8617 1.99272C18.7193 1.69381 18.4986 1.43913 18.2229 1.25583C15.7903 -0.433594 12.9003 -0.417823 10.4914 1.29919C10.2418 1.47031 10.0421 1.7047 9.91293 1.97835C9.78372 2.252 9.72958 2.55507 9.75605 2.85653C9.77182 3.10492 9.76985 3.35922 9.76591 3.62732H9.21197C8.45301 3.62732 7.73545 3.62732 7.01 3.62732C6.86449 3.61314 6.71763 3.62949 6.57879 3.67531C6.43996 3.72114 6.31222 3.79544 6.20374 3.89345C6.10203 4.00732 6.02528 4.14121 5.97843 4.28652C5.93158 4.43183 5.91566 4.58534 5.93169 4.73717C5.94352 5.2024 5.93169 5.6696 5.93169 6.1644C5.93169 6.23143 5.93169 6.29845 5.93169 6.36154H2.08368C1.13548 6.36154 0.00197132 6.7558 0 8.54576C0 18.3077 0 28.0717 0 37.8376C0 38.8232 0.356809 39.9843 2.05017 39.9883H26.6916C28.0716 39.9883 28.7576 39.249 28.7576 37.8021V33.3154L27.0918 34.8076V37.8159C27.1035 37.9591 27.0895 38.1033 27.0504 38.2417C26.9404 38.28 26.8233 38.2935 26.7074 38.2811C25.3571 38.2811 24.0028 38.2811 22.6564 38.2811H4.40984C3.62131 38.2811 2.83278 38.2811 2.04426 38.2811C1.9557 38.2827 1.8672 38.2755 1.7801 38.2594C1.75855 38.2561 1.73782 38.2487 1.71899 38.2377C1.71899 38.2377 1.66773 38.1707 1.66773 37.8435C1.66773 28.0618 1.66773 18.2801 1.66773 8.49844C1.66467 8.39334 1.67327 8.28822 1.69336 8.185C1.69675 8.15856 1.70547 8.13308 1.71899 8.1101C1.77764 8.08614 1.84121 8.07667 1.90429 8.0825C2.93923 8.06476 3.99389 8.07067 5.01306 8.0825H5.93367C5.93367 8.58715 5.93367 9.10167 5.93367 9.61421C5.93367 10.5565 6.19388 10.8285 7.09083 10.8285H19.8926C20.5076 10.8285 21.1463 10.8285 21.7693 10.8285C21.9106 10.8373 22.0523 10.8173 22.1858 10.7699C22.3193 10.7225 22.4418 10.6485 22.546 10.5526C22.6459 10.4424 22.7215 10.3125 22.768 10.1712C22.8146 10.0299 22.8309 9.88047 22.816 9.73249C22.816 9.26529 22.816 8.80203 22.816 8.31314V8.07067H23.1925C24.3517 8.07067 25.5581 8.06081 26.7291 8.07067C26.8324 8.06152 26.9366 8.07428 27.0346 8.10813C27.0346 8.10813 27.0859 8.18698 27.0859 8.51816V25.3217L28.7517 23.8373ZM21.1365 9.07013H7.63097V5.32463H9.85067C11.2069 5.32463 11.412 5.10778 11.412 3.67266C11.412 3.08127 11.4277 2.77177 11.5184 2.63181C11.6091 2.49184 11.9127 2.34597 12.3779 2.14686C13.8919 1.49633 15.392 1.58701 16.9632 2.42876C17.3161 2.62589 17.4225 2.7974 17.3811 3.15026C17.358 3.38873 17.3533 3.62864 17.3673 3.86782C17.3673 4.00778 17.3673 4.13986 17.3673 4.26208C17.3516 4.4092 17.3676 4.55797 17.4142 4.6984C17.4608 4.83883 17.5369 4.96766 17.6374 5.07624C17.7382 5.17111 17.8579 5.24366 17.9887 5.28917C18.1195 5.33469 18.2584 5.35214 18.3963 5.34039C19.0686 5.3266 19.7565 5.33054 20.4209 5.34039H21.1444L21.1365 9.07013Z" fill="#AECAE3"/>
<path d="M10.3435 23.309C10.1945 23.3339 10.0419 23.3265 9.89601 23.2873C9.75408 23.2183 9.65354 23.0527 9.53329 22.9285C9.66537 22.7964 9.77576 22.6091 9.92755 22.5461C10.1081 22.5134 10.2931 22.5134 10.4736 22.5461H22.5834C22.7322 22.5209 22.8846 22.527 23.0309 22.5638C23.1732 22.6599 23.299 22.7784 23.4035 22.9147C23.3041 23.0568 23.183 23.1826 23.0447 23.2873C22.8998 23.3279 22.7478 23.3367 22.5992 23.3129L10.3435 23.309Z" fill="#AECAE3"/>
<path d="M10.0774 23.8038C9.94103 23.8078 9.80575 23.7787 9.68311 23.719C9.52193 23.6307 9.38199 23.5082 9.27308 23.3602C9.24548 23.3267 9.21788 23.2932 9.19028 23.2636V22.6072C9.22182 22.5756 9.25139 22.5382 9.28096 22.5027C9.40123 22.3342 9.56187 22.1986 9.74816 22.1084C9.93806 22.0428 10.1414 22.0258 10.3396 22.0591C10.384 22.0653 10.4288 22.0686 10.4736 22.069H22.5834C22.6169 22.069 22.6485 22.069 22.682 22.069C22.868 22.0415 23.058 22.0647 23.232 22.136C23.3935 22.222 23.5351 22.3409 23.6479 22.4849C23.6755 22.5165 23.7051 22.548 23.7347 22.5776L23.7504 23.2321C23.7228 23.2636 23.6952 23.2971 23.6696 23.3306C23.562 23.4821 23.4236 23.6091 23.2635 23.7032C23.0859 23.7863 22.8879 23.8158 22.6938 23.788H10.2469C10.1957 23.79 10.1464 23.8038 10.0774 23.8038Z" fill="#AECAE3"/>
<path d="M16.4368 15.9343H22.5203C22.6544 15.9343 22.8121 15.8889 22.9146 15.9481C23.0916 16.0686 23.256 16.2066 23.4055 16.3601C23.2522 16.493 23.0902 16.6155 22.9205 16.7267C22.8417 16.7721 22.7234 16.7267 22.6228 16.7267C18.5343 16.7267 14.4452 16.7267 10.3553 16.7267C10.0419 16.7267 9.5668 16.8509 9.5668 16.3325C9.5668 15.814 10.0419 15.9382 10.3553 15.9382C12.3799 15.9283 14.4084 15.9343 16.4368 15.9343Z" fill="#AECAE3"/>
<path d="M22.818 17.2215C22.7692 17.2208 22.7205 17.2175 22.6721 17.2117H20.3125C16.9954 17.2117 13.677 17.2117 10.3573 17.2117C10.314 17.2088 10.2705 17.2088 10.2272 17.2117C9.98669 17.2235 9.6358 17.2452 9.35587 16.9909C9.19351 16.81 9.1037 16.5755 9.1037 16.3325C9.1037 16.0894 9.19351 15.8549 9.35587 15.674C9.62397 15.4217 9.98078 15.4473 10.2173 15.4631C10.2646 15.4631 10.31 15.4631 10.3534 15.4631C11.8772 15.4533 13.4286 15.4631 14.9288 15.4631H22.6012C22.7884 15.4306 22.9812 15.4589 23.1511 15.5439C23.3119 15.642 23.4602 15.7591 23.5927 15.8929C23.6341 15.9323 23.6755 15.9717 23.7189 16.0092L23.6992 16.7366L23.571 16.8411C23.4426 16.9518 23.3055 17.052 23.161 17.1407C23.0559 17.1976 22.9375 17.2255 22.818 17.2215Z" fill="#AECAE3"/>
<path d="M16.492 29.8793H10.3593C10.2102 29.9034 10.0578 29.896 9.91178 29.8577C9.77283 29.7555 9.65048 29.6325 9.54906 29.493C9.65385 29.3529 9.77496 29.2259 9.90981 29.1145C9.99458 29.0573 10.1385 29.0987 10.2548 29.0987H22.8712C23.1492 29.0987 23.4311 29.1677 23.3778 29.5127C23.3562 29.6605 23.0526 29.8616 22.8752 29.8655C21.1503 29.8912 19.4234 29.8813 17.6985 29.8813L16.492 29.8793Z" fill="#AECAE3"/>
<path d="M10.0951 30.3623C9.95882 30.3659 9.82364 30.3368 9.70085 30.2776C9.53982 30.1874 9.4 30.0637 9.29082 29.9148C9.26322 29.8813 9.23562 29.8478 9.20802 29.8182V29.1756L9.29476 29.0731C9.39721 28.9384 9.51952 28.8201 9.65748 28.7222C9.82058 28.6255 10.0127 28.5899 10.1996 28.6217H22.8653C23.0133 28.6065 23.1627 28.6244 23.3029 28.6742C23.443 28.724 23.5703 28.8043 23.6755 28.9095C23.7536 28.9998 23.8102 29.1068 23.8409 29.2222C23.8717 29.3376 23.8758 29.4585 23.8529 29.5758C23.7879 30.0055 23.2339 30.3249 22.8909 30.3308C21.5406 30.3505 20.1685 30.3485 18.8438 30.3466H10.2725C10.2114 30.3584 10.1562 30.3623 10.0951 30.3623Z" fill="#AECAE3"/>
<path d="M5.40141 29.491C5.40141 28.803 5.87255 28.3082 6.51717 28.322C6.81404 28.3362 7.09396 28.4645 7.29854 28.6801C7.50311 28.8957 7.61656 29.182 7.6152 29.4792C7.6152 30.1041 7.08491 30.6935 6.49943 30.7014C5.91395 30.7093 5.39944 30.1612 5.40141 29.491Z" fill="#AECAE3"/>
<path d="M6.52309 27.8489C6.31799 27.843 6.11382 27.8786 5.92279 27.9534C5.73175 28.0283 5.55778 28.1409 5.41127 28.2846C5.25599 28.4378 5.13446 28.6218 5.05446 28.8247C4.97153 29.0363 4.92939 29.2617 4.93026 29.489C4.92838 29.7193 4.97219 29.9476 5.05915 30.1608C5.14612 30.3739 5.27451 30.5677 5.43689 30.731C5.5742 30.8704 5.73771 30.9814 5.91802 31.0575C6.09833 31.1336 6.29189 31.1734 6.48761 31.1745H6.50535C6.71874 31.166 6.9282 31.1143 7.12101 31.0225C7.31382 30.9307 7.48598 30.8006 7.62703 30.6403C7.92198 30.3232 8.08606 29.9063 8.08634 29.4733C8.08469 29.0534 7.92132 28.6504 7.63019 28.3478C7.33906 28.0453 6.94256 27.8666 6.52309 27.8489ZM6.93115 30.0055C6.87698 30.0704 6.81032 30.1237 6.73515 30.1623C6.65997 30.2009 6.5778 30.224 6.49352 30.2302C6.41986 30.2294 6.3471 30.214 6.27943 30.1849C6.21176 30.1558 6.15053 30.1136 6.09926 30.0607C6.02534 29.9857 5.9672 29.8966 5.92826 29.7988C5.88933 29.7009 5.87039 29.5963 5.87256 29.491C5.86836 29.3933 5.88362 29.2958 5.91746 29.2041C5.95131 29.1124 6.00305 29.0283 6.06969 28.9568C6.1263 28.9027 6.19308 28.8603 6.26618 28.8323C6.33927 28.8042 6.41722 28.7909 6.49549 28.7932H6.50732C6.68161 28.8052 6.84462 28.8838 6.96272 29.0125C7.08083 29.1413 7.14503 29.3104 7.14208 29.4851C7.13933 29.6788 7.06407 29.8645 6.93115 30.0055Z" fill="#AECAE3"/>
<path d="M6.50535 17.5251C5.88241 17.5251 5.39944 17.0106 5.40141 16.3423C5.39043 16.0462 5.49487 15.7573 5.69272 15.5366C5.89058 15.316 6.16638 15.1808 6.46198 15.1595C7.05337 15.1398 7.59746 15.6859 7.6152 16.3305C7.61881 16.634 7.50561 16.9272 7.29903 17.1496C7.09245 17.372 6.80829 17.5064 6.50535 17.5251Z" fill="#AECAE3"/>
<path d="M7.54226 15.1004C7.39703 14.96 7.22535 14.8499 7.03718 14.7764C6.84902 14.703 6.64813 14.6677 6.44621 14.6726C6.02754 14.6975 5.63506 14.8846 5.35204 15.1941C5.06902 15.5037 4.91773 15.9113 4.93026 16.3305C4.92525 16.5566 4.96558 16.7814 5.04887 16.9917C5.13216 17.2019 5.25672 17.3933 5.41521 17.5547C5.69892 17.8374 6.08312 17.9962 6.48366 17.9963H6.50732C6.71513 17.9911 6.91983 17.9445 7.10939 17.8592C7.29896 17.7739 7.46958 17.6516 7.61126 17.4995C7.76484 17.3403 7.88537 17.1522 7.9659 16.9461C8.04642 16.7401 8.08535 16.5201 8.08043 16.299C8.06703 15.8439 7.87345 15.4128 7.54226 15.1004ZM6.48957 17.054C6.4142 17.0541 6.33953 17.0393 6.26985 17.0106C6.20017 16.9818 6.13684 16.9396 6.08348 16.8864C6.01324 16.8127 5.9584 16.7258 5.92218 16.6307C5.88596 16.5356 5.86909 16.4342 5.87255 16.3325C5.85936 16.1572 5.91531 15.9838 6.02843 15.8493C6.14155 15.7148 6.30284 15.63 6.47775 15.6129H6.49549C6.64776 15.6172 6.79253 15.68 6.89961 15.7884C7.04898 15.9294 7.13739 16.1232 7.14602 16.3285C7.14777 16.5222 7.07262 16.7086 6.93707 16.847C6.82439 16.9713 6.66698 17.0457 6.49943 17.054H6.48957Z" fill="#AECAE3"/>
<path d="M5.40141 22.9147C5.39425 22.7665 5.41636 22.6183 5.46648 22.4786C5.51661 22.339 5.59376 22.2105 5.69353 22.1007C5.7933 21.9909 5.91374 21.9017 6.04796 21.8385C6.18218 21.7752 6.32756 21.739 6.47578 21.7319C6.78947 21.7319 7.09032 21.8565 7.31213 22.0783C7.53395 22.3001 7.65857 22.601 7.65857 22.9147C7.65857 23.2284 7.53395 23.5292 7.31213 23.751C7.09032 23.9729 6.78947 24.0975 6.47578 24.0975C6.1768 24.0822 5.89602 23.9492 5.69473 23.7276C5.49345 23.506 5.388 23.2138 5.40141 22.9147Z" fill="#AECAE3"/>
<path d="M7.58366 21.7339C7.43697 21.5847 7.26208 21.4663 7.06917 21.3854C6.87626 21.3045 6.66919 21.2628 6.46001 21.2627C6.04253 21.2937 5.65212 21.481 5.36681 21.7874C5.0815 22.0937 4.92231 22.4964 4.92106 22.9151C4.91982 23.3337 5.07661 23.7373 5.36009 24.0454C5.64358 24.3534 6.03287 24.5431 6.45015 24.5765H6.48169C6.885 24.5729 7.27106 24.4124 7.55803 24.129C7.71938 23.9729 7.84838 23.7865 7.93768 23.5805C8.02698 23.3745 8.07481 23.153 8.07846 22.9285C8.08022 22.7064 8.03732 22.4862 7.95232 22.281C7.86733 22.0757 7.74196 21.8897 7.58366 21.7339ZM6.90355 23.4509C6.78819 23.5659 6.63272 23.6316 6.46987 23.6342C6.29619 23.6186 6.13554 23.5356 6.02239 23.4029C5.90925 23.2702 5.85262 23.0985 5.86467 22.9245C5.85213 22.7496 5.90905 22.5768 6.02308 22.4436C6.13711 22.3104 6.29906 22.2275 6.47381 22.2129C6.63977 22.2192 6.79674 22.2899 6.91144 22.41C6.98034 22.4777 7.03515 22.5584 7.07271 22.6474C7.11027 22.7364 7.12982 22.8319 7.13026 22.9285C7.12766 23.1244 7.04923 23.3116 6.91144 23.4509H6.90355Z" fill="#AECAE3"/>
<path d="M26.2461 33.8575L33.0708 27.7464L30.4509 24.815L23.6282 30.9261L26.2461 33.8575Z" fill="#AECAE3"/>
<path d="M25.2743 34.8155L22.6209 31.8586C22.1872 32.2784 21.6746 32.5722 21.5426 33.2385C21.4105 33.9048 21.1798 34.5119 20.9965 35.1487C20.8132 35.7854 21.1207 36.1107 21.7535 36.0101C22.5105 35.8879 23.2832 35.8288 24.0146 35.6159C24.4542 35.4759 24.8248 35.1073 25.2743 34.8155Z" fill="#AECAE3"/>
<path d="M31.4366 23.8984L34.0545 26.8002C34.5316 26.3743 34.9929 25.9801 35.4344 25.5661C35.4885 25.5175 35.532 25.4584 35.5625 25.3925C35.593 25.3265 35.6098 25.255 35.6118 25.1824C35.6139 25.1098 35.6011 25.0375 35.5743 24.9699C35.5476 24.9024 35.5074 24.8409 35.4561 24.7894C34.8516 24.1008 34.2372 23.4207 33.6129 22.7491C33.5638 22.6921 33.5037 22.6454 33.4363 22.612C33.3688 22.5785 33.2953 22.5589 33.2202 22.5543C33.145 22.5498 33.0697 22.5603 32.9987 22.5852C32.9277 22.6102 32.8624 22.6492 32.8067 22.6998C32.7239 22.7609 32.649 22.8319 32.5721 22.8969C32.2074 23.2242 31.8309 23.5495 31.4366 23.8984Z" fill="#AECAE3"/>
</svg>
