<svg width="36" height="40" viewBox="0 0 36 40" fill="none" xmlns="http://www.w3.org/2000/svg">
<path d="M28.7536 23.8483V23.6373C28.7536 18.6183 28.7536 13.5987 28.7536 8.57843C28.7536 7.12359 28.0439 6.38238 26.6423 6.3745H22.818V6.13202C22.818 5.70227 22.818 5.28633 22.818 4.87038C22.818 3.90246 22.5578 3.63831 21.6352 3.63831C20.7796 3.63831 19.9261 3.63831 19.0331 3.63831C19.0331 3.40175 19.0331 3.17702 19.0331 2.96412C19.0645 2.63455 19.006 2.30261 18.8636 2.0037C18.7213 1.70479 18.5005 1.45011 18.2248 1.26681C15.7922 -0.422607 12.9023 -0.406837 10.4933 1.31018C10.2437 1.4813 10.0441 1.71569 9.91488 1.98934C9.78568 2.26299 9.73154 2.56606 9.758 2.86752C9.77377 3.11591 9.7718 3.37021 9.76786 3.63831H9.21392C8.45496 3.63831 7.7374 3.63831 7.01196 3.63831C6.86645 3.62413 6.71958 3.64048 6.58075 3.6863C6.44191 3.73213 6.31417 3.80642 6.20569 3.90443C6.10398 4.0183 6.02724 4.1522 5.98038 4.29751C5.93353 4.44282 5.91761 4.59633 5.93365 4.74816C5.94547 5.21339 5.93365 5.68059 5.93365 6.17539C5.93365 6.24241 5.93365 6.30944 5.93365 6.37252H2.08564C1.13743 6.37252 0.00392444 6.76679 0.00195312 8.55674C0.00195312 18.3187 0.00195312 28.0826 0.00195312 37.8485C0.00195312 38.8342 0.358762 39.9953 2.05212 39.9992H26.6936C28.0735 39.9992 28.7595 39.26 28.7595 37.8131V33.3263L27.0938 34.8186V37.8269C27.1054 37.9701 27.0914 38.1143 27.0524 38.2527C26.9424 38.291 26.8252 38.3045 26.7094 38.2921C25.359 38.2921 24.0047 38.2921 22.6583 38.2921H4.41179C3.62326 38.2921 2.83474 38.2921 2.04621 38.2921C1.95765 38.2937 1.86916 38.2865 1.78205 38.2704C1.7605 38.2671 1.73977 38.2597 1.72094 38.2487C1.72094 38.2487 1.66969 38.1817 1.66969 37.8545C1.66969 28.0728 1.66969 18.2911 1.66969 8.50943C1.66663 8.40432 1.67522 8.2992 1.69532 8.19599C1.6987 8.16954 1.70742 8.14406 1.72094 8.12109C1.7796 8.09713 1.84316 8.08766 1.90625 8.09348C2.94119 8.07574 3.99584 8.08166 5.01501 8.09348H5.93562C5.93562 8.59814 5.93562 9.11265 5.93562 9.6252C5.93562 10.5675 6.19583 10.8395 7.09278 10.8395H19.8945C20.5096 10.8395 21.1483 10.8395 21.7712 10.8395C21.9126 10.8483 22.0543 10.8283 22.1878 10.7809C22.3212 10.7334 22.4437 10.6595 22.5479 10.5635C22.6478 10.4534 22.7235 10.3234 22.77 10.1822C22.8165 10.0409 22.8329 9.89146 22.818 9.74348C22.818 9.27627 22.818 8.81302 22.818 8.32413V8.08166H23.1945C24.3536 8.08166 25.5601 8.0718 26.731 8.08166C26.8344 8.0725 26.9385 8.08527 27.0366 8.11911C27.0366 8.11911 27.0879 8.19796 27.0879 8.52914V25.3327L28.7536 23.8483ZM21.1384 9.08112H7.63292V5.33561H9.85263C11.2089 5.33561 11.4139 5.11877 11.4139 3.68365C11.4139 3.09225 11.4297 2.78276 11.5204 2.64279C11.611 2.50283 11.9146 2.35695 12.3799 2.15785C13.8938 1.50732 15.394 1.598 16.9651 2.43975C17.318 2.63688 17.4245 2.80838 17.3831 3.16125C17.3599 3.39972 17.3553 3.63962 17.3693 3.87881C17.3693 4.01877 17.3693 4.15085 17.3693 4.27307C17.3536 4.42019 17.3696 4.56896 17.4162 4.70939C17.4627 4.84981 17.5388 4.97864 17.6393 5.08723C17.7402 5.18209 17.8599 5.25465 17.9907 5.30016C18.1214 5.34567 18.2603 5.36313 18.3983 5.35138C19.0705 5.33758 19.7585 5.34152 20.4228 5.35138H21.1463L21.1384 9.08112Z" fill="#CCCCCC"/>
<path d="M10.3455 23.3199C10.1965 23.3449 10.0438 23.3375 9.89796 23.2983C9.75603 23.2293 9.65549 23.0637 9.53524 22.9395C9.66732 22.8074 9.77771 22.6201 9.92951 22.557C10.1101 22.5244 10.295 22.5244 10.4756 22.557H22.5854C22.7341 22.5319 22.8865 22.538 23.0329 22.5748C23.1751 22.6709 23.3009 22.7894 23.4054 22.9257C23.306 23.0678 23.185 23.1936 23.0467 23.2983C22.9017 23.3389 22.7497 23.3477 22.6011 23.3239L10.3455 23.3199Z" fill="#CCCCCC"/>
<path d="M10.0793 23.8147C9.94298 23.8188 9.8077 23.7897 9.68506 23.73C9.52388 23.6417 9.38395 23.5192 9.27503 23.3712C9.24743 23.3377 9.21983 23.3042 9.19223 23.2746V22.6181C9.22377 22.5866 9.25335 22.5492 9.28292 22.5137C9.40318 22.3452 9.56383 22.2096 9.75012 22.1194C9.94002 22.0537 10.1434 22.0368 10.3415 22.0701C10.3859 22.0763 10.4307 22.0796 10.4756 22.08H22.5854C22.6189 22.08 22.6504 22.08 22.6839 22.08C22.87 22.0525 23.0599 22.0757 23.2339 22.147C23.3954 22.233 23.5371 22.3519 23.6499 22.4959C23.6775 22.5275 23.707 22.559 23.7366 22.5886L23.7524 23.2431C23.7248 23.2746 23.6972 23.3081 23.6716 23.3416C23.564 23.4931 23.4256 23.62 23.2655 23.7142C23.0879 23.7973 22.8899 23.8268 22.6958 23.799H10.2489C10.1976 23.8009 10.1483 23.8147 10.0793 23.8147Z" fill="#CCCCCC"/>
<path d="M16.4388 15.9452H22.5223C22.6563 15.9452 22.814 15.8999 22.9165 15.959C23.0935 16.0796 23.258 16.2176 23.4074 16.371C23.2541 16.504 23.0921 16.6265 22.9225 16.7377C22.8436 16.7831 22.7253 16.7377 22.6248 16.7377C18.5363 16.7377 14.4471 16.7377 10.3573 16.7377C10.0438 16.7377 9.56876 16.8619 9.56876 16.3434C9.56876 15.825 10.0438 15.9492 10.3573 15.9492C12.3818 15.9393 14.4103 15.9452 16.4388 15.9452Z" fill="#CCCCCC"/>
<path d="M22.82 17.2325C22.7712 17.2318 22.7225 17.2285 22.6741 17.2227H20.3144C16.9973 17.2227 13.679 17.2227 10.3593 17.2227C10.3159 17.2198 10.2725 17.2198 10.2291 17.2227C9.98865 17.2345 9.63775 17.2562 9.35783 17.0019C9.19546 16.821 9.10565 16.5865 9.10565 16.3434C9.10565 16.1004 9.19546 15.8659 9.35783 15.685C9.62593 15.4327 9.98273 15.4583 10.2193 15.4741C10.2666 15.4741 10.3119 15.4741 10.3553 15.4741C11.8791 15.4642 13.4306 15.4741 14.9307 15.4741H22.6031C22.7904 15.4416 22.9831 15.4699 23.1531 15.5549C23.3138 15.653 23.4621 15.7701 23.5947 15.9038C23.6361 15.9433 23.6775 15.9827 23.7208 16.0202L23.7011 16.7476L23.573 16.852C23.4446 16.9628 23.3075 17.063 23.163 17.1517C23.0578 17.2086 22.9394 17.2365 22.82 17.2325Z" fill="#CCCCCC"/>
<path d="M16.494 29.8903H10.3612C10.2122 29.9144 10.0598 29.907 9.91374 29.8687C9.77478 29.7665 9.65243 29.6435 9.55101 29.504C9.6558 29.3639 9.77691 29.2369 9.91177 29.1255C9.99653 29.0683 10.1404 29.1097 10.2567 29.1097H22.8732C23.1511 29.1097 23.433 29.1787 23.3798 29.5237C23.3581 29.6715 23.0545 29.8726 22.8771 29.8765C21.1522 29.9022 19.4253 29.8923 17.7004 29.8923L16.494 29.8903Z" fill="#CCCCCC"/>
<path d="M10.0971 30.3733C9.96077 30.3769 9.8256 30.3478 9.70281 30.2886C9.54177 30.1983 9.40195 30.0746 9.29277 29.9258C9.26517 29.8923 9.23758 29.8588 9.20998 29.8292V29.1866L9.29671 29.0841C9.39917 28.9494 9.52147 28.8311 9.65944 28.7332C9.82253 28.6365 10.0146 28.6009 10.2015 28.6326H22.8673C23.0152 28.6174 23.1647 28.6354 23.3048 28.6852C23.445 28.7349 23.5723 28.8153 23.6775 28.9205C23.7556 29.0108 23.8121 29.1178 23.8429 29.2332C23.8736 29.3486 23.8777 29.4695 23.8549 29.5868C23.7898 30.0165 23.2359 30.3359 22.8929 30.3418C21.5425 30.3615 20.1705 30.3595 18.8458 30.3575H10.2745C10.2134 30.3694 10.1582 30.3733 10.0971 30.3733Z" fill="#CCCCCC"/>
<path d="M5.40336 29.502C5.40336 28.814 5.87451 28.3192 6.51913 28.333C6.816 28.3472 7.09591 28.4755 7.30049 28.6911C7.50507 28.9067 7.61851 29.1929 7.61715 29.4902C7.61715 30.1151 7.08687 30.7045 6.50139 30.7124C5.9159 30.7203 5.40139 30.1722 5.40336 29.502Z" fill="#CCCCCC"/>
<path d="M6.52504 27.8599C6.31995 27.854 6.11578 27.8896 5.92474 27.9644C5.7337 28.0393 5.55973 28.1519 5.41322 28.2955C5.25794 28.4488 5.13641 28.6327 5.05641 28.8357C4.97348 29.0473 4.93134 29.2727 4.93222 29.5C4.93033 29.7302 4.97414 29.9586 5.06111 30.1717C5.14807 30.3849 5.27646 30.5787 5.43885 30.7419C5.57616 30.8814 5.73966 30.9924 5.91997 31.0685C6.10028 31.1446 6.29385 31.1844 6.48956 31.1855H6.5073C6.7207 31.177 6.93015 31.1253 7.12296 31.0335C7.31578 30.9417 7.48793 30.8116 7.62898 30.6513C7.92393 30.3342 8.08802 29.9173 8.0883 29.4842C8.08665 29.0644 7.92328 28.6613 7.63215 28.3588C7.34101 28.0563 6.94451 27.8776 6.52504 27.8599ZM6.93311 30.0165C6.87893 30.0814 6.81228 30.1347 6.7371 30.1733C6.66192 30.2119 6.57975 30.235 6.49547 30.2412C6.42182 30.2404 6.34906 30.225 6.28139 30.1959C6.21372 30.1668 6.15248 30.1246 6.10121 30.0717C6.02729 29.9967 5.96915 29.9076 5.93021 29.8098C5.89128 29.7119 5.87234 29.6073 5.87451 29.502C5.87031 29.4043 5.88557 29.3068 5.91942 29.2151C5.95326 29.1234 6.00501 29.0393 6.07164 28.9678C6.12825 28.9137 6.19504 28.8713 6.26813 28.8432C6.34123 28.8152 6.41917 28.8019 6.49744 28.8041H6.50927C6.68356 28.8162 6.84657 28.8948 6.96467 29.0235C7.08278 29.1522 7.14698 29.3214 7.14404 29.4961C7.14128 29.6898 7.06602 29.8755 6.93311 30.0165Z" fill="#CCCCCC"/>
<path d="M6.5073 17.5361C5.88437 17.5361 5.40139 17.0216 5.40336 16.3533C5.39238 16.0571 5.49683 15.7683 5.69468 15.5476C5.89253 15.327 6.16833 15.1918 6.46393 15.1705C7.05533 15.1508 7.59941 15.6969 7.61715 16.3415C7.62077 16.645 7.50757 16.9382 7.30098 17.1606C7.0944 17.383 6.81024 17.5174 6.5073 17.5361Z" fill="#CCCCCC"/>
<path d="M7.54421 15.1114C7.39899 14.971 7.2273 14.8609 7.03914 14.7874C6.85097 14.714 6.65009 14.6787 6.44816 14.6836C6.02949 14.7085 5.63702 14.8956 5.354 15.2051C5.07098 15.5147 4.91968 15.9223 4.93222 16.3415C4.92721 16.5676 4.96754 16.7924 5.05083 17.0026C5.13412 17.2129 5.25868 17.4043 5.41716 17.5657C5.70088 17.8484 6.08507 18.0072 6.48561 18.0072H6.50927C6.71708 18.0021 6.92178 17.9555 7.11135 17.8702C7.30091 17.7849 7.47154 17.6626 7.61321 17.5105C7.76679 17.3512 7.88732 17.1632 7.96785 16.9571C8.04838 16.7511 8.0873 16.5311 8.08238 16.3099C8.06898 15.8549 7.87541 15.4238 7.54421 15.1114ZM6.49153 17.065C6.41615 17.0651 6.34149 17.0503 6.27181 17.0216C6.20213 16.9928 6.1388 16.9506 6.08544 16.8974C6.01519 16.8237 5.96035 16.7368 5.92413 16.6417C5.88791 16.5466 5.87104 16.4452 5.87451 16.3435C5.86131 16.1682 5.91727 15.9948 6.03039 15.8603C6.1435 15.7258 6.30479 15.6409 6.4797 15.6239H6.49744C6.64972 15.6282 6.79448 15.691 6.90156 15.7994C7.05093 15.9404 7.13934 16.1342 7.14798 16.3395C7.14972 16.5332 7.07457 16.7196 6.93902 16.858C6.82634 16.9822 6.66893 17.0567 6.50139 17.065H6.49153Z" fill="#CCCCCC"/>
<path d="M5.40336 22.9257C5.3962 22.7775 5.41831 22.6293 5.46844 22.4896C5.51856 22.3499 5.59571 22.2215 5.69548 22.1117C5.79526 22.0018 5.91569 21.9127 6.04992 21.8495C6.18414 21.7862 6.32951 21.75 6.47773 21.7429C6.79143 21.7429 7.09227 21.8675 7.31409 22.0893C7.5359 22.3111 7.66052 22.612 7.66052 22.9257C7.66052 23.2394 7.5359 23.5402 7.31409 23.762C7.09227 23.9839 6.79143 24.1085 6.47773 24.1085C6.17875 24.0931 5.89797 23.9602 5.69669 23.7386C5.4954 23.517 5.38995 23.2247 5.40336 22.9257Z" fill="#CCCCCC"/>
<path d="M7.58561 21.7449C7.43892 21.5957 7.26403 21.4773 7.07113 21.3964C6.87822 21.3155 6.67114 21.2738 6.46196 21.2737C6.04449 21.3047 5.65407 21.492 5.36876 21.7984C5.08345 22.1047 4.92426 22.5074 4.92301 22.926C4.92177 23.3447 5.07856 23.7483 5.36204 24.0564C5.64553 24.3644 6.03482 24.5541 6.4521 24.5875H6.48365C6.88695 24.5839 7.27301 24.4234 7.55998 24.14C7.72133 23.9839 7.85034 23.7975 7.93963 23.5915C8.02893 23.3855 8.07677 23.164 8.08041 22.9395C8.08217 22.7174 8.03928 22.4972 7.95428 22.2919C7.86928 22.0867 7.74391 21.9007 7.58561 21.7449ZM6.90551 23.4619C6.79014 23.5768 6.63467 23.6426 6.47182 23.6452C6.29814 23.6296 6.13749 23.5466 6.02435 23.4139C5.9112 23.2812 5.85458 23.1095 5.86662 22.9355C5.85408 22.7606 5.911 22.5878 6.02503 22.4546C6.13906 22.3214 6.30101 22.2385 6.47576 22.2239C6.64172 22.2302 6.79869 22.3009 6.91339 22.421C6.98229 22.4887 7.03711 22.5694 7.07466 22.6584C7.11222 22.7473 7.13178 22.8429 7.13221 22.9395C7.12961 23.1354 7.05118 23.3226 6.91339 23.4619H6.90551Z" fill="#CCCCCC"/>
<path d="M26.2481 33.8685L33.0728 27.7574L30.4529 24.826L23.6302 30.9371L26.2481 33.8685Z" fill="#CCCCCC"/>
<path d="M25.2762 34.8265L22.6228 31.8695C22.1891 32.2894 21.6766 32.5832 21.5445 33.2495C21.4124 33.9158 21.1818 34.5229 20.9985 35.1597C20.8151 35.7964 21.1226 36.1217 21.7554 36.0211C22.5124 35.8989 23.2852 35.8398 24.0165 35.6269C24.4561 35.4869 24.8268 35.1183 25.2762 34.8265Z" fill="#CCCCCC"/>
<path d="M31.4385 23.9094L34.0565 26.8111C34.5335 26.3853 34.9948 25.9911 35.4364 25.5771C35.4904 25.5285 35.534 25.4694 35.5645 25.4035C35.595 25.3375 35.6118 25.266 35.6138 25.1934C35.6158 25.1208 35.6031 25.0485 35.5763 24.9809C35.5495 24.9133 35.5093 24.8519 35.4581 24.8004C34.8535 24.1117 34.2391 23.4316 33.6149 22.7601C33.5657 22.703 33.5057 22.6564 33.4382 22.623C33.3708 22.5895 33.2973 22.5699 33.2221 22.5653C33.147 22.5607 33.0717 22.5712 33.0007 22.5962C32.9296 22.6212 32.8643 22.6602 32.8086 22.7108C32.7258 22.7719 32.6509 22.8429 32.574 22.9079C32.2093 23.2352 31.8328 23.5604 31.4385 23.9094Z" fill="#CCCCCC"/>
</svg>
