<svg width="41" height="45" viewBox="0 0 41 45" fill="none" xmlns="http://www.w3.org/2000/svg">
<path d="M32.3456 26.8169V26.5796C32.3456 20.9333 32.3456 15.2862 32.3456 9.63837C32.3456 8.00168 31.5472 7.16782 29.9704 7.15895H25.668V6.88616C25.668 6.4027 25.668 5.93476 25.668 5.46682C25.668 4.37791 25.3753 4.08073 24.3374 4.08073C23.3749 4.08073 22.4146 4.08073 21.41 4.08073C21.41 3.81461 21.41 3.56179 21.41 3.32227C21.4454 2.95151 21.3795 2.57808 21.2194 2.24181C21.0593 1.90553 20.8109 1.61902 20.5007 1.4128C17.764 -0.487793 14.5128 -0.470051 11.8028 1.46159C11.522 1.6541 11.2974 1.91779 11.152 2.22564C11.0067 2.5335 10.9458 2.87446 10.9756 3.2136C10.9933 3.49303 10.9911 3.77912 10.9866 4.08073H10.3635C9.50963 4.08073 8.70238 4.08073 7.88625 4.08073C7.72255 4.06479 7.55733 4.08318 7.40114 4.13473C7.24496 4.18628 7.10124 4.26987 6.9792 4.38013C6.86479 4.50823 6.77844 4.65886 6.72574 4.82234C6.67303 4.98581 6.65512 5.15851 6.67315 5.32932C6.68646 5.8527 6.67315 6.3783 6.67315 6.93495C6.67315 7.01036 6.67315 7.08576 6.67315 7.15673H2.34414C1.27741 7.15673 0.00221773 7.60028 0 9.61398C0 20.5962 0 31.5806 0 42.5673C0 43.6761 0.40141 44.9824 2.30644 44.9868H30.0281C31.5805 44.9868 32.3523 44.1552 32.3523 42.5273V37.4798L30.4783 39.1586V42.5429C30.4914 42.704 30.4757 42.8663 30.4317 43.0219C30.3079 43.065 30.1762 43.0802 30.0458 43.0662C28.5267 43.0662 27.0031 43.0662 25.4884 43.0662H4.96107C4.07397 43.0662 3.18688 43.0662 2.29979 43.0662C2.20016 43.0681 2.1006 43.0599 2.00261 43.0419C1.97837 43.0381 1.95504 43.0298 1.93386 43.0175C1.93386 43.0175 1.8762 42.9421 1.8762 42.5739C1.8762 31.5695 1.8762 20.5651 1.8762 9.56075C1.87276 9.4425 1.88243 9.32424 1.90503 9.20813C1.90884 9.17838 1.91865 9.14971 1.93386 9.12386C1.99985 9.09691 2.07136 9.08626 2.14233 9.09281C3.30664 9.07285 4.49313 9.0795 5.63969 9.09281H6.67537C6.67537 9.66055 6.67537 10.2394 6.67537 10.816C6.67537 11.8761 6.96811 12.1821 7.97718 12.1821H22.3791C23.0711 12.1821 23.7896 12.1821 24.4904 12.1821C24.6495 12.1919 24.8089 12.1695 24.959 12.1161C25.1092 12.0628 25.247 11.9796 25.3642 11.8716C25.4766 11.7477 25.5617 11.6015 25.614 11.4426C25.6664 11.2837 25.6848 11.1155 25.668 10.9491C25.668 10.4234 25.668 9.90229 25.668 9.35229V9.0795H26.0916C27.3956 9.0795 28.7529 9.06842 30.0702 9.0795C30.1865 9.06921 30.3036 9.08356 30.414 9.12164C30.414 9.12164 30.4716 9.21035 30.4716 9.58293V28.4869L32.3456 26.8169ZM23.7785 10.2039H8.58484V5.99021H11.082C12.6078 5.99021 12.8385 5.74625 12.8385 4.13174C12.8385 3.46643 12.8562 3.11824 12.9582 2.96078C13.0602 2.80332 13.4018 2.63921 13.9251 2.41522C15.6284 1.68337 17.3161 1.78538 19.0836 2.73236C19.4806 2.95413 19.6003 3.14707 19.5537 3.54405C19.5277 3.81233 19.5225 4.08222 19.5382 4.3513C19.5382 4.50876 19.5382 4.65735 19.5382 4.79484C19.5206 4.96035 19.5386 5.12772 19.591 5.2857C19.6434 5.44368 19.729 5.58861 19.842 5.71077C19.9555 5.8175 20.0902 5.89912 20.2373 5.95032C20.3844 6.00152 20.5407 6.02116 20.6959 6.00794C21.4521 5.99242 22.2261 5.99686 22.9735 6.00794H23.7874L23.7785 10.2039Z" fill="white"/>
<path d="M11.6364 26.2226C11.4688 26.2507 11.2971 26.2423 11.133 26.1982C10.9733 26.1206 10.8602 25.9343 10.725 25.7945C10.8735 25.646 10.9977 25.4353 11.1685 25.3643C11.3716 25.3276 11.5797 25.3276 11.7828 25.3643H25.4063C25.5737 25.336 25.7451 25.3428 25.9098 25.3843C26.0698 25.4924 26.2114 25.6257 26.3289 25.779C26.2171 25.9389 26.0809 26.0804 25.9253 26.1982C25.7623 26.2439 25.5913 26.2537 25.4241 26.227L11.6364 26.2226Z" fill="white"/>
<path d="M11.337 26.7792C11.1837 26.7838 11.0315 26.751 10.8935 26.6839C10.7122 26.5845 10.5547 26.4468 10.4322 26.2802C10.4012 26.2425 10.3701 26.2048 10.3391 26.1716V25.4331C10.3745 25.3976 10.4078 25.3554 10.4411 25.3155C10.5764 25.126 10.7571 24.9735 10.9667 24.872C11.1803 24.7981 11.4091 24.779 11.632 24.8165C11.682 24.8235 11.7324 24.8272 11.7828 24.8276H25.4063C25.444 24.8276 25.4795 24.8276 25.5172 24.8276C25.7265 24.7967 25.9402 24.8228 26.136 24.903C26.3176 24.9998 26.477 25.1335 26.6039 25.2956C26.635 25.331 26.6682 25.3665 26.7015 25.3998L26.7192 26.1361C26.6882 26.1716 26.6571 26.2093 26.6283 26.247C26.5073 26.4173 26.3516 26.5602 26.1715 26.6661C25.9716 26.7596 25.7489 26.7928 25.5305 26.7615H11.5278C11.4701 26.7637 11.4147 26.7792 11.337 26.7792Z" fill="white"/>
<path d="M18.4915 17.926H25.3354C25.4862 17.926 25.6636 17.875 25.7789 17.9416C25.978 18.0772 26.163 18.2325 26.3311 18.4051C26.1587 18.5546 25.9764 18.6924 25.7856 18.8176C25.6969 18.8686 25.5638 18.8176 25.4507 18.8176C20.8511 18.8176 16.2508 18.8176 11.6497 18.8176C11.2971 18.8176 10.7627 18.9573 10.7627 18.374C10.7627 17.7908 11.2971 17.9305 11.6497 17.9305C13.9274 17.9194 16.2094 17.926 18.4915 17.926Z" fill="white"/>
<path d="M25.6702 19.3742C25.6154 19.3734 25.5606 19.3697 25.5061 19.3631H22.8515C19.1198 19.3631 15.3866 19.3631 11.652 19.3631C11.6032 19.3599 11.5543 19.3599 11.5056 19.3631C11.235 19.3764 10.8403 19.4008 10.5254 19.1147C10.3427 18.9113 10.2417 18.6475 10.2417 18.374C10.2417 18.1006 10.3427 17.8368 10.5254 17.6333C10.827 17.3494 11.2284 17.3783 11.4945 17.396C11.5477 17.396 11.5987 17.396 11.6475 17.396C13.3618 17.3849 15.1072 17.396 16.7949 17.396H25.4263C25.637 17.3594 25.8538 17.3913 26.045 17.4869C26.2259 17.5972 26.3927 17.729 26.5418 17.8795C26.5884 17.9238 26.635 17.9682 26.6838 18.0103L26.6616 18.8287L26.5174 18.9462C26.373 19.0708 26.2187 19.1835 26.0561 19.2833C25.9378 19.3473 25.8047 19.3787 25.6702 19.3742Z" fill="white"/>
<path d="M18.5535 33.6143H11.6542C11.4865 33.6413 11.315 33.633 11.1508 33.5899C10.9944 33.4749 10.8568 33.3365 10.7427 33.1796C10.8606 33.022 10.9968 32.8791 11.1485 32.7538C11.2439 32.6895 11.4058 32.736 11.5366 32.736H25.7301C26.0428 32.736 26.36 32.8137 26.3001 33.2018C26.2757 33.3681 25.9342 33.5943 25.7346 33.5987C23.7941 33.6276 21.8513 33.6165 19.9108 33.6165L18.5535 33.6143Z" fill="white"/>
<path d="M11.357 34.1576C11.2037 34.1616 11.0516 34.1289 10.9135 34.0623C10.7323 33.9608 10.575 33.8216 10.4522 33.6542C10.4211 33.6165 10.3901 33.5788 10.359 33.5455V32.8225L10.4566 32.7072C10.5719 32.5557 10.7095 32.4226 10.8647 32.3125C11.0482 32.2037 11.2643 32.1636 11.4745 32.1994H25.7235C25.8899 32.1823 26.0581 32.2024 26.2157 32.2585C26.3734 32.3145 26.5166 32.4049 26.635 32.5231C26.7228 32.6248 26.7865 32.7451 26.821 32.875C26.8556 33.0048 26.8602 33.1409 26.8346 33.2728C26.7614 33.7562 26.1382 34.1155 25.7523 34.1221C24.2332 34.1443 22.6896 34.1421 21.1993 34.1399H11.5566C11.4879 34.1532 11.4258 34.1576 11.357 34.1576Z" fill="white"/>
<path d="M6.07658 33.1774C6.07658 32.4034 6.60662 31.8467 7.33182 31.8623C7.6658 31.8783 7.9807 32.0226 8.21085 32.2651C8.441 32.5077 8.56863 32.8297 8.5671 33.1641C8.5671 33.8671 7.97053 34.5302 7.31186 34.5391C6.6532 34.5479 6.07437 33.9314 6.07658 33.1774Z" fill="white"/>
<path d="M7.33848 31.33C7.10774 31.3234 6.87805 31.3634 6.66314 31.4476C6.44822 31.5318 6.2525 31.6585 6.08768 31.8201C5.91299 31.9925 5.77626 32.1995 5.68627 32.4278C5.59297 32.6659 5.54556 32.9195 5.54655 33.1752C5.54443 33.4342 5.59371 33.691 5.69155 33.9308C5.78938 34.1707 5.93382 34.3887 6.11651 34.5723C6.27098 34.7292 6.45492 34.8541 6.65777 34.9397C6.86062 35.0253 7.07838 35.0701 7.29856 35.0713H7.31852C7.55859 35.0618 7.79423 35.0036 8.01114 34.9003C8.22805 34.797 8.42172 34.6507 8.58041 34.4703C8.91223 34.1136 9.09682 33.6446 9.09714 33.1574C9.09528 32.6851 8.91149 32.2317 8.58397 31.8913C8.25644 31.551 7.81038 31.35 7.33848 31.33ZM7.79755 33.7562C7.7366 33.8292 7.66162 33.8892 7.57704 33.9326C7.49247 33.976 7.40003 34.002 7.30521 34.009C7.22235 34.0081 7.14049 33.9907 7.06436 33.958C6.98823 33.9253 6.91934 33.8778 6.86166 33.8183C6.77851 33.7339 6.7131 33.6337 6.6693 33.5236C6.62549 33.4136 6.60419 33.2958 6.60663 33.1774C6.6019 33.0675 6.61907 32.9578 6.65715 32.8546C6.69522 32.7514 6.75343 32.6568 6.8284 32.5764C6.89208 32.5155 6.96722 32.4679 7.04945 32.4363C7.13168 32.4047 7.21937 32.3897 7.30743 32.3923H7.32073C7.51681 32.4059 7.70019 32.4942 7.83306 32.6391C7.96593 32.7839 8.03816 32.9742 8.03484 33.1707C8.03175 33.3887 7.94708 33.5976 7.79755 33.7562Z" fill="white"/>
<path d="M7.31852 19.7157C6.61771 19.7157 6.07437 19.1369 6.07659 18.3851C6.06423 18.0519 6.18173 17.727 6.40432 17.4787C6.6269 17.2305 6.93717 17.0784 7.26973 17.0545C7.93505 17.0323 8.54714 17.6466 8.5671 18.3718C8.57116 18.7132 8.44382 19.0432 8.21141 19.2933C7.979 19.5435 7.65932 19.6947 7.31852 19.7157Z" fill="white"/>
<path d="M8.48504 16.9879C8.32166 16.83 8.12852 16.7061 7.91683 16.6235C7.70515 16.5409 7.47915 16.5012 7.25198 16.5067C6.78098 16.5347 6.33945 16.7452 6.02105 17.0934C5.70265 17.4416 5.53244 17.9002 5.54655 18.3718C5.54091 18.6262 5.58628 18.8791 5.67998 19.1156C5.77368 19.3521 5.91382 19.5675 6.09211 19.749C6.41129 20.0671 6.84351 20.2457 7.29412 20.2458H7.32073C7.55452 20.24 7.7848 20.1876 7.99807 20.0916C8.21133 19.9957 8.40328 19.8581 8.56266 19.6869C8.73544 19.5078 8.87104 19.2962 8.96163 19.0644C9.05223 18.8326 9.09602 18.5851 9.09048 18.3363C9.07541 17.8244 8.85763 17.3394 8.48504 16.9879ZM7.30077 19.1857C7.21597 19.1858 7.13197 19.1693 7.05359 19.1369C6.9752 19.1046 6.90395 19.0571 6.84392 18.9972C6.76489 18.9143 6.7032 18.8165 6.66245 18.7095C6.6217 18.6025 6.60273 18.4885 6.60662 18.374C6.59178 18.1769 6.65473 17.9818 6.78199 17.8305C6.90925 17.6792 7.09069 17.5837 7.28747 17.5646H7.30743C7.47873 17.5693 7.64159 17.64 7.76206 17.7619C7.9301 17.9206 8.02956 18.1387 8.03928 18.3696C8.04124 18.5875 7.9567 18.7972 7.8042 18.9528C7.67744 19.0927 7.50035 19.1764 7.31186 19.1857H7.30077Z" fill="white"/>
<path d="M6.07658 25.779C6.06853 25.6123 6.09341 25.4456 6.1498 25.2885C6.20618 25.1313 6.29298 24.9869 6.40522 24.8633C6.51747 24.7397 6.65296 24.6395 6.80396 24.5683C6.95496 24.4971 7.1185 24.4563 7.28525 24.4484C7.63816 24.4484 7.97661 24.5886 8.22615 24.8381C8.47569 25.0877 8.61589 25.4261 8.61589 25.779C8.61589 26.1319 8.47569 26.4704 8.22615 26.7199C7.97661 26.9695 7.63816 27.1097 7.28525 27.1097C6.9489 27.0924 6.63302 26.9428 6.40658 26.6935C6.18013 26.4442 6.0615 26.1155 6.07658 25.779Z" fill="white"/>
<path d="M8.53162 24.4506C8.36659 24.2828 8.16984 24.1496 7.95282 24.0586C7.7358 23.9676 7.50284 23.9207 7.26751 23.9206C6.79785 23.9554 6.35864 24.1662 6.03766 24.5108C5.71668 24.8554 5.53759 25.3085 5.53619 25.7794C5.53479 26.2504 5.71118 26.7045 6.0301 27.051C6.34902 27.3976 6.78698 27.611 7.25642 27.6486H7.29191C7.74563 27.6445 8.17994 27.464 8.50278 27.1451C8.6843 26.9695 8.82943 26.7598 8.92989 26.5281C9.03035 26.2964 9.08417 26.0471 9.08827 25.7945C9.09024 25.5447 9.04199 25.2969 8.94637 25.0661C8.85074 24.8352 8.7097 24.6259 8.53162 24.4506ZM7.7665 26.3822C7.63671 26.5116 7.46181 26.5855 7.2786 26.5885C7.08321 26.571 6.90248 26.4776 6.77519 26.3283C6.6479 26.179 6.5842 25.9858 6.59775 25.7901C6.58365 25.5933 6.64768 25.3989 6.77596 25.2491C6.90425 25.0992 7.08644 25.0059 7.28303 24.9895C7.46974 24.9966 7.64633 25.0762 7.77537 25.2113C7.85288 25.2874 7.91455 25.3782 7.9568 25.4783C7.99905 25.5784 8.02105 25.6859 8.02154 25.7945C8.01862 26.0149 7.93038 26.2256 7.77537 26.3822H7.7665Z" fill="white"/>
<path d="M29.5269 38.0897L37.2047 31.2147L34.2573 27.9169L26.5817 34.7919L29.5269 38.0897Z" fill="white"/>
<path d="M28.4335 39.1675L25.4485 35.8409C24.9606 36.3132 24.384 36.6437 24.2354 37.3933C24.0868 38.1429 23.8273 38.8259 23.6211 39.5423C23.4148 40.2586 23.7608 40.6245 24.4727 40.5114C25.3243 40.3739 26.1936 40.3074 27.0164 40.0679C27.511 39.9104 27.9279 39.4957 28.4335 39.1675Z" fill="white"/>
<path d="M35.3662 26.8857L38.3113 30.1502C38.848 29.6711 39.367 29.2276 39.8637 28.7619C39.9245 28.7072 39.9736 28.6407 40.0079 28.5665C40.0422 28.4923 40.061 28.4119 40.0633 28.3302C40.0656 28.2485 40.0513 28.1672 40.0211 28.0912C39.991 28.0151 39.9458 27.9461 39.8881 27.8881C39.208 27.1134 38.5168 26.3482 37.8145 25.5927C37.7593 25.5286 37.6917 25.4761 37.6158 25.4385C37.5399 25.4009 37.4573 25.3788 37.3727 25.3736C37.2882 25.3685 37.2035 25.3803 37.1236 25.4084C37.0436 25.4365 36.9702 25.4803 36.9075 25.5373C36.8144 25.606 36.7301 25.6859 36.6436 25.7591C36.2333 26.1272 35.8097 26.4931 35.3662 26.8857Z" fill="white"/>
</svg>
