<svg width="29" height="40" viewBox="0 0 29 40" fill="none" xmlns="http://www.w3.org/2000/svg">
<path d="M28.7615 8.56768C28.7615 7.11088 28.0518 6.36966 26.6483 6.36375C25.9097 6.36375 25.1698 6.36375 24.4286 6.36375H22.82V4.85766C22.82 3.88975 22.5578 3.62756 21.6372 3.62756C20.7816 3.62756 19.928 3.62756 19.0331 3.62756C19.0331 3.391 19.0331 3.16627 19.0331 2.9514C19.0655 2.62222 19.0075 2.29043 18.8655 1.99172C18.7234 1.69301 18.5026 1.43867 18.2268 1.25607C15.7942 -0.433353 12.9042 -0.417583 10.4953 1.29746C10.2458 1.46918 10.0464 1.70396 9.9172 1.97788C9.78804 2.2518 9.73379 2.55506 9.75999 2.85677C9.77576 3.10516 9.77182 3.35946 9.76985 3.62756H9.21788C8.45695 3.62756 7.7394 3.62756 7.01592 3.62756C6.86974 3.61518 6.72258 3.63333 6.58378 3.68084C6.44499 3.72835 6.31758 3.80418 6.20965 3.90354C6.10815 4.01755 6.03154 4.15146 5.9847 4.29673C5.93786 4.44201 5.92182 4.59545 5.93761 4.74727C5.95141 5.2125 5.94943 5.6797 5.93761 6.1745V6.37163H4.56754C3.73959 6.37163 2.91164 6.37163 2.08368 6.37163C1.13548 6.37163 0.00197132 6.7659 0 8.55585C0 18.3178 0 28.0811 0 37.8457C0 38.8313 0.356815 39.9925 2.05215 39.9984H26.6956C28.0755 39.9984 28.7615 39.2591 28.7615 37.8122V20.1492C28.7655 16.2933 28.7655 12.4328 28.7615 8.56768ZM7.64083 5.32881H9.85856C11.2168 5.32881 11.4218 5.11196 11.4218 3.67684C11.4218 3.08545 11.4356 2.77595 11.5283 2.63402C11.6209 2.49208 11.9225 2.35015 12.3878 2.15104C13.9017 1.49854 15.4019 1.58922 16.973 2.43294C17.3259 2.61825 17.4304 2.80158 17.389 3.15444C17.3678 3.39236 17.3632 3.63147 17.3752 3.87003C17.3752 4.00999 17.3752 4.14404 17.3752 4.26429C17.361 4.40646 17.3767 4.55002 17.4211 4.6858C17.4656 4.82157 17.5379 4.94658 17.6334 5.05282C17.7343 5.14769 17.854 5.22025 17.9848 5.26576C18.1155 5.31127 18.2544 5.32873 18.3924 5.31698C19.0666 5.30515 19.7526 5.30712 20.4169 5.31698H21.1424V9.06248H7.64083V5.32881ZM27.0958 37.824C27.1071 37.9673 27.0931 38.1114 27.0544 38.2498C26.9437 38.2884 26.8259 38.3019 26.7094 38.2892C25.361 38.2892 24.0067 38.2892 22.6603 38.2892H4.41969C3.63116 38.2892 2.84264 38.2892 2.05411 38.2892C1.96624 38.2899 1.8785 38.2826 1.79193 38.2675C1.77003 38.2632 1.74882 38.2559 1.72885 38.2459C1.72885 38.2459 1.67957 38.1769 1.67957 37.8516C1.67957 28.0699 1.67957 18.2889 1.67957 8.50854C1.67654 8.40278 1.68513 8.29701 1.70519 8.19313C1.70909 8.1677 1.71708 8.14307 1.72885 8.12019C1.78762 8.09668 1.85108 8.08722 1.91415 8.09259C2.94909 8.07485 4.00571 8.07879 5.02489 8.09259H5.9455C5.9455 8.59725 5.9455 9.10979 5.9455 9.62234C5.9455 10.5646 6.20374 10.8386 7.10069 10.8386H19.9024C20.5194 10.8386 21.1562 10.8386 21.7811 10.8386C21.9224 10.8481 22.0641 10.8287 22.1976 10.7816C22.3312 10.7344 22.4537 10.6606 22.5578 10.5646C22.6573 10.4542 22.7327 10.3242 22.7792 10.183C22.8257 10.0418 22.8422 9.89251 22.8279 9.74456C22.8279 9.27736 22.8279 8.81213 22.8279 8.32521V8.08076H23.2044C24.3635 8.08076 25.5601 8.08076 26.7409 8.08076C26.8442 8.07346 26.948 8.08618 27.0465 8.11822C27.0958 8.24959 27.1134 8.39077 27.0977 8.53022L27.0958 37.824Z" fill="#F05CAC"/>
<path d="M22.8476 32.8504V9.69725H5.92578V15.1677C5.92578 21.1039 5.92578 27.0396 5.92578 32.9746C5.90912 33.0962 5.93073 33.22 5.9876 33.3288C6.04447 33.4376 6.13378 33.526 6.24316 33.5817C6.49943 33.7059 6.7143 33.5995 6.90946 33.426L7.92469 32.535L8.68759 31.8706C9.13508 32.3713 9.56878 32.8563 9.99852 33.3412C10.3277 33.7118 10.6707 33.7355 11.0157 33.3787C11.477 32.9115 11.9324 32.4384 12.3956 31.9672C12.441 31.9199 12.4922 31.8805 12.5455 31.8332L12.7426 32.054C13.1369 32.4995 13.5311 32.947 13.9254 33.3885C14.225 33.7217 14.5463 33.7177 14.846 33.3885L14.9505 33.2683L16.2614 31.7977C16.3264 31.8825 16.3718 31.9534 16.429 32.0145C16.8561 32.4719 17.2858 32.9279 17.7182 33.3826C17.7761 33.459 17.8512 33.5207 17.9373 33.5628C18.0234 33.605 18.1182 33.6263 18.214 33.6251C18.3099 33.624 18.4041 33.6004 18.4892 33.5562C18.5742 33.512 18.6478 33.4485 18.7039 33.3708C19.0902 32.9371 19.4753 32.5021 19.859 32.0658C19.9182 32.0007 19.9793 31.9377 20.0443 31.8687C20.687 32.4187 21.3099 32.947 21.927 33.4832C22.0081 33.5596 22.1106 33.6096 22.2208 33.6265C22.3309 33.6434 22.4437 33.6264 22.544 33.5778C22.6363 33.5381 22.7143 33.4711 22.7675 33.3859C22.8207 33.3006 22.8466 33.2011 22.8416 33.1007C22.8495 33.0179 22.8476 32.9351 22.8476 32.8504ZM21.7003 31.843C21.6175 31.7701 21.5564 31.7208 21.5031 31.6676C21.1384 31.3423 20.7757 31.0131 20.4071 30.6918C20.1074 30.4296 19.8157 30.4532 19.5495 30.7529L18.1953 32.2767L17.3535 31.3916C17.1229 31.1491 16.8922 30.9027 16.6596 30.6602C16.3639 30.3527 16.0682 30.3567 15.7784 30.674C15.3211 31.1866 14.8637 31.7011 14.3985 32.2314L13.1033 30.8239C13.0482 30.7608 12.991 30.6977 12.9318 30.6385C12.885 30.5787 12.8252 30.5303 12.7569 30.4971C12.6885 30.4638 12.6136 30.4465 12.5376 30.4465C12.4616 30.4465 12.3866 30.4638 12.3183 30.4971C12.25 30.5303 12.1902 30.5787 12.1433 30.6385C11.6702 31.1182 11.2004 31.5992 10.7338 32.0816C10.6767 32.1427 10.6274 32.2117 10.5623 32.2905C10.1267 31.7839 9.72056 31.3049 9.31052 30.8357C8.9478 30.4178 8.65802 30.3961 8.24405 30.7647C7.83007 31.1334 7.45552 31.4626 7.0376 31.8411V10.8012H21.7062L21.7003 31.843Z" fill="#F05CAC"/>
<path d="M13.4542 26.5067C13.5607 26.516 13.663 26.5521 13.7516 26.6118C13.8402 26.6714 13.9122 26.7526 13.9609 26.8477C13.9815 26.8998 14.0122 26.9473 14.0513 26.9875C14.0903 27.0277 14.1369 27.0598 14.1883 27.0819C14.2398 27.1041 14.2951 27.1159 14.3511 27.1166C14.4072 27.1174 14.4628 27.107 14.5148 27.0862C14.6324 27.0492 14.733 26.9715 14.7987 26.8672C14.8645 26.7629 14.891 26.6386 14.8736 26.5165C14.844 26.2701 14.6765 26.1715 14.4576 26.1223C14.2388 26.073 14.0851 26.0434 13.8998 25.9961C13.3399 25.8463 12.9141 25.5585 12.8017 24.9375C12.6795 24.2337 12.8017 23.6147 13.405 23.1633C13.4335 23.1381 13.4653 23.1168 13.4996 23.1002C13.6081 23.0664 13.7002 22.9933 13.7578 22.8953C13.8153 22.7972 13.8343 22.6812 13.8111 22.5699C13.8029 22.4428 13.8388 22.3166 13.9128 22.2129C13.9868 22.1091 14.0942 22.034 14.2171 22.0002C14.2973 21.9712 14.3834 21.9624 14.4678 21.9747C14.5522 21.987 14.6322 22.02 14.7007 22.0707C14.7693 22.1215 14.8241 22.1884 14.8605 22.2656C14.8968 22.3427 14.9135 22.4276 14.9091 22.5128C14.8972 22.844 15.0589 22.9741 15.3033 23.1436C15.516 23.3128 15.6929 23.5225 15.8238 23.7606C15.8887 23.8847 15.9027 24.0292 15.8629 24.1634C15.823 24.2976 15.7324 24.411 15.6102 24.4795C15.4881 24.5481 15.3441 24.5663 15.2088 24.5303C15.0734 24.4943 14.9574 24.4071 14.8854 24.287C14.8354 24.1764 14.7504 24.0854 14.6435 24.0281C14.5366 23.9707 14.4138 23.9501 14.294 23.9696C14.1892 23.9917 14.0933 24.0443 14.0182 24.1208C13.9432 24.1972 13.8924 24.2941 13.8722 24.3993C13.8519 24.5026 13.8721 24.6098 13.9286 24.6986C13.9851 24.7874 14.0736 24.851 14.1758 24.8764C14.3887 24.9572 14.6114 25.0104 14.8322 25.0735C15.4236 25.2391 15.8928 25.5309 15.9953 26.211C16.1076 26.9443 15.9105 27.5515 15.2619 27.9457C15.1531 27.9915 15.0621 28.0715 15.0027 28.1736C14.9434 28.2756 14.9188 28.3942 14.9327 28.5115C14.9418 28.5842 14.9348 28.6581 14.9122 28.7278C14.8896 28.7975 14.8519 28.8614 14.8019 28.915C14.7519 28.9686 14.6907 29.0105 14.6227 29.0379C14.5547 29.0653 14.4816 29.0773 14.4084 29.0733C14.3308 29.0818 14.2524 29.0733 14.1785 29.0482C14.1046 29.0232 14.0371 28.9822 13.9808 28.9283C13.9244 28.8744 13.8805 28.8088 13.8522 28.7361C13.8239 28.6634 13.8119 28.5854 13.817 28.5076C13.8298 28.3944 13.8069 28.2802 13.7513 28.1808C13.6958 28.0814 13.6105 28.002 13.5075 27.9536C13.2703 27.7888 13.0691 27.5775 12.9161 27.3327C12.8623 27.2446 12.8345 27.1432 12.836 27.04C12.8375 26.9369 12.8682 26.8363 12.9245 26.7498C12.9808 26.6634 13.0605 26.5947 13.1542 26.5517C13.248 26.5086 13.352 26.493 13.4542 26.5067Z" fill="#F05CAC"/>
<path d="M14.3118 19.8298C12.6927 19.8298 11.0735 19.8298 9.45444 19.8298C9.35178 19.8402 9.2482 19.8228 9.15456 19.7795C9.06093 19.7361 8.98067 19.6684 8.92218 19.5834C8.86115 19.5015 8.82377 19.4044 8.81412 19.3028C8.80447 19.2011 8.82291 19.0987 8.86744 19.0068C8.91198 18.9149 8.98089 18.8369 9.06667 18.7815C9.15245 18.7261 9.2518 18.6952 9.3539 18.6924C9.42092 18.6924 9.48992 18.6924 9.55103 18.6924H19.0823C19.1435 18.6924 19.2046 18.6924 19.2657 18.6924C19.3385 18.6915 19.4108 18.7055 19.4781 18.7334C19.5454 18.7613 19.6064 18.8026 19.6572 18.8548C19.7081 18.9069 19.7479 18.9689 19.7741 19.0369C19.8003 19.1048 19.8124 19.1774 19.8098 19.2502C19.812 19.327 19.7984 19.4035 19.7699 19.4748C19.7414 19.5461 19.6986 19.6109 19.6441 19.665C19.5896 19.7191 19.5246 19.7615 19.453 19.7895C19.3815 19.8175 19.305 19.8306 19.2282 19.8278H14.2999L14.3118 19.8298Z" fill="#F05CAC"/>
<path d="M14.434 12.6779H19.2223C19.66 12.6779 19.9497 12.8987 19.9517 13.2318C19.9537 13.565 19.66 13.8232 19.2203 13.8232H9.62398C9.50879 13.8399 9.39125 13.8223 9.28605 13.7725C9.18085 13.7227 9.09267 13.643 9.03258 13.5433C8.97725 13.4553 8.9474 13.3538 8.94634 13.2499C8.94528 13.146 8.97305 13.0438 9.02657 12.9547C9.08009 12.8657 9.15725 12.7932 9.24949 12.7454C9.34174 12.6975 9.44544 12.6762 9.54907 12.6838L14.434 12.6779Z" fill="#F05CAC"/>
<path d="M14.3827 15.7117C15.9874 15.7117 17.592 15.7117 19.1967 15.7117C19.5693 15.7117 19.7625 15.834 19.8393 16.106C19.8616 16.1757 19.8688 16.2492 19.8606 16.3219C19.8523 16.3945 19.8288 16.4646 19.7916 16.5275C19.7544 16.5905 19.7042 16.6448 19.6445 16.687C19.5848 16.7292 19.5168 16.7582 19.4451 16.7723C19.3485 16.7924 19.25 16.8017 19.1514 16.7999H9.57271C9.46638 16.8014 9.36033 16.7888 9.25731 16.7624C9.14901 16.7339 9.05253 16.6718 8.9817 16.585C8.91088 16.4983 8.86934 16.3913 8.86305 16.2795C8.85497 16.1717 8.88213 16.0642 8.94044 15.9732C8.99874 15.8822 9.08505 15.8125 9.18635 15.7748C9.3077 15.7312 9.43591 15.7099 9.56483 15.7117C11.1734 15.7091 12.7794 15.7091 14.3827 15.7117Z" fill="#F05CAC"/>
</svg>
