<svg width="30" height="41" viewBox="0 0 30 41" fill="none" xmlns="http://www.w3.org/2000/svg">
<path d="M29.7518 8.57525C29.7518 7.11845 29.0421 6.37723 27.6385 6.37132C26.8999 6.37132 26.16 6.37132 25.4188 6.37132H23.8102V4.86523C23.8102 3.89731 23.548 3.63513 22.6274 3.63513C21.7719 3.63513 20.9183 3.63513 20.0233 3.63513C20.0233 3.39857 20.0233 3.17384 20.0233 2.95897C20.0557 2.62979 19.9978 2.298 19.8557 1.99929C19.7136 1.70058 19.4928 1.44624 19.217 1.26363C16.7844 -0.425785 13.8945 -0.410015 11.4855 1.30503C11.2361 1.47675 11.0366 1.71153 10.9074 1.98545C10.7783 2.25937 10.724 2.56263 10.7502 2.86434C10.766 3.11273 10.7621 3.36703 10.7601 3.63513H10.2081C9.44719 3.63513 8.72963 3.63513 8.00616 3.63513C7.85998 3.62275 7.71281 3.6409 7.57402 3.68841C7.43522 3.73592 7.30782 3.81175 7.19988 3.91111C7.09839 4.02511 7.02177 4.15903 6.97493 4.3043C6.92809 4.44957 6.91205 4.60302 6.92784 4.75484C6.94164 5.22007 6.93967 5.68727 6.92784 6.18207V6.3792H5.55777C4.72982 6.3792 3.90187 6.3792 3.07392 6.3792C2.12571 6.3792 0.992206 6.77347 0.990234 8.56342C0.990234 18.3254 0.990234 28.0887 0.990234 37.8532C0.990234 38.8389 1.34705 40 3.04238 40.0059H27.6858C29.0657 40.0059 29.7518 39.2667 29.7518 37.8197V20.1567C29.7557 16.3008 29.7557 12.4403 29.7518 8.57525ZM8.63106 5.33638H10.8488C12.207 5.33638 12.412 5.11953 12.412 3.68441C12.412 3.09302 12.4258 2.78352 12.5185 2.64159C12.6111 2.49965 12.9128 2.35771 13.378 2.15861C14.892 1.5061 16.3921 1.59679 17.9633 2.44051C18.3161 2.62581 18.4206 2.80915 18.3792 3.16201C18.358 3.39993 18.3534 3.63904 18.3654 3.8776C18.3654 4.01756 18.3654 4.15161 18.3654 4.27186C18.3513 4.41403 18.3669 4.55759 18.4114 4.69337C18.4558 4.82914 18.5281 4.95415 18.6237 5.06039C18.7245 5.15526 18.8442 5.22781 18.975 5.27333C19.1058 5.31884 19.2447 5.3363 19.3826 5.32455C20.0568 5.31272 20.7428 5.31469 21.4072 5.32455H22.1326V9.07005H8.63106V5.33638ZM28.086 37.8316C28.0973 37.9748 28.0833 38.119 28.0446 38.2574C27.934 38.296 27.8161 38.3094 27.6996 38.2968C26.3512 38.2968 24.9969 38.2968 23.6505 38.2968H5.40992C4.6214 38.2968 3.83287 38.2968 3.04434 38.2968C2.95648 38.2974 2.86874 38.2902 2.78217 38.2751C2.76027 38.2707 2.73905 38.2634 2.71908 38.2534C2.71908 38.2534 2.6698 38.1844 2.6698 37.8592C2.6698 28.0775 2.6698 18.2965 2.6698 8.51611C2.66677 8.41035 2.67536 8.30458 2.69543 8.2007C2.69933 8.17527 2.70732 8.15064 2.71908 8.12776C2.77786 8.10425 2.84131 8.09479 2.90439 8.10016C3.93933 8.08242 4.99595 8.08636 6.01512 8.10016H6.93573C6.93573 8.60482 6.93573 9.11736 6.93573 9.6299C6.93573 10.5722 7.19397 10.8462 8.09092 10.8462H20.8927C21.5097 10.8462 22.1464 10.8462 22.7713 10.8462C22.9126 10.8557 23.0543 10.8362 23.1879 10.7891C23.3214 10.742 23.4439 10.6682 23.548 10.5722C23.6475 10.4617 23.7229 10.3318 23.7694 10.1906C23.8159 10.0494 23.8325 9.90008 23.8181 9.75213C23.8181 9.28492 23.8181 8.81969 23.8181 8.33278V8.08833H24.1946C25.3537 8.08833 26.5503 8.08833 27.7312 8.08833C27.8345 8.08103 27.9382 8.09375 28.0367 8.12579C28.0861 8.25715 28.1036 8.39834 28.088 8.53779L28.086 37.8316Z" fill="#CCCCCC"/>
<path d="M23.8378 32.8579V9.70482H6.91601V15.1752C6.91601 21.1115 6.91601 27.0471 6.91601 32.9821C6.89935 33.1038 6.92096 33.2276 6.97783 33.3363C7.0347 33.4451 7.12401 33.5336 7.23339 33.5893C7.48966 33.7135 7.70454 33.607 7.8997 33.4336L8.91493 32.5425L9.67783 31.8782C10.1253 32.3789 10.559 32.8639 10.9888 33.3488C11.318 33.7194 11.661 33.7431 12.006 33.3863C12.4672 32.9191 12.9226 32.4459 13.3859 31.9748C13.4312 31.9275 13.4825 31.888 13.5357 31.8407L13.7328 32.0615C14.1271 32.507 14.5214 32.9545 14.9156 33.3961C15.2153 33.7293 15.5366 33.7253 15.8362 33.3961L15.9407 33.2759L17.2516 31.8053C17.3167 31.89 17.362 31.961 17.4192 32.0221C17.8463 32.4794 18.2761 32.9355 18.7084 33.3902C18.7664 33.4666 18.8414 33.5283 18.9275 33.5704C19.0136 33.6125 19.1084 33.6339 19.2042 33.6327C19.3001 33.6316 19.3943 33.608 19.4794 33.5638C19.5645 33.5196 19.638 33.4561 19.6941 33.3784C20.0805 32.9447 20.4655 32.5097 20.8493 32.0734C20.9084 32.0083 20.9695 31.9452 21.0346 31.8762C21.6772 32.4262 22.3002 32.9545 22.9172 33.4907C22.9983 33.5672 23.1008 33.6172 23.211 33.6341C23.3212 33.651 23.4339 33.634 23.5342 33.5854C23.6266 33.5457 23.7046 33.4787 23.7578 33.3934C23.811 33.3082 23.8368 33.2087 23.8319 33.1083C23.8398 33.0255 23.8378 32.9427 23.8378 32.8579ZM22.6905 31.8506C22.6077 31.7777 22.5466 31.7284 22.4934 31.6751C22.1287 31.3499 21.7659 31.0207 21.3973 30.6993C21.0977 30.4372 20.8059 30.4608 20.5398 30.7605L19.1855 32.2843L18.3437 31.3992C18.1131 31.1567 17.8824 30.9103 17.6498 30.6678C17.3541 30.3603 17.0584 30.3642 16.7687 30.6816C16.3113 31.1941 15.854 31.7087 15.3887 32.2389L14.0936 30.8314C14.0384 30.7683 13.9812 30.7053 13.9221 30.6461C13.8752 30.5863 13.8154 30.5379 13.7471 30.5046C13.6788 30.4714 13.6038 30.4541 13.5278 30.4541C13.4518 30.4541 13.3768 30.4714 13.3085 30.5046C13.2402 30.5379 13.1804 30.5863 13.1336 30.6461C12.6604 31.1258 12.1906 31.6068 11.7241 32.0891C11.6669 32.1502 11.6176 32.2192 11.5526 32.2981C11.1169 31.7915 10.7108 31.3124 10.3008 30.8432C9.93804 30.4253 9.64826 30.4036 9.23428 30.7723C8.8203 31.1409 8.44576 31.4701 8.02784 31.8486V10.8088H22.6964L22.6905 31.8506Z" fill="#CCCCCC"/>
<path d="M14.4445 26.5142C14.5509 26.5235 14.6532 26.5597 14.7418 26.6194C14.8304 26.679 14.9024 26.7602 14.9511 26.8553C14.9717 26.9074 15.0025 26.9549 15.0415 26.9951C15.0805 27.0353 15.1271 27.0674 15.1786 27.0895C15.23 27.1117 15.2854 27.1235 15.3414 27.1242C15.3974 27.1249 15.453 27.1146 15.505 27.0938C15.6226 27.0567 15.7233 26.9791 15.789 26.8748C15.8547 26.7704 15.8812 26.6462 15.8638 26.5241C15.8343 26.2777 15.6667 26.1791 15.4479 26.1298C15.2291 26.0805 15.0753 26.051 14.89 26.0037C14.3301 25.8538 13.9043 25.566 13.792 24.9451C13.6698 24.2413 13.792 23.6223 14.3952 23.1709C14.4237 23.1456 14.4555 23.1244 14.4898 23.1078C14.5984 23.0739 14.6904 23.0009 14.748 22.9028C14.8056 22.8048 14.8246 22.6888 14.8013 22.5775C14.7931 22.4503 14.829 22.3242 14.903 22.2204C14.977 22.1167 15.0845 22.0416 15.2074 22.0078C15.2875 21.9787 15.3737 21.9699 15.458 21.9822C15.5424 21.9945 15.6224 22.0275 15.691 22.0783C15.7595 22.1291 15.8144 22.196 15.8507 22.2731C15.8871 22.3503 15.9038 22.4352 15.8993 22.5203C15.8875 22.8515 16.0491 22.9816 16.2936 23.1512C16.5062 23.3204 16.6831 23.5301 16.814 23.7682C16.8789 23.8923 16.893 24.0367 16.8531 24.171C16.8132 24.3052 16.7226 24.4186 16.6005 24.4871C16.4783 24.5556 16.3343 24.5738 16.199 24.5379C16.0637 24.5019 15.9477 24.4146 15.8757 24.2945C15.8257 24.184 15.7406 24.093 15.6337 24.0356C15.5268 23.9783 15.404 23.9577 15.2843 23.9772C15.1794 23.9993 15.0835 24.0519 15.0085 24.1283C14.9334 24.2048 14.8826 24.3017 14.8624 24.4069C14.8421 24.5102 14.8623 24.6173 14.9188 24.7061C14.9753 24.7949 15.0638 24.8586 15.166 24.884C15.3789 24.9648 15.6016 25.018 15.8224 25.0811C16.4138 25.2467 16.883 25.5384 16.9855 26.2185C17.0979 26.9519 16.9007 27.559 16.2522 27.9533C16.1433 27.9991 16.0524 28.0791 15.993 28.1811C15.9336 28.2832 15.909 28.4018 15.923 28.5191C15.932 28.5918 15.925 28.6656 15.9024 28.7354C15.8798 28.8051 15.8422 28.869 15.7921 28.9226C15.7421 28.9762 15.681 29.0181 15.613 29.0455C15.545 29.0728 15.4718 29.0849 15.3986 29.0809C15.3211 29.0894 15.2426 29.0808 15.1687 29.0558C15.0949 29.0307 15.0274 28.9898 14.971 28.9359C14.9146 28.882 14.8708 28.8163 14.8425 28.7437C14.8142 28.671 14.8021 28.593 14.8072 28.5151C14.82 28.402 14.7971 28.2877 14.7416 28.1884C14.686 28.089 14.6008 28.0095 14.4977 27.9612C14.2606 27.7964 14.0594 27.5851 13.9063 27.3402C13.8525 27.2522 13.8248 27.1507 13.8263 27.0476C13.8278 26.9444 13.8584 26.8438 13.9147 26.7574C13.9711 26.671 14.0507 26.6023 14.1445 26.5592C14.2382 26.5162 14.3422 26.5006 14.4445 26.5142Z" fill="#CCCCCC"/>
<path d="M15.302 19.8374C13.6829 19.8374 12.0638 19.8374 10.4447 19.8374C10.342 19.8478 10.2384 19.8304 10.1448 19.7871C10.0512 19.7437 9.9709 19.676 9.91241 19.591C9.85138 19.5091 9.814 19.412 9.80435 19.3103C9.7947 19.2086 9.81314 19.1063 9.85768 19.0143C9.90221 18.9224 9.97112 18.8445 10.0569 18.7891C10.1427 18.7336 10.242 18.7028 10.3441 18.6999C10.4112 18.6999 10.4802 18.6999 10.5413 18.6999H20.0726C20.1337 18.6999 20.1948 18.6999 20.2559 18.6999C20.3288 18.6991 20.4011 18.713 20.4684 18.741C20.5357 18.7689 20.5966 18.8102 20.6475 18.8623C20.6983 18.9145 20.7381 18.9764 20.7643 19.0444C20.7905 19.1124 20.8027 19.185 20.8 19.2578C20.8022 19.3346 20.7886 19.411 20.7601 19.4824C20.7316 19.5537 20.6888 19.6184 20.6343 19.6726C20.5798 19.7267 20.5148 19.7691 20.4433 19.7971C20.3717 19.8251 20.2952 19.8381 20.2185 19.8354H15.2902L15.302 19.8374Z" fill="#CCCCCC"/>
<path d="M15.4242 12.6854H20.2126C20.6502 12.6854 20.94 12.9062 20.9419 13.2394C20.9439 13.5725 20.6502 13.8308 20.2106 13.8308H10.6142C10.499 13.8475 10.3815 13.8298 10.2763 13.7801C10.1711 13.7303 10.0829 13.6505 10.0228 13.5509C9.96749 13.4629 9.93763 13.3613 9.93657 13.2574C9.93551 13.1535 9.96328 13.0514 10.0168 12.9623C10.0703 12.8732 10.1475 12.8008 10.2397 12.7529C10.332 12.7051 10.4357 12.6838 10.5393 12.6914L15.4242 12.6854Z" fill="#CCCCCC"/>
<path d="M15.373 15.7193C16.9776 15.7193 18.5823 15.7193 20.1869 15.7193C20.5595 15.7193 20.7527 15.8415 20.8296 16.1136C20.8518 16.1832 20.859 16.2568 20.8508 16.3294C20.8426 16.4021 20.8191 16.4722 20.7818 16.5351C20.7446 16.598 20.6945 16.6524 20.6347 16.6946C20.575 16.7367 20.5071 16.7658 20.4353 16.7799C20.3387 16.8 20.2402 16.8092 20.1416 16.8075H10.5629C10.4566 16.809 10.3506 16.7964 10.2475 16.77C10.1392 16.7415 10.0428 16.6794 9.97194 16.5926C9.90111 16.5058 9.85957 16.3989 9.85328 16.287C9.8452 16.1793 9.87236 16.0718 9.93067 15.9807C9.98898 15.8897 10.0753 15.8201 10.1766 15.7824C10.2979 15.7388 10.4261 15.7174 10.5551 15.7193C12.1637 15.7167 13.7696 15.7167 15.373 15.7193Z" fill="#CCCCCC"/>
</svg>
