<svg width="45" height="41" viewBox="0 0 45 41" fill="none" xmlns="http://www.w3.org/2000/svg">
<path d="M31.4778 17.2742C31.4778 15.4961 31.4778 13.7215 31.4778 11.9506C31.4884 11.627 31.4305 11.3048 31.3079 11.0051C31.1854 10.7054 31.0009 10.435 30.7666 10.2116C27.6087 7.05369 24.4591 3.8875 21.3178 0.713007C21.102 0.481032 20.8392 0.29764 20.5471 0.175012C20.2549 0.0523845 19.94 -0.00667073 19.6233 0.00176902C13.7081 0.00888139 7.79361 0.00888139 1.87967 0.00176902C0.812809 0.00176902 -0.00511322 0.586762 0.00199916 1.88299C0.0357829 7.91784 0.0162269 13.9527 0.0162269 19.9875C0.0162269 26.0224 0.0162269 32.0786 0.0162269 38.1348C0.00686323 38.3562 0.0217695 38.578 0.0606793 38.7962C0.238489 39.6106 0.857262 40.0018 1.92412 40.0018H29.5166C30.9284 40.0018 31.4725 39.4541 31.4725 38.0459V32.3649L29.0276 34.5572V37.74H2.42554V2.17816H17.1375V2.73114C17.1375 5.8677 17.1677 9.00426 17.1233 12.1408C17.1073 13.3855 17.9465 14.1198 19.0792 14.0967C22.2139 14.0487 25.3505 14.0789 28.4853 14.0789H29.0187V19.479L31.4778 17.2742ZM19.6233 11.787V3.60774L27.8896 11.787H19.6233Z" fill="white"/>
<path d="M30.4127 29.8666L40.9035 20.4659L36.8903 15.9797L26.3996 25.3823L30.4127 29.8666Z" fill="white"/>
<path d="M28.9191 31.3531L24.8295 26.7976C24.1627 27.4431 23.3768 27.8947 23.1723 28.9082C22.9679 29.9218 22.6158 30.8641 22.3331 31.8456C22.0504 32.8272 22.5233 33.325 23.4977 33.1686C24.6588 32.9819 25.8501 32.8929 26.9721 32.5658C27.6585 32.3666 28.2292 31.7994 28.9191 31.3531Z" fill="white"/>
<path d="M38.4035 14.5697L42.4273 19.0292C43.1617 18.3766 43.8694 17.7703 44.5468 17.1337C44.6296 17.0587 44.6963 16.9677 44.743 16.8662C44.7896 16.7647 44.8152 16.6548 44.8182 16.5431C44.8212 16.4314 44.8015 16.3203 44.7604 16.2165C44.7192 16.1126 44.6575 16.0182 44.5788 15.9388C43.6483 14.8826 42.7035 13.8377 41.7445 12.804C41.3889 12.4182 40.9319 12.4146 40.4999 12.7294C40.3736 12.8236 40.2563 12.9303 40.1442 13.0352L38.4035 14.5697Z" fill="white"/>
<path d="M15.7808 19.351C13.41 19.351 11.0434 19.351 8.68087 19.351C7.87895 19.351 7.36864 19.0256 7.14638 18.3926C7.0869 18.2216 7.06371 18.04 7.07829 17.8595C7.09286 17.6791 7.14489 17.5036 7.23105 17.3443C7.3172 17.1851 7.43559 17.0455 7.57868 16.9345C7.72176 16.8236 7.88641 16.7437 8.0621 16.6998C8.23631 16.6543 8.41547 16.6305 8.59553 16.6287C13.4023 16.6287 18.2097 16.6287 23.0176 16.6287C23.9796 16.6287 24.5966 17.2279 24.5521 18.0797C24.5112 18.8638 23.9227 19.3492 22.9785 19.351C20.5769 19.3534 18.1777 19.3534 15.7808 19.351Z" fill="white"/>
<path d="M15.8484 23.0139H22.9447C23.5208 23.0139 24.0276 23.1543 24.3477 23.6878C24.4606 23.8661 24.5289 24.0692 24.5465 24.2796C24.5642 24.49 24.5307 24.7015 24.449 24.8962C24.3673 25.0909 24.2397 25.263 24.0772 25.3977C23.9146 25.5325 23.722 25.626 23.5155 25.6703C23.3142 25.7159 23.1084 25.7386 22.9021 25.7379C18.1712 25.7379 13.4402 25.7379 8.70932 25.7379C7.84161 25.7379 7.34552 25.4374 7.13037 24.7902C7.07306 24.6148 7.05288 24.4294 7.07108 24.2458C7.08929 24.0622 7.14549 23.8844 7.23613 23.7237C7.32677 23.563 7.44986 23.4229 7.59757 23.3123C7.74527 23.2017 7.91437 23.1231 8.09411 23.0814C8.32815 23.0341 8.56659 23.012 8.80534 23.0156C11.1501 23.0121 13.4977 23.0115 15.8484 23.0139Z" fill="white"/>
<path d="M21.6859 29.463C21.5329 30.3681 21.3907 31.2215 21.2431 32.1035H8.83557C8.62892 32.1065 8.42229 32.097 8.21679 32.075C7.89962 32.0277 7.61079 31.8657 7.40502 31.6198C7.19924 31.3738 7.0908 31.061 7.10022 30.7404C7.10964 30.4199 7.23628 30.1139 7.45615 29.8804C7.67601 29.647 7.97384 29.5023 8.29325 29.4737C8.42661 29.463 8.55997 29.4648 8.69332 29.4648H21.6859V29.463Z" fill="white"/>
</svg>
