<svg width="32" height="41" viewBox="0 0 32 41" fill="none" xmlns="http://www.w3.org/2000/svg">
<path d="M0.0156206 19.9864C0.0156206 13.9613 0.0334728 7.91609 0 1.88206C0 0.585551 0.805578 -0.00133923 1.87671 0.000892288C7.79321 0.0217198 13.7082 0.0217198 19.6218 0.000892288C19.9386 -0.00807092 20.2538 0.0505802 20.5462 0.17294C20.8386 0.2953 21.1016 0.47856 21.3177 0.710516C24.4582 3.89118 27.6076 7.05993 30.766 10.2168C31.0012 10.4397 31.1866 10.7098 31.31 11.0094C31.4335 11.309 31.4922 11.6313 31.4823 11.9551C31.4704 20.6506 31.4704 29.3476 31.4823 38.0461C31.4823 39.4564 30.9356 40.0031 29.523 40.0031H1.92357C0.856903 40.0031 0.245466 39.6148 0.0602503 38.7981C0.0211416 38.5772 0.00617749 38.3528 0.0156206 38.1286C0.0141329 32.0857 0.0141329 26.0383 0.0156206 19.9864ZM2.42566 2.17885V37.7448H29.0276V14.0907H28.4943C25.3702 14.0907 22.2215 14.0595 19.0862 14.1086C17.9459 14.1242 17.1068 13.3922 17.1247 12.1471C17.1671 9.00954 17.1381 5.87425 17.1381 2.73673V2.18332L2.42566 2.17885ZM19.624 11.7878H27.8806L19.624 3.60926V11.7878Z" fill="#1C2355"/>
<path d="M17.2787 26.2592V26.8372C17.2787 28.1247 17.292 29.4123 17.2563 30.6977C17.2542 31.0503 17.1229 31.3899 16.8873 31.6523C16.6517 31.9147 16.3281 32.0816 15.9777 32.1214C15.6322 32.1829 15.2761 32.1229 14.9698 31.9517C14.6635 31.7804 14.4259 31.5084 14.2973 31.1819C14.2078 30.9168 14.1648 30.6382 14.1702 30.3585C14.1568 29.1758 14.1702 27.9909 14.1702 26.8081V26.2592H13.6123C12.3693 26.2592 11.1264 26.2748 9.88563 26.2592C8.89261 26.2391 8.21869 25.5027 8.29456 24.5766C8.36374 23.7487 9.01088 23.1708 9.93026 23.1574C11.1286 23.1418 12.3269 23.1574 13.5252 23.1574H14.1278V22.6642C14.1278 21.4815 14.1702 20.2966 14.1144 19.1161C14.063 17.9758 14.7838 17.2729 15.692 17.2706C16.5378 17.2706 17.2943 18.0048 17.2541 19.0982C17.1983 20.4372 17.2407 21.756 17.2407 23.1284C17.4259 23.1284 17.5821 23.1529 17.7384 23.1529C19.0103 23.1529 20.2823 23.1373 21.5543 23.1529C22.6968 23.1752 23.3997 24.1147 23.0962 25.1613C22.9066 25.8307 22.3085 26.2413 21.4985 26.2503C20.3001 26.2614 19.1018 26.2503 17.9035 26.2503L17.2787 26.2592Z" fill="#1C2355"/>
</svg>
